%TF.GenerationSoftware,KiCad,Pcbnew,8.0.5*%
%TF.CreationDate,2024-09-09T18:51:00+02:00*%
%TF.ProjectId,StandOrbs,5374616e-644f-4726-9273-2e6b69636164,rev?*%
%TF.SameCoordinates,Original*%
%TF.FileFunction,Drillmap*%
%TF.FilePolarity,Positive*%
%FSLAX45Y45*%
G04 Gerber Fmt 4.5, Leading zero omitted, Abs format (unit mm)*
G04 Created by KiCad (PCBNEW 8.0.5) date 2024-09-09 18:51:00*
%MOMM*%
%LPD*%
G01*
G04 APERTURE LIST*
%ADD10C,0.050000*%
%ADD11C,0.200000*%
G04 APERTURE END LIST*
D10*
X9317500Y-8328000D02*
X8887500Y-10044000D01*
X10103000Y-8327000D02*
X10680500Y-8328000D01*
X8312000Y-7689500D02*
X7487500Y-10044000D01*
X9897000Y-8044000D02*
X9897000Y-8327000D01*
X10103000Y-8044000D02*
X10103000Y-8327000D01*
X8549000Y-7904000D02*
X11449000Y-7904000D01*
X9897000Y-8327000D02*
X9317500Y-8328000D01*
X11686000Y-7689500D02*
X8312000Y-7689500D01*
X10103000Y-8327000D02*
X10103000Y-8044000D01*
X11686000Y-7689500D02*
X12512500Y-10044000D01*
X12512500Y-10044000D02*
X11112500Y-10044000D01*
X11112500Y-10044000D02*
X12512500Y-10044000D01*
X11449000Y-7904000D02*
X11449000Y-8044000D01*
X8312000Y-7689500D02*
X11686000Y-7689500D01*
X7487500Y-10044000D02*
X8312000Y-7689500D01*
X8887500Y-10044000D02*
X9317500Y-8328000D01*
X8549000Y-7904000D02*
X8549000Y-8044000D01*
X9897000Y-8044000D02*
X9897000Y-8327000D01*
X7487500Y-10044000D02*
X8312000Y-7689500D01*
X9317500Y-8328000D02*
X9897000Y-8327000D01*
X8549000Y-8044000D02*
X9897000Y-8044000D01*
X10680500Y-8328000D02*
X10103000Y-8327000D01*
X11686000Y-7689500D02*
X12512500Y-10044000D01*
X11112500Y-10044000D02*
X10680500Y-8328000D01*
X10680500Y-8328000D02*
X11112500Y-10044000D01*
X10103000Y-8044000D02*
X11449000Y-8044000D01*
X7487500Y-10044000D02*
X8887500Y-10044000D01*
X8887500Y-10044000D02*
X7487500Y-10044000D01*
D11*
X7745777Y-10357984D02*
X7745777Y-10157984D01*
X7745777Y-10157984D02*
X7793396Y-10157984D01*
X7793396Y-10157984D02*
X7821967Y-10167508D01*
X7821967Y-10167508D02*
X7841015Y-10186555D01*
X7841015Y-10186555D02*
X7850539Y-10205603D01*
X7850539Y-10205603D02*
X7860062Y-10243698D01*
X7860062Y-10243698D02*
X7860062Y-10272270D01*
X7860062Y-10272270D02*
X7850539Y-10310365D01*
X7850539Y-10310365D02*
X7841015Y-10329412D01*
X7841015Y-10329412D02*
X7821967Y-10348460D01*
X7821967Y-10348460D02*
X7793396Y-10357984D01*
X7793396Y-10357984D02*
X7745777Y-10357984D01*
X7945777Y-10357984D02*
X7945777Y-10224650D01*
X7945777Y-10262746D02*
X7955301Y-10243698D01*
X7955301Y-10243698D02*
X7964824Y-10234174D01*
X7964824Y-10234174D02*
X7983872Y-10224650D01*
X7983872Y-10224650D02*
X8002920Y-10224650D01*
X8069586Y-10357984D02*
X8069586Y-10224650D01*
X8069586Y-10157984D02*
X8060062Y-10167508D01*
X8060062Y-10167508D02*
X8069586Y-10177031D01*
X8069586Y-10177031D02*
X8079110Y-10167508D01*
X8079110Y-10167508D02*
X8069586Y-10157984D01*
X8069586Y-10157984D02*
X8069586Y-10177031D01*
X8193396Y-10357984D02*
X8174348Y-10348460D01*
X8174348Y-10348460D02*
X8164824Y-10329412D01*
X8164824Y-10329412D02*
X8164824Y-10157984D01*
X8298158Y-10357984D02*
X8279110Y-10348460D01*
X8279110Y-10348460D02*
X8269586Y-10329412D01*
X8269586Y-10329412D02*
X8269586Y-10157984D01*
X8526729Y-10357984D02*
X8526729Y-10157984D01*
X8526729Y-10157984D02*
X8593396Y-10300841D01*
X8593396Y-10300841D02*
X8660063Y-10157984D01*
X8660063Y-10157984D02*
X8660063Y-10357984D01*
X8841015Y-10357984D02*
X8841015Y-10253222D01*
X8841015Y-10253222D02*
X8831491Y-10234174D01*
X8831491Y-10234174D02*
X8812444Y-10224650D01*
X8812444Y-10224650D02*
X8774348Y-10224650D01*
X8774348Y-10224650D02*
X8755301Y-10234174D01*
X8841015Y-10348460D02*
X8821967Y-10357984D01*
X8821967Y-10357984D02*
X8774348Y-10357984D01*
X8774348Y-10357984D02*
X8755301Y-10348460D01*
X8755301Y-10348460D02*
X8745777Y-10329412D01*
X8745777Y-10329412D02*
X8745777Y-10310365D01*
X8745777Y-10310365D02*
X8755301Y-10291317D01*
X8755301Y-10291317D02*
X8774348Y-10281793D01*
X8774348Y-10281793D02*
X8821967Y-10281793D01*
X8821967Y-10281793D02*
X8841015Y-10272270D01*
X8936253Y-10224650D02*
X8936253Y-10424650D01*
X8936253Y-10234174D02*
X8955301Y-10224650D01*
X8955301Y-10224650D02*
X8993396Y-10224650D01*
X8993396Y-10224650D02*
X9012444Y-10234174D01*
X9012444Y-10234174D02*
X9021967Y-10243698D01*
X9021967Y-10243698D02*
X9031491Y-10262746D01*
X9031491Y-10262746D02*
X9031491Y-10319889D01*
X9031491Y-10319889D02*
X9021967Y-10338936D01*
X9021967Y-10338936D02*
X9012444Y-10348460D01*
X9012444Y-10348460D02*
X8993396Y-10357984D01*
X8993396Y-10357984D02*
X8955301Y-10357984D01*
X8955301Y-10357984D02*
X8936253Y-10348460D01*
X9117205Y-10338936D02*
X9126729Y-10348460D01*
X9126729Y-10348460D02*
X9117205Y-10357984D01*
X9117205Y-10357984D02*
X9107682Y-10348460D01*
X9107682Y-10348460D02*
X9117205Y-10338936D01*
X9117205Y-10338936D02*
X9117205Y-10357984D01*
X9117205Y-10234174D02*
X9126729Y-10243698D01*
X9126729Y-10243698D02*
X9117205Y-10253222D01*
X9117205Y-10253222D02*
X9107682Y-10243698D01*
X9107682Y-10243698D02*
X9117205Y-10234174D01*
X9117205Y-10234174D02*
X9117205Y-10253222D01*
M02*
