%TF.GenerationSoftware,KiCad,Pcbnew,8.0.5*%
%TF.CreationDate,2024-09-09T18:51:06+02:00*%
%TF.ProjectId,StandOrbs,5374616e-644f-4726-9273-2e6b69636164,rev?*%
%TF.SameCoordinates,Original*%
%TF.FileFunction,Legend,Top*%
%TF.FilePolarity,Positive*%
%FSLAX46Y46*%
G04 Gerber Fmt 4.6, Leading zero omitted, Abs format (unit mm)*
G04 Created by KiCad (PCBNEW 8.0.5) date 2024-09-09 18:51:06*
%MOMM*%
%LPD*%
G01*
G04 APERTURE LIST*
%ADD10C,0.100000*%
G04 APERTURE END LIST*
D10*
X112692455Y-99576895D02*
X112692455Y-98776895D01*
X112692455Y-99538800D02*
X112597217Y-99576895D01*
X112597217Y-99576895D02*
X112406741Y-99576895D01*
X112406741Y-99576895D02*
X112311503Y-99538800D01*
X112311503Y-99538800D02*
X112263884Y-99500704D01*
X112263884Y-99500704D02*
X112216265Y-99424514D01*
X112216265Y-99424514D02*
X112216265Y-99195942D01*
X112216265Y-99195942D02*
X112263884Y-99119752D01*
X112263884Y-99119752D02*
X112311503Y-99081657D01*
X112311503Y-99081657D02*
X112406741Y-99043561D01*
X112406741Y-99043561D02*
X112597217Y-99043561D01*
X112597217Y-99043561D02*
X112692455Y-99081657D01*
X113168646Y-99576895D02*
X113168646Y-99043561D01*
X113168646Y-98776895D02*
X113121027Y-98814990D01*
X113121027Y-98814990D02*
X113168646Y-98853085D01*
X113168646Y-98853085D02*
X113216265Y-98814990D01*
X113216265Y-98814990D02*
X113168646Y-98776895D01*
X113168646Y-98776895D02*
X113168646Y-98853085D01*
X114025788Y-99538800D02*
X113930550Y-99576895D01*
X113930550Y-99576895D02*
X113740074Y-99576895D01*
X113740074Y-99576895D02*
X113644836Y-99538800D01*
X113644836Y-99538800D02*
X113597217Y-99462609D01*
X113597217Y-99462609D02*
X113597217Y-99157847D01*
X113597217Y-99157847D02*
X113644836Y-99081657D01*
X113644836Y-99081657D02*
X113740074Y-99043561D01*
X113740074Y-99043561D02*
X113930550Y-99043561D01*
X113930550Y-99043561D02*
X114025788Y-99081657D01*
X114025788Y-99081657D02*
X114073407Y-99157847D01*
X114073407Y-99157847D02*
X114073407Y-99234038D01*
X114073407Y-99234038D02*
X113597217Y-99310228D01*
X115263884Y-99576895D02*
X115263884Y-98776895D01*
X115263884Y-99081657D02*
X115359122Y-99043561D01*
X115359122Y-99043561D02*
X115549598Y-99043561D01*
X115549598Y-99043561D02*
X115644836Y-99081657D01*
X115644836Y-99081657D02*
X115692455Y-99119752D01*
X115692455Y-99119752D02*
X115740074Y-99195942D01*
X115740074Y-99195942D02*
X115740074Y-99424514D01*
X115740074Y-99424514D02*
X115692455Y-99500704D01*
X115692455Y-99500704D02*
X115644836Y-99538800D01*
X115644836Y-99538800D02*
X115549598Y-99576895D01*
X115549598Y-99576895D02*
X115359122Y-99576895D01*
X115359122Y-99576895D02*
X115263884Y-99538800D01*
X116073408Y-99043561D02*
X116311503Y-99576895D01*
X116549598Y-99043561D02*
X116311503Y-99576895D01*
X116311503Y-99576895D02*
X116216265Y-99767371D01*
X116216265Y-99767371D02*
X116168646Y-99805466D01*
X116168646Y-99805466D02*
X116073408Y-99843561D01*
X117549599Y-99043561D02*
X117930551Y-99043561D01*
X117692456Y-98776895D02*
X117692456Y-99462609D01*
X117692456Y-99462609D02*
X117740075Y-99538800D01*
X117740075Y-99538800D02*
X117835313Y-99576895D01*
X117835313Y-99576895D02*
X117930551Y-99576895D01*
X118263885Y-99576895D02*
X118263885Y-98776895D01*
X118692456Y-99576895D02*
X118692456Y-99157847D01*
X118692456Y-99157847D02*
X118644837Y-99081657D01*
X118644837Y-99081657D02*
X118549599Y-99043561D01*
X118549599Y-99043561D02*
X118406742Y-99043561D01*
X118406742Y-99043561D02*
X118311504Y-99081657D01*
X118311504Y-99081657D02*
X118263885Y-99119752D01*
X119549599Y-99538800D02*
X119454361Y-99576895D01*
X119454361Y-99576895D02*
X119263885Y-99576895D01*
X119263885Y-99576895D02*
X119168647Y-99538800D01*
X119168647Y-99538800D02*
X119121028Y-99462609D01*
X119121028Y-99462609D02*
X119121028Y-99157847D01*
X119121028Y-99157847D02*
X119168647Y-99081657D01*
X119168647Y-99081657D02*
X119263885Y-99043561D01*
X119263885Y-99043561D02*
X119454361Y-99043561D01*
X119454361Y-99043561D02*
X119549599Y-99081657D01*
X119549599Y-99081657D02*
X119597218Y-99157847D01*
X119597218Y-99157847D02*
X119597218Y-99234038D01*
X119597218Y-99234038D02*
X119121028Y-99310228D01*
X120930552Y-99576895D02*
X120835314Y-99538800D01*
X120835314Y-99538800D02*
X120787695Y-99500704D01*
X120787695Y-99500704D02*
X120740076Y-99424514D01*
X120740076Y-99424514D02*
X120740076Y-99195942D01*
X120740076Y-99195942D02*
X120787695Y-99119752D01*
X120787695Y-99119752D02*
X120835314Y-99081657D01*
X120835314Y-99081657D02*
X120930552Y-99043561D01*
X120930552Y-99043561D02*
X121073409Y-99043561D01*
X121073409Y-99043561D02*
X121168647Y-99081657D01*
X121168647Y-99081657D02*
X121216266Y-99119752D01*
X121216266Y-99119752D02*
X121263885Y-99195942D01*
X121263885Y-99195942D02*
X121263885Y-99424514D01*
X121263885Y-99424514D02*
X121216266Y-99500704D01*
X121216266Y-99500704D02*
X121168647Y-99538800D01*
X121168647Y-99538800D02*
X121073409Y-99576895D01*
X121073409Y-99576895D02*
X120930552Y-99576895D01*
X121692457Y-99576895D02*
X121692457Y-99043561D01*
X121692457Y-99195942D02*
X121740076Y-99119752D01*
X121740076Y-99119752D02*
X121787695Y-99081657D01*
X121787695Y-99081657D02*
X121882933Y-99043561D01*
X121882933Y-99043561D02*
X121978171Y-99043561D01*
X122311505Y-99576895D02*
X122311505Y-98776895D01*
X122311505Y-99081657D02*
X122406743Y-99043561D01*
X122406743Y-99043561D02*
X122597219Y-99043561D01*
X122597219Y-99043561D02*
X122692457Y-99081657D01*
X122692457Y-99081657D02*
X122740076Y-99119752D01*
X122740076Y-99119752D02*
X122787695Y-99195942D01*
X122787695Y-99195942D02*
X122787695Y-99424514D01*
X122787695Y-99424514D02*
X122740076Y-99500704D01*
X122740076Y-99500704D02*
X122692457Y-99538800D01*
X122692457Y-99538800D02*
X122597219Y-99576895D01*
X122597219Y-99576895D02*
X122406743Y-99576895D01*
X122406743Y-99576895D02*
X122311505Y-99538800D01*
X123168648Y-99538800D02*
X123263886Y-99576895D01*
X123263886Y-99576895D02*
X123454362Y-99576895D01*
X123454362Y-99576895D02*
X123549600Y-99538800D01*
X123549600Y-99538800D02*
X123597219Y-99462609D01*
X123597219Y-99462609D02*
X123597219Y-99424514D01*
X123597219Y-99424514D02*
X123549600Y-99348323D01*
X123549600Y-99348323D02*
X123454362Y-99310228D01*
X123454362Y-99310228D02*
X123311505Y-99310228D01*
X123311505Y-99310228D02*
X123216267Y-99272133D01*
X123216267Y-99272133D02*
X123168648Y-99195942D01*
X123168648Y-99195942D02*
X123168648Y-99157847D01*
X123168648Y-99157847D02*
X123216267Y-99081657D01*
X123216267Y-99081657D02*
X123311505Y-99043561D01*
X123311505Y-99043561D02*
X123454362Y-99043561D01*
X123454362Y-99043561D02*
X123549600Y-99081657D01*
X76596741Y-99616895D02*
X76501503Y-99578800D01*
X76501503Y-99578800D02*
X76453884Y-99502609D01*
X76453884Y-99502609D02*
X76453884Y-98816895D01*
X76977694Y-99616895D02*
X76977694Y-99083561D01*
X76977694Y-98816895D02*
X76930075Y-98854990D01*
X76930075Y-98854990D02*
X76977694Y-98893085D01*
X76977694Y-98893085D02*
X77025313Y-98854990D01*
X77025313Y-98854990D02*
X76977694Y-98816895D01*
X76977694Y-98816895D02*
X76977694Y-98893085D01*
X77358646Y-99083561D02*
X77596741Y-99616895D01*
X77596741Y-99616895D02*
X77834836Y-99083561D01*
X78596741Y-99578800D02*
X78501503Y-99616895D01*
X78501503Y-99616895D02*
X78311027Y-99616895D01*
X78311027Y-99616895D02*
X78215789Y-99578800D01*
X78215789Y-99578800D02*
X78168170Y-99502609D01*
X78168170Y-99502609D02*
X78168170Y-99197847D01*
X78168170Y-99197847D02*
X78215789Y-99121657D01*
X78215789Y-99121657D02*
X78311027Y-99083561D01*
X78311027Y-99083561D02*
X78501503Y-99083561D01*
X78501503Y-99083561D02*
X78596741Y-99121657D01*
X78596741Y-99121657D02*
X78644360Y-99197847D01*
X78644360Y-99197847D02*
X78644360Y-99274038D01*
X78644360Y-99274038D02*
X78168170Y-99350228D01*
X79834837Y-99616895D02*
X79834837Y-98816895D01*
X79834837Y-99121657D02*
X79930075Y-99083561D01*
X79930075Y-99083561D02*
X80120551Y-99083561D01*
X80120551Y-99083561D02*
X80215789Y-99121657D01*
X80215789Y-99121657D02*
X80263408Y-99159752D01*
X80263408Y-99159752D02*
X80311027Y-99235942D01*
X80311027Y-99235942D02*
X80311027Y-99464514D01*
X80311027Y-99464514D02*
X80263408Y-99540704D01*
X80263408Y-99540704D02*
X80215789Y-99578800D01*
X80215789Y-99578800D02*
X80120551Y-99616895D01*
X80120551Y-99616895D02*
X79930075Y-99616895D01*
X79930075Y-99616895D02*
X79834837Y-99578800D01*
X80644361Y-99083561D02*
X80882456Y-99616895D01*
X81120551Y-99083561D02*
X80882456Y-99616895D01*
X80882456Y-99616895D02*
X80787218Y-99807371D01*
X80787218Y-99807371D02*
X80739599Y-99845466D01*
X80739599Y-99845466D02*
X80644361Y-99883561D01*
X82120552Y-99083561D02*
X82501504Y-99083561D01*
X82263409Y-98816895D02*
X82263409Y-99502609D01*
X82263409Y-99502609D02*
X82311028Y-99578800D01*
X82311028Y-99578800D02*
X82406266Y-99616895D01*
X82406266Y-99616895D02*
X82501504Y-99616895D01*
X82834838Y-99616895D02*
X82834838Y-98816895D01*
X83263409Y-99616895D02*
X83263409Y-99197847D01*
X83263409Y-99197847D02*
X83215790Y-99121657D01*
X83215790Y-99121657D02*
X83120552Y-99083561D01*
X83120552Y-99083561D02*
X82977695Y-99083561D01*
X82977695Y-99083561D02*
X82882457Y-99121657D01*
X82882457Y-99121657D02*
X82834838Y-99159752D01*
X84120552Y-99578800D02*
X84025314Y-99616895D01*
X84025314Y-99616895D02*
X83834838Y-99616895D01*
X83834838Y-99616895D02*
X83739600Y-99578800D01*
X83739600Y-99578800D02*
X83691981Y-99502609D01*
X83691981Y-99502609D02*
X83691981Y-99197847D01*
X83691981Y-99197847D02*
X83739600Y-99121657D01*
X83739600Y-99121657D02*
X83834838Y-99083561D01*
X83834838Y-99083561D02*
X84025314Y-99083561D01*
X84025314Y-99083561D02*
X84120552Y-99121657D01*
X84120552Y-99121657D02*
X84168171Y-99197847D01*
X84168171Y-99197847D02*
X84168171Y-99274038D01*
X84168171Y-99274038D02*
X83691981Y-99350228D01*
X85501505Y-99616895D02*
X85406267Y-99578800D01*
X85406267Y-99578800D02*
X85358648Y-99540704D01*
X85358648Y-99540704D02*
X85311029Y-99464514D01*
X85311029Y-99464514D02*
X85311029Y-99235942D01*
X85311029Y-99235942D02*
X85358648Y-99159752D01*
X85358648Y-99159752D02*
X85406267Y-99121657D01*
X85406267Y-99121657D02*
X85501505Y-99083561D01*
X85501505Y-99083561D02*
X85644362Y-99083561D01*
X85644362Y-99083561D02*
X85739600Y-99121657D01*
X85739600Y-99121657D02*
X85787219Y-99159752D01*
X85787219Y-99159752D02*
X85834838Y-99235942D01*
X85834838Y-99235942D02*
X85834838Y-99464514D01*
X85834838Y-99464514D02*
X85787219Y-99540704D01*
X85787219Y-99540704D02*
X85739600Y-99578800D01*
X85739600Y-99578800D02*
X85644362Y-99616895D01*
X85644362Y-99616895D02*
X85501505Y-99616895D01*
X86263410Y-99616895D02*
X86263410Y-99083561D01*
X86263410Y-99235942D02*
X86311029Y-99159752D01*
X86311029Y-99159752D02*
X86358648Y-99121657D01*
X86358648Y-99121657D02*
X86453886Y-99083561D01*
X86453886Y-99083561D02*
X86549124Y-99083561D01*
X86882458Y-99616895D02*
X86882458Y-98816895D01*
X86882458Y-99121657D02*
X86977696Y-99083561D01*
X86977696Y-99083561D02*
X87168172Y-99083561D01*
X87168172Y-99083561D02*
X87263410Y-99121657D01*
X87263410Y-99121657D02*
X87311029Y-99159752D01*
X87311029Y-99159752D02*
X87358648Y-99235942D01*
X87358648Y-99235942D02*
X87358648Y-99464514D01*
X87358648Y-99464514D02*
X87311029Y-99540704D01*
X87311029Y-99540704D02*
X87263410Y-99578800D01*
X87263410Y-99578800D02*
X87168172Y-99616895D01*
X87168172Y-99616895D02*
X86977696Y-99616895D01*
X86977696Y-99616895D02*
X86882458Y-99578800D01*
X87739601Y-99578800D02*
X87834839Y-99616895D01*
X87834839Y-99616895D02*
X88025315Y-99616895D01*
X88025315Y-99616895D02*
X88120553Y-99578800D01*
X88120553Y-99578800D02*
X88168172Y-99502609D01*
X88168172Y-99502609D02*
X88168172Y-99464514D01*
X88168172Y-99464514D02*
X88120553Y-99388323D01*
X88120553Y-99388323D02*
X88025315Y-99350228D01*
X88025315Y-99350228D02*
X87882458Y-99350228D01*
X87882458Y-99350228D02*
X87787220Y-99312133D01*
X87787220Y-99312133D02*
X87739601Y-99235942D01*
X87739601Y-99235942D02*
X87739601Y-99197847D01*
X87739601Y-99197847D02*
X87787220Y-99121657D01*
X87787220Y-99121657D02*
X87882458Y-99083561D01*
X87882458Y-99083561D02*
X88025315Y-99083561D01*
X88025315Y-99083561D02*
X88120553Y-99121657D01*
M02*
