G04 #@! TF.GenerationSoftware,KiCad,Pcbnew,8.0.5*
G04 #@! TF.CreationDate,2024-09-09T16:16:21+02:00*
G04 #@! TF.ProjectId,StandOrbs,5374616e-644f-4726-9273-2e6b69636164,rev?*
G04 #@! TF.SameCoordinates,Original*
G04 #@! TF.FileFunction,Profile,NP*
%FSLAX46Y46*%
G04 Gerber Fmt 4.6, Leading zero omitted, Abs format (unit mm)*
G04 Created by KiCad (PCBNEW 8.0.5) date 2024-09-09 16:16:21*
%MOMM*%
%LPD*%
G01*
G04 APERTURE LIST*
G04 #@! TA.AperFunction,Profile*
%ADD10C,0.050000*%
G04 #@! TD*
G04 APERTURE END LIST*
D10*
X93175000Y-83280000D02*
X88875000Y-100440000D01*
X101030000Y-83270000D02*
X106805000Y-83280000D01*
X83120000Y-76895000D02*
X74875000Y-100440000D01*
X98970000Y-80440000D02*
X98970000Y-83270000D01*
X101030000Y-80440000D02*
X101030000Y-83270000D01*
X85490000Y-79040000D02*
X114490000Y-79040000D01*
X98970000Y-83270000D02*
X93175000Y-83280000D01*
X116860000Y-76895000D02*
X83120000Y-76895000D01*
X101030000Y-83270000D02*
X101030000Y-80440000D01*
X116860000Y-76895000D02*
X125125000Y-100440000D01*
X125125000Y-100440000D02*
X111125000Y-100440000D01*
X111125000Y-100440000D02*
X125125000Y-100440000D01*
X114490000Y-79040000D02*
X114490000Y-80440000D01*
X83120000Y-76895000D02*
X116860000Y-76895000D01*
X74875000Y-100440000D02*
X83120000Y-76895000D01*
X88875000Y-100440000D02*
X93175000Y-83280000D01*
X85490000Y-79040000D02*
X85490000Y-80440000D01*
X98970000Y-80440000D02*
X98970000Y-83270000D01*
X74875000Y-100440000D02*
X83120000Y-76895000D01*
X93175000Y-83280000D02*
X98970000Y-83270000D01*
X85490000Y-80440000D02*
X98970000Y-80440000D01*
X106805000Y-83280000D02*
X101030000Y-83270000D01*
X116860000Y-76895000D02*
X125125000Y-100440000D01*
X111125000Y-100440000D02*
X106805000Y-83280000D01*
X106805000Y-83280000D02*
X111125000Y-100440000D01*
X101030000Y-80440000D02*
X114490000Y-80440000D01*
X74875000Y-100440000D02*
X88875000Y-100440000D01*
X88875000Y-100440000D02*
X74875000Y-100440000D01*
M02*
