M48
; DRILL file {KiCad 8.0.5} date 2024-09-09T18:49:08+0200
; FORMAT={-:-/ absolute / metric / decimal}
; #@! TF.CreationDate,2024-09-09T18:49:08+02:00
; #@! TF.GenerationSoftware,Kicad,Pcbnew,8.0.5
; #@! TF.FileFunction,Plated,1,2,PTH
FMAT,2
METRIC
; #@! TA.AperFunction,Plated,PTH,ViaDrill
T1C0.300
; #@! TA.AperFunction,Plated,PTH,ComponentDrill
T2C1.000
; #@! TA.AperFunction,Plated,PTH,ComponentDrill
T3C1.040
; #@! TA.AperFunction,Plated,PTH,ComponentDrill
T4C1.100
%
G90
G05
T1
X58.01Y-71.27
X58.05Y-67.48
X60.34Y-65.96
X63.2Y-65.27
X65.8Y-81.33
X68.32Y-82.17
X70.96Y-70.27
X73.53Y-79.03
X80.68Y-68.29
X84.75Y-77.69
X89.34Y-70.98
X89.72Y-77.69
X91.71Y-65.35
X94.19Y-67.42
X94.19Y-70.19
X96.61Y-70.98
X97.21Y-66.76
X97.81Y-71.58
X99.29Y-66.0
X102.55Y-65.27
X103.12Y-68.49
X104.77Y-85.17
X105.55Y-68.46
X106.41Y-83.09
X106.5Y-77.03
X107.51Y-66.47
X107.77Y-87.13
X112.16Y-81.25
X122.31Y-77.6
X128.5Y-77.64
X128.62Y-71.02
X132.58Y-82.17
X133.06Y-70.07
X133.1Y-68.04
X135.59Y-71.36
X138.76Y-61.89
X148.96Y-80.16
X158.84Y-77.37
X164.46Y-86.78
X164.69Y-83.0
X165.01Y-71.33
X165.5Y-63.79
X166.48Y-67.58
X166.59Y-77.14
X167.23Y-85.77
X167.43Y-79.69
X172.57Y-71.27
X177.1Y-61.89
X181.66Y-64.54
X198.73Y-77.45
X203.24Y-71.28
X207.13Y-77.66
X209.56Y-71.37
X210.45Y-86.26
X214.49Y-81.71
T2
X47.497Y-74.25
X50.037Y-74.25
X52.578Y-74.25
X55.117Y-74.25
X57.657Y-74.25
X60.197Y-74.25
X62.737Y-74.25
X86.489Y-74.25
X89.029Y-74.25
X91.569Y-74.25
X94.109Y-74.25
X96.649Y-74.25
X99.189Y-74.25
X101.729Y-74.25
X109.62Y-62.86
X112.16Y-62.86
X114.7Y-62.86
X117.24Y-62.86
X119.78Y-62.86
X122.32Y-62.86
X125.48Y-74.25
X128.02Y-74.25
X130.56Y-74.25
X133.1Y-74.25
X135.64Y-74.25
X138.18Y-74.25
X140.72Y-74.25
X148.995Y-71.0
X151.535Y-71.0
X154.075Y-71.0
X156.615Y-71.0
X164.471Y-74.25
X167.011Y-74.25
X169.551Y-74.25
X172.091Y-74.25
X174.631Y-74.25
X177.171Y-74.25
X179.711Y-74.25
X203.462Y-74.25
X206.002Y-74.25
X208.542Y-74.25
X211.082Y-74.25
X213.623Y-74.25
X216.162Y-74.25
X218.702Y-74.25
T3
X53.21Y-63.037
X53.21Y-86.037
X55.75Y-63.037
X55.75Y-86.037
X58.29Y-63.037
X58.29Y-86.037
X60.83Y-63.037
X60.83Y-86.037
X63.37Y-63.037
X63.37Y-86.037
X65.91Y-63.037
X65.91Y-86.037
X68.45Y-63.037
X68.45Y-86.037
X70.99Y-63.037
X70.99Y-86.037
X73.53Y-63.037
X73.53Y-86.037
X76.07Y-63.037
X76.07Y-86.037
X78.61Y-63.037
X78.61Y-86.037
X81.15Y-63.037
X81.15Y-86.037
X83.69Y-63.037
X83.69Y-86.037
X86.23Y-63.037
X86.23Y-86.037
X88.77Y-63.037
X88.77Y-86.037
X91.31Y-63.037
X91.31Y-86.037
X93.85Y-63.037
X93.85Y-86.037
X96.39Y-63.037
X96.39Y-86.037
X98.93Y-63.037
X98.93Y-86.037
T4
X171.25Y-81.75
X171.25Y-86.25
X177.75Y-81.75
X177.75Y-86.25
X185.375Y-81.875
X185.375Y-86.375
X191.875Y-81.875
X191.875Y-86.375
X199.5Y-82.0
X199.5Y-86.5
X206.0Y-82.0
X206.0Y-86.5
M30
