%TF.GenerationSoftware,KiCad,Pcbnew,8.0.5*%
%TF.CreationDate,2024-09-09T18:49:11+02:00*%
%TF.ProjectId,info_orbs,696e666f-5f6f-4726-9273-2e6b69636164,rev?*%
%TF.SameCoordinates,Original*%
%TF.FileFunction,Copper,L1,Top*%
%TF.FilePolarity,Positive*%
%FSLAX46Y46*%
G04 Gerber Fmt 4.6, Leading zero omitted, Abs format (unit mm)*
G04 Created by KiCad (PCBNEW 8.0.5) date 2024-09-09 18:49:11*
%MOMM*%
%LPD*%
G01*
G04 APERTURE LIST*
%TA.AperFunction,ComponentPad*%
%ADD10R,1.700000X1.700000*%
%TD*%
%TA.AperFunction,ComponentPad*%
%ADD11O,1.700000X1.700000*%
%TD*%
%TA.AperFunction,ComponentPad*%
%ADD12C,2.000000*%
%TD*%
%TA.AperFunction,ComponentPad*%
%ADD13R,1.560000X1.560000*%
%TD*%
%TA.AperFunction,ComponentPad*%
%ADD14C,1.560000*%
%TD*%
%TA.AperFunction,ViaPad*%
%ADD15C,0.600000*%
%TD*%
%TA.AperFunction,Conductor*%
%ADD16C,0.200000*%
%TD*%
G04 APERTURE END LIST*
D10*
%TO.P,D5,1,RST*%
%TO.N,Net-(V1-IO18)*%
X203462500Y-74250000D03*
D11*
%TO.P,D5,2,CS*%
%TO.N,Net-(V1-IO21)*%
X206002500Y-74250000D03*
%TO.P,D5,3,DC*%
%TO.N,Net-(V1-IO19)*%
X208542500Y-74250000D03*
%TO.P,D5,4,SDA*%
%TO.N,Net-(V1-IO17)*%
X211082500Y-74250000D03*
%TO.P,D5,5,SCL*%
%TO.N,Net-(V1-IO23)*%
X213622500Y-74250000D03*
%TO.P,D5,6,GND*%
%TO.N,Net-(V1-GND2)*%
X216162500Y-74250000D03*
%TO.P,D5,7,VCC*%
%TO.N,Net-(U1-vcc)*%
X218702500Y-74250000D03*
%TD*%
D10*
%TO.P,U1,1,vcc*%
%TO.N,Net-(U1-vcc)*%
X122320000Y-62860000D03*
D11*
%TO.P,U1,2,3.3v*%
%TO.N,Net-(U1-3.3v)*%
X119780000Y-62860000D03*
%TO.P,U1,3,GND*%
%TO.N,Net-(U1-GND)*%
X117240000Y-62860000D03*
%TO.P,U1,4,gipo34*%
%TO.N,Net-(U1-gipo34)*%
X114700000Y-62860000D03*
%TO.P,U1,5,gpio35*%
%TO.N,Net-(U1-gpio35)*%
X112160000Y-62860000D03*
%TO.P,U1,6,gpio12*%
%TO.N,Net-(U1-gpio12)*%
X109620000Y-62860000D03*
%TD*%
D10*
%TO.P,D3,1,RST*%
%TO.N,Net-(V1-IO18)*%
X125480000Y-74250000D03*
D11*
%TO.P,D3,2,CS*%
%TO.N,Net-(V1-IO32)*%
X128020000Y-74250000D03*
%TO.P,D3,3,DC*%
%TO.N,Net-(V1-IO19)*%
X130560000Y-74250000D03*
%TO.P,D3,4,SDA*%
%TO.N,Net-(V1-IO17)*%
X133100000Y-74250000D03*
%TO.P,D3,5,SCL*%
%TO.N,Net-(V1-IO23)*%
X135640000Y-74250000D03*
%TO.P,D3,6,GND*%
%TO.N,Net-(V1-GND2)*%
X138180000Y-74250000D03*
%TO.P,D3,7,VCC*%
%TO.N,Net-(U1-vcc)*%
X140720000Y-74250000D03*
%TD*%
D12*
%TO.P,RHT,1,1*%
%TO.N,Net-(V1-IO14)*%
X199500000Y-82000000D03*
X206000000Y-82000000D03*
%TO.P,RHT,2,2*%
%TO.N,Net-(U1-vcc)*%
X199500000Y-86500000D03*
X206000000Y-86500000D03*
%TD*%
D10*
%TO.P,D4,1,RST*%
%TO.N,Net-(V1-IO18)*%
X164471250Y-74250000D03*
D11*
%TO.P,D4,2,CS*%
%TO.N,Net-(V1-IO25)*%
X167011250Y-74250000D03*
%TO.P,D4,3,DC*%
%TO.N,Net-(V1-IO19)*%
X169551250Y-74250000D03*
%TO.P,D4,4,SDA*%
%TO.N,Net-(V1-IO17)*%
X172091250Y-74250000D03*
%TO.P,D4,5,SCL*%
%TO.N,Net-(V1-IO23)*%
X174631250Y-74250000D03*
%TO.P,D4,6,GND*%
%TO.N,Net-(V1-GND2)*%
X177171250Y-74250000D03*
%TO.P,D4,7,VCC*%
%TO.N,Net-(U1-vcc)*%
X179711250Y-74250000D03*
%TD*%
D12*
%TO.P,OK,1,1*%
%TO.N,Net-(V1-IO27)*%
X185375000Y-81875000D03*
X191875000Y-81875000D03*
%TO.P,OK,2,2*%
%TO.N,Net-(U1-vcc)*%
X185375000Y-86375000D03*
X191875000Y-86375000D03*
%TD*%
D10*
%TO.P,D2,1,RST*%
%TO.N,Net-(V1-IO18)*%
X86488750Y-74250000D03*
D11*
%TO.P,D2,2,CS*%
%TO.N,Net-(V1-IO33)*%
X89028750Y-74250000D03*
%TO.P,D2,3,DC*%
%TO.N,Net-(V1-IO19)*%
X91568750Y-74250000D03*
%TO.P,D2,4,SDA*%
%TO.N,Net-(V1-IO17)*%
X94108750Y-74250000D03*
%TO.P,D2,5,SCL*%
%TO.N,Net-(V1-IO23)*%
X96648750Y-74250000D03*
%TO.P,D2,6,GND*%
%TO.N,Net-(V1-GND2)*%
X99188750Y-74250000D03*
%TO.P,D2,7,VCC*%
%TO.N,Net-(U1-vcc)*%
X101728750Y-74250000D03*
%TD*%
D10*
%TO.P,D1,1,RST*%
%TO.N,Net-(V1-IO18)*%
X47497500Y-74250000D03*
D11*
%TO.P,D1,2,CS*%
%TO.N,Net-(V1-IO13)*%
X50037500Y-74250000D03*
%TO.P,D1,3,DC*%
%TO.N,Net-(V1-IO19)*%
X52577500Y-74250000D03*
%TO.P,D1,4,SDA*%
%TO.N,Net-(V1-IO17)*%
X55117500Y-74250000D03*
%TO.P,D1,5,SCL*%
%TO.N,Net-(V1-IO23)*%
X57657500Y-74250000D03*
%TO.P,D1,6,GND*%
%TO.N,Net-(V1-GND2)*%
X60197500Y-74250000D03*
%TO.P,D1,7,VCC*%
%TO.N,Net-(U1-vcc)*%
X62737500Y-74250000D03*
%TD*%
D12*
%TO.P,LFT,1,1*%
%TO.N,Net-(V1-IO26)*%
X171250000Y-81750000D03*
X177750000Y-81750000D03*
%TO.P,LFT,2,2*%
%TO.N,Net-(U1-vcc)*%
X171250000Y-86250000D03*
X177750000Y-86250000D03*
%TD*%
D10*
%TO.P,USB C,1,VCC*%
%TO.N,Net-(U1-vcc)*%
X156615000Y-71000000D03*
D11*
%TO.P,USB C,2,d+*%
%TO.N,unconnected-(USBPower1-d+-Pad2)*%
X154075000Y-71000000D03*
%TO.P,USB C,3,D-*%
%TO.N,unconnected-(USBPower1-D--Pad3)*%
X151535000Y-71000000D03*
%TO.P,USB C,4,GND*%
%TO.N,Net-(USBPower1-GND)*%
X148995000Y-71000000D03*
%TD*%
D13*
%TO.P,V1,J2-1,3V3*%
%TO.N,Net-(U1-3.3v)*%
X53210000Y-63037500D03*
D14*
%TO.P,V1,J2-2,EN*%
%TO.N,unconnected-(V1-EN-PadJ2-2)*%
X55750000Y-63037500D03*
%TO.P,V1,J2-3,SENSOR_VP*%
%TO.N,unconnected-(V1-SENSOR_VP-PadJ2-3)*%
X58290000Y-63037500D03*
%TO.P,V1,J2-4,SENSOR_VN*%
%TO.N,unconnected-(V1-SENSOR_VN-PadJ2-4)*%
X60830000Y-63037500D03*
%TO.P,V1,J2-5,IO34*%
%TO.N,Net-(U1-gipo34)*%
X63370000Y-63037500D03*
%TO.P,V1,J2-6,IO35*%
%TO.N,Net-(U1-gpio35)*%
X65910000Y-63037500D03*
%TO.P,V1,J2-7,IO32*%
%TO.N,Net-(V1-IO32)*%
X68450000Y-63037500D03*
%TO.P,V1,J2-8,IO33*%
%TO.N,Net-(V1-IO33)*%
X70990000Y-63037500D03*
%TO.P,V1,J2-9,IO25*%
%TO.N,Net-(V1-IO25)*%
X73530000Y-63037500D03*
%TO.P,V1,J2-10,IO26*%
%TO.N,Net-(V1-IO26)*%
X76070000Y-63037500D03*
%TO.P,V1,J2-11,IO27*%
%TO.N,Net-(V1-IO27)*%
X78610000Y-63037500D03*
%TO.P,V1,J2-12,IO14*%
%TO.N,Net-(V1-IO14)*%
X81150000Y-63037500D03*
%TO.P,V1,J2-13,IO12*%
%TO.N,Net-(U1-gpio12)*%
X83690000Y-63037500D03*
%TO.P,V1,J2-14,GND1*%
%TO.N,Net-(U1-GND)*%
X86230000Y-63037500D03*
%TO.P,V1,J2-15,IO13*%
%TO.N,Net-(V1-IO13)*%
X88770000Y-63037500D03*
%TO.P,V1,J2-16,SD2*%
%TO.N,unconnected-(V1-SD2-PadJ2-16)*%
X91310000Y-63037500D03*
%TO.P,V1,J2-17,SD3*%
%TO.N,unconnected-(V1-SD3-PadJ2-17)*%
X93850000Y-63037500D03*
%TO.P,V1,J2-18,CMD*%
%TO.N,unconnected-(V1-CMD-PadJ2-18)*%
X96390000Y-63037500D03*
%TO.P,V1,J2-19,EXT_5V*%
%TO.N,Net-(U1-vcc)*%
X98930000Y-63037500D03*
%TO.P,V1,J3-1,GND3*%
%TO.N,Net-(USBPower1-GND)*%
X53210000Y-86037500D03*
%TO.P,V1,J3-2,IO23*%
%TO.N,Net-(V1-IO23)*%
X55750000Y-86037500D03*
%TO.P,V1,J3-3,IO22*%
%TO.N,unconnected-(V1-IO22-PadJ3-3)*%
X58290000Y-86037500D03*
%TO.P,V1,J3-4,TXD0*%
%TO.N,unconnected-(V1-TXD0-PadJ3-4)*%
X60830000Y-86037500D03*
%TO.P,V1,J3-5,RXD0*%
%TO.N,unconnected-(V1-RXD0-PadJ3-5)*%
X63370000Y-86037500D03*
%TO.P,V1,J3-6,IO21*%
%TO.N,Net-(V1-IO21)*%
X65910000Y-86037500D03*
%TO.P,V1,J3-7,GND2*%
%TO.N,Net-(V1-GND2)*%
X68450000Y-86037500D03*
%TO.P,V1,J3-8,IO19*%
%TO.N,Net-(V1-IO19)*%
X70990000Y-86037500D03*
%TO.P,V1,J3-9,IO18*%
%TO.N,Net-(V1-IO18)*%
X73530000Y-86037500D03*
%TO.P,V1,J3-10,IO5*%
%TO.N,unconnected-(V1-IO5-PadJ3-10)*%
X76070000Y-86037500D03*
%TO.P,V1,J3-11,IO17*%
%TO.N,Net-(V1-IO17)*%
X78610000Y-86037500D03*
%TO.P,V1,J3-12,IO16*%
%TO.N,unconnected-(V1-IO16-PadJ3-12)*%
X81150000Y-86037500D03*
%TO.P,V1,J3-13,IO4*%
%TO.N,unconnected-(V1-IO4-PadJ3-13)*%
X83690000Y-86037500D03*
%TO.P,V1,J3-14,IO0*%
%TO.N,unconnected-(V1-IO0-PadJ3-14)*%
X86230000Y-86037500D03*
%TO.P,V1,J3-15,IO2*%
%TO.N,unconnected-(V1-IO2-PadJ3-15)*%
X88770000Y-86037500D03*
%TO.P,V1,J3-16,IO15*%
%TO.N,unconnected-(V1-IO15-PadJ3-16)*%
X91310000Y-86037500D03*
%TO.P,V1,J3-17,SD1*%
%TO.N,unconnected-(V1-SD1-PadJ3-17)*%
X93850000Y-86037500D03*
%TO.P,V1,J3-18,SD0*%
%TO.N,unconnected-(V1-SD0-PadJ3-18)*%
X96390000Y-86037500D03*
%TO.P,V1,J3-19,CLK*%
%TO.N,unconnected-(V1-CLK-PadJ3-19)*%
X98930000Y-86037500D03*
%TD*%
D15*
%TO.N,Net-(U1-vcc)*%
X158840000Y-77370000D03*
X198730000Y-77450000D03*
X210450000Y-86260000D03*
X89720000Y-77690000D03*
X84750000Y-77690000D03*
X128500000Y-77640000D03*
X122310000Y-77600000D03*
X207130000Y-77660000D03*
X166590000Y-77140000D03*
%TO.N,Net-(V1-GND2)*%
X99290000Y-66000000D03*
X177100000Y-61890000D03*
X138760000Y-61890000D03*
X60340000Y-65960000D03*
%TO.N,Net-(V1-IO18)*%
X73530000Y-79030000D03*
%TO.N,Net-(V1-IO23)*%
X209560000Y-71370000D03*
X128620000Y-71020000D03*
X165010000Y-71330000D03*
X203240000Y-71280000D03*
X96610000Y-70980000D03*
X172570000Y-71270000D03*
X135590000Y-71360000D03*
X89340000Y-70980000D03*
%TO.N,Net-(V1-IO17)*%
X58050000Y-67480000D03*
X58010000Y-71270000D03*
X133100000Y-68040000D03*
X165500000Y-63790000D03*
X94190000Y-70190000D03*
X133060000Y-70070000D03*
X166480000Y-67580000D03*
X94190000Y-67420000D03*
%TO.N,Net-(V1-IO19)*%
X70960000Y-70270000D03*
%TO.N,Net-(V1-IO32)*%
X132580000Y-82170000D03*
X68320000Y-82170000D03*
%TO.N,Net-(V1-IO25)*%
X97810000Y-71580000D03*
X167430000Y-79690000D03*
X106500000Y-77030000D03*
X106410000Y-83090000D03*
%TO.N,Net-(V1-IO21)*%
X214490000Y-81710000D03*
%TO.N,Net-(V1-IO27)*%
X164460000Y-86780000D03*
X164690000Y-83000000D03*
X97210000Y-66760000D03*
X107510000Y-66470000D03*
X107770000Y-87130000D03*
%TO.N,Net-(V1-IO26)*%
X103120000Y-68490000D03*
X80680000Y-68290000D03*
X167230000Y-85770000D03*
X104770000Y-85170000D03*
%TO.N,Net-(V1-IO14)*%
X181660000Y-64540000D03*
X102550000Y-65270000D03*
X105550000Y-68460000D03*
X91710000Y-65350000D03*
%TO.N,Net-(USBPower1-GND)*%
X148960000Y-80160000D03*
%TO.N,Net-(U1-gpio12)*%
X63200000Y-65270000D03*
%TO.N,Net-(U1-gpio35)*%
X112160000Y-81250000D03*
X65800000Y-81330000D03*
%TD*%
D16*
%TO.N,Net-(U1-vcc)*%
X207130000Y-77660000D02*
X215292500Y-77660000D01*
X98288750Y-77690000D02*
X101728750Y-74250000D01*
X62737500Y-74250000D02*
X62737500Y-77227500D01*
X205750000Y-86250000D02*
X206000000Y-86500000D01*
X62737500Y-77227500D02*
X63070000Y-77560000D01*
X176821250Y-77140000D02*
X179711250Y-74250000D01*
X89720000Y-77690000D02*
X98288750Y-77690000D01*
X206000000Y-86500000D02*
X210210000Y-86500000D01*
X171250000Y-86250000D02*
X205750000Y-86250000D01*
X128500000Y-77640000D02*
X137330000Y-77640000D01*
X84620000Y-77560000D02*
X84750000Y-77690000D01*
X137600000Y-77370000D02*
X158840000Y-77370000D01*
X98288750Y-77690000D02*
X122220000Y-77690000D01*
X177131250Y-77450000D02*
X198730000Y-77450000D01*
X176821250Y-77140000D02*
X177131250Y-77450000D01*
X137330000Y-77640000D02*
X137600000Y-77370000D01*
X215292500Y-77660000D02*
X218702500Y-74250000D01*
X122220000Y-77690000D02*
X122310000Y-77600000D01*
X166590000Y-77140000D02*
X176821250Y-77140000D01*
X63070000Y-77560000D02*
X84620000Y-77560000D01*
X210210000Y-86500000D02*
X210450000Y-86260000D01*
X137330000Y-77640000D02*
X140720000Y-74250000D01*
%TO.N,Net-(V1-GND2)*%
X60380000Y-66000000D02*
X60340000Y-65960000D01*
X99420000Y-65870000D02*
X133970000Y-65870000D01*
X138850000Y-61800000D02*
X138760000Y-61890000D01*
X216162500Y-74250000D02*
X203802500Y-61890000D01*
X99290000Y-66000000D02*
X99420000Y-65870000D01*
X99290000Y-66000000D02*
X60380000Y-66000000D01*
X203802500Y-61890000D02*
X177100000Y-61890000D01*
X177100000Y-61890000D02*
X177010000Y-61800000D01*
X177010000Y-61800000D02*
X138850000Y-61800000D01*
X133970000Y-65870000D02*
X137950000Y-61890000D01*
X137950000Y-61890000D02*
X138760000Y-61890000D01*
%TO.N,Net-(V1-IO18)*%
X164410000Y-79030000D02*
X203520000Y-79030000D01*
X73530000Y-79030000D02*
X86480000Y-79030000D01*
X86488750Y-79021250D02*
X86480000Y-79030000D01*
X125290000Y-79030000D02*
X164410000Y-79030000D01*
X203520000Y-79030000D02*
X203462500Y-78972500D01*
X125480000Y-74250000D02*
X125480000Y-78840000D01*
X86488750Y-74250000D02*
X86488750Y-79021250D01*
X52277500Y-79030000D02*
X73530000Y-79030000D01*
X164471250Y-78968750D02*
X164410000Y-79030000D01*
X47497500Y-74250000D02*
X52277500Y-79030000D01*
X86480000Y-79030000D02*
X125290000Y-79030000D01*
X164471250Y-74250000D02*
X164471250Y-78968750D01*
X125480000Y-78840000D02*
X125290000Y-79030000D01*
X203462500Y-78972500D02*
X203462500Y-74250000D01*
%TO.N,Net-(V1-IO23)*%
X172570000Y-72188750D02*
X174631250Y-74250000D01*
X159680000Y-74550000D02*
X162900000Y-71330000D01*
X210742500Y-71370000D02*
X213622500Y-74250000D01*
X57657500Y-74250000D02*
X60917500Y-70990000D01*
X146510000Y-74640000D02*
X146600000Y-74550000D01*
X96648750Y-71018750D02*
X96648750Y-74250000D01*
X209560000Y-71370000D02*
X210742500Y-71370000D01*
X135590000Y-71360000D02*
X143230000Y-71360000D01*
X172570000Y-71270000D02*
X172570000Y-72188750D01*
X89330000Y-70990000D02*
X89340000Y-70980000D01*
X146600000Y-74550000D02*
X159680000Y-74550000D01*
X128580000Y-70980000D02*
X128620000Y-71020000D01*
X172570000Y-71270000D02*
X172580000Y-71280000D01*
X164980000Y-71360000D02*
X165010000Y-71330000D01*
X143230000Y-71360000D02*
X146510000Y-74640000D01*
X135640000Y-71410000D02*
X135640000Y-74250000D01*
X135590000Y-71360000D02*
X135640000Y-71410000D01*
X60917500Y-70990000D02*
X89330000Y-70990000D01*
X162900000Y-71330000D02*
X165010000Y-71330000D01*
X96610000Y-70980000D02*
X96648750Y-71018750D01*
X96610000Y-70980000D02*
X128580000Y-70980000D01*
X172580000Y-71280000D02*
X203240000Y-71280000D01*
%TO.N,Net-(V1-IO17)*%
X133100000Y-68040000D02*
X137350000Y-63790000D01*
X58050000Y-67480000D02*
X94130000Y-67480000D01*
X94190000Y-70190000D02*
X94108750Y-70271250D01*
X166480000Y-67580000D02*
X166480000Y-68638750D01*
X137350000Y-63790000D02*
X165500000Y-63790000D01*
X165470000Y-63780000D02*
X165490000Y-63780000D01*
X58010000Y-71357500D02*
X58010000Y-71270000D01*
X132480000Y-67420000D02*
X133100000Y-68040000D01*
X133060000Y-70070000D02*
X133100000Y-70110000D01*
X94108750Y-70271250D02*
X94108750Y-74250000D01*
X94190000Y-67420000D02*
X132480000Y-67420000D01*
X211082500Y-74250000D02*
X200612500Y-63780000D01*
X55117500Y-74250000D02*
X58010000Y-71357500D01*
X94130000Y-67480000D02*
X94190000Y-67420000D01*
X165490000Y-63780000D02*
X165500000Y-63790000D01*
X133100000Y-70110000D02*
X133100000Y-74250000D01*
X166480000Y-68638750D02*
X172091250Y-74250000D01*
X200612500Y-63780000D02*
X165470000Y-63780000D01*
%TO.N,Net-(V1-IO13)*%
X50037500Y-63412500D02*
X52850000Y-60600000D01*
X52850000Y-60600000D02*
X88350000Y-60600000D01*
X88770000Y-61020000D02*
X88770000Y-63037500D01*
X88350000Y-60600000D02*
X88770000Y-61020000D01*
X50037500Y-74250000D02*
X50037500Y-63412500D01*
%TO.N,Net-(V1-IO19)*%
X162810000Y-65640000D02*
X199932500Y-65640000D01*
X91568750Y-74250000D02*
X91568750Y-69428750D01*
X130500000Y-69360000D02*
X130580000Y-69360000D01*
X139760000Y-65640000D02*
X136040000Y-69360000D01*
X130580000Y-69360000D02*
X130560000Y-69380000D01*
X91500000Y-69360000D02*
X130500000Y-69360000D01*
X91568750Y-69428750D02*
X91500000Y-69360000D01*
X70990000Y-69360000D02*
X91500000Y-69360000D01*
X162660000Y-65490000D02*
X162810000Y-65640000D01*
X162640000Y-65510000D02*
X162640000Y-67338750D01*
X162510000Y-65640000D02*
X139760000Y-65640000D01*
X162640000Y-67338750D02*
X169551250Y-74250000D01*
X162660000Y-65490000D02*
X162640000Y-65510000D01*
X130560000Y-69380000D02*
X130560000Y-74250000D01*
X57467500Y-69360000D02*
X70990000Y-69360000D01*
X162660000Y-65490000D02*
X162510000Y-65640000D01*
X70960000Y-70270000D02*
X70960000Y-69390000D01*
X52577500Y-74250000D02*
X57467500Y-69360000D01*
X70960000Y-69390000D02*
X70990000Y-69360000D01*
X136040000Y-69360000D02*
X130500000Y-69360000D01*
X199932500Y-65640000D02*
X208542500Y-74250000D01*
%TO.N,Net-(V1-IO32)*%
X68320000Y-82170000D02*
X132580000Y-82170000D01*
%TO.N,Net-(V1-IO25)*%
X151620000Y-79690000D02*
X167430000Y-79690000D01*
X106410000Y-83090000D02*
X148220000Y-83090000D01*
X106470000Y-77000000D02*
X106500000Y-77030000D01*
X101970000Y-71580000D02*
X106470000Y-76080000D01*
X97810000Y-71580000D02*
X101970000Y-71580000D01*
X106470000Y-76080000D02*
X106470000Y-77000000D01*
X148220000Y-83090000D02*
X151620000Y-79690000D01*
%TO.N,Net-(V1-IO21)*%
X214800000Y-82020000D02*
X214490000Y-81710000D01*
X214800000Y-84080000D02*
X214800000Y-82020000D01*
X65910000Y-86037500D02*
X67867500Y-84080000D01*
X67867500Y-84080000D02*
X214800000Y-84080000D01*
%TO.N,Net-(V1-IO27)*%
X183790000Y-80290000D02*
X185375000Y-81875000D01*
X167400000Y-80290000D02*
X183790000Y-80290000D01*
X185375000Y-81875000D02*
X191875000Y-81875000D01*
X107220000Y-66760000D02*
X107510000Y-66470000D01*
X164110000Y-87130000D02*
X164460000Y-86780000D01*
X107770000Y-87130000D02*
X164110000Y-87130000D01*
X164690000Y-83000000D02*
X167400000Y-80290000D01*
X97210000Y-66760000D02*
X107220000Y-66760000D01*
%TO.N,Net-(V1-IO26)*%
X106870000Y-85170000D02*
X104770000Y-85170000D01*
X107470000Y-85770000D02*
X107360000Y-85660000D01*
X167230000Y-85770000D02*
X107470000Y-85770000D01*
X103120000Y-68490000D02*
X102920000Y-68290000D01*
X171250000Y-81750000D02*
X177750000Y-81750000D01*
X107360000Y-85660000D02*
X106870000Y-85170000D01*
X102920000Y-68290000D02*
X80680000Y-68290000D01*
%TO.N,Net-(V1-IO14)*%
X137448529Y-64540000D02*
X133348529Y-68640000D01*
X133348529Y-68640000D02*
X105730000Y-68640000D01*
X105730000Y-68640000D02*
X105550000Y-68460000D01*
X102470000Y-65350000D02*
X102550000Y-65270000D01*
X181660000Y-64540000D02*
X137448529Y-64540000D01*
X199500000Y-82000000D02*
X206000000Y-82000000D01*
X91710000Y-65350000D02*
X102470000Y-65350000D01*
%TO.N,Net-(USBPower1-GND)*%
X53210000Y-81480000D02*
X54420000Y-80270000D01*
X53210000Y-86037500D02*
X53210000Y-81480000D01*
X148850000Y-80270000D02*
X148960000Y-80160000D01*
X54420000Y-80270000D02*
X148850000Y-80270000D01*
%TO.N,Net-(U1-gpio12)*%
X81457500Y-65270000D02*
X83690000Y-63037500D01*
X63200000Y-65270000D02*
X81457500Y-65270000D01*
%TO.N,Net-(U1-gpio35)*%
X112160000Y-81250000D02*
X65880000Y-81250000D01*
X65880000Y-81250000D02*
X65800000Y-81330000D01*
%TO.N,Net-(U1-GND)*%
X115430000Y-64670000D02*
X87862500Y-64670000D01*
X117240000Y-62860000D02*
X115430000Y-64670000D01*
X87862500Y-64670000D02*
X86230000Y-63037500D01*
%TD*%
M02*
