%TF.GenerationSoftware,KiCad,Pcbnew,8.0.5*%
%TF.CreationDate,2024-09-09T18:49:11+02:00*%
%TF.ProjectId,info_orbs,696e666f-5f6f-4726-9273-2e6b69636164,rev?*%
%TF.SameCoordinates,Original*%
%TF.FileFunction,Legend,Bot*%
%TF.FilePolarity,Positive*%
%FSLAX46Y46*%
G04 Gerber Fmt 4.6, Leading zero omitted, Abs format (unit mm)*
G04 Created by KiCad (PCBNEW 8.0.5) date 2024-09-09 18:49:11*
%MOMM*%
%LPD*%
G01*
G04 APERTURE LIST*
%ADD10C,0.100000*%
%ADD11C,0.200000*%
%ADD12C,0.150000*%
%ADD13C,0.120000*%
%ADD14C,0.127000*%
G04 APERTURE END LIST*
D10*
X100245000Y-68050000D02*
X108715000Y-68050000D01*
X108715000Y-80372500D01*
X100245000Y-80372500D01*
X100245000Y-68050000D01*
X147640000Y-60230000D02*
X157880000Y-60230000D01*
X157880000Y-70080000D01*
X147640000Y-70080000D01*
X147640000Y-60230000D01*
X109836895Y-64937693D02*
X109836895Y-64366265D01*
X109836895Y-64651979D02*
X109036895Y-64651979D01*
X109036895Y-64651979D02*
X109151180Y-64556741D01*
X109151180Y-64556741D02*
X109227371Y-64461503D01*
X109227371Y-64461503D02*
X109265466Y-64366265D01*
X109113085Y-65318646D02*
X109074990Y-65366265D01*
X109074990Y-65366265D02*
X109036895Y-65461503D01*
X109036895Y-65461503D02*
X109036895Y-65699598D01*
X109036895Y-65699598D02*
X109074990Y-65794836D01*
X109074990Y-65794836D02*
X109113085Y-65842455D01*
X109113085Y-65842455D02*
X109189276Y-65890074D01*
X109189276Y-65890074D02*
X109265466Y-65890074D01*
X109265466Y-65890074D02*
X109379752Y-65842455D01*
X109379752Y-65842455D02*
X109836895Y-65271027D01*
X109836895Y-65271027D02*
X109836895Y-65890074D01*
X52916895Y-76273884D02*
X52116895Y-76273884D01*
X52116895Y-76273884D02*
X52116895Y-76511979D01*
X52116895Y-76511979D02*
X52154990Y-76654836D01*
X52154990Y-76654836D02*
X52231180Y-76750074D01*
X52231180Y-76750074D02*
X52307371Y-76797693D01*
X52307371Y-76797693D02*
X52459752Y-76845312D01*
X52459752Y-76845312D02*
X52574038Y-76845312D01*
X52574038Y-76845312D02*
X52726419Y-76797693D01*
X52726419Y-76797693D02*
X52802609Y-76750074D01*
X52802609Y-76750074D02*
X52878800Y-76654836D01*
X52878800Y-76654836D02*
X52916895Y-76511979D01*
X52916895Y-76511979D02*
X52916895Y-76273884D01*
X52840704Y-77845312D02*
X52878800Y-77797693D01*
X52878800Y-77797693D02*
X52916895Y-77654836D01*
X52916895Y-77654836D02*
X52916895Y-77559598D01*
X52916895Y-77559598D02*
X52878800Y-77416741D01*
X52878800Y-77416741D02*
X52802609Y-77321503D01*
X52802609Y-77321503D02*
X52726419Y-77273884D01*
X52726419Y-77273884D02*
X52574038Y-77226265D01*
X52574038Y-77226265D02*
X52459752Y-77226265D01*
X52459752Y-77226265D02*
X52307371Y-77273884D01*
X52307371Y-77273884D02*
X52231180Y-77321503D01*
X52231180Y-77321503D02*
X52154990Y-77416741D01*
X52154990Y-77416741D02*
X52116895Y-77559598D01*
X52116895Y-77559598D02*
X52116895Y-77654836D01*
X52116895Y-77654836D02*
X52154990Y-77797693D01*
X52154990Y-77797693D02*
X52193085Y-77845312D01*
X155116115Y-63140985D02*
X155116115Y-63788604D01*
X155116115Y-63788604D02*
X155068496Y-63864794D01*
X155068496Y-63864794D02*
X155020877Y-63902890D01*
X155020877Y-63902890D02*
X154925639Y-63940985D01*
X154925639Y-63940985D02*
X154735163Y-63940985D01*
X154735163Y-63940985D02*
X154639925Y-63902890D01*
X154639925Y-63902890D02*
X154592306Y-63864794D01*
X154592306Y-63864794D02*
X154544687Y-63788604D01*
X154544687Y-63788604D02*
X154544687Y-63140985D01*
X154116115Y-63902890D02*
X153973258Y-63940985D01*
X153973258Y-63940985D02*
X153735163Y-63940985D01*
X153735163Y-63940985D02*
X153639925Y-63902890D01*
X153639925Y-63902890D02*
X153592306Y-63864794D01*
X153592306Y-63864794D02*
X153544687Y-63788604D01*
X153544687Y-63788604D02*
X153544687Y-63712413D01*
X153544687Y-63712413D02*
X153592306Y-63636223D01*
X153592306Y-63636223D02*
X153639925Y-63598128D01*
X153639925Y-63598128D02*
X153735163Y-63560032D01*
X153735163Y-63560032D02*
X153925639Y-63521937D01*
X153925639Y-63521937D02*
X154020877Y-63483842D01*
X154020877Y-63483842D02*
X154068496Y-63445747D01*
X154068496Y-63445747D02*
X154116115Y-63369556D01*
X154116115Y-63369556D02*
X154116115Y-63293366D01*
X154116115Y-63293366D02*
X154068496Y-63217175D01*
X154068496Y-63217175D02*
X154020877Y-63179080D01*
X154020877Y-63179080D02*
X153925639Y-63140985D01*
X153925639Y-63140985D02*
X153687544Y-63140985D01*
X153687544Y-63140985D02*
X153544687Y-63179080D01*
X152782782Y-63521937D02*
X152639925Y-63560032D01*
X152639925Y-63560032D02*
X152592306Y-63598128D01*
X152592306Y-63598128D02*
X152544687Y-63674318D01*
X152544687Y-63674318D02*
X152544687Y-63788604D01*
X152544687Y-63788604D02*
X152592306Y-63864794D01*
X152592306Y-63864794D02*
X152639925Y-63902890D01*
X152639925Y-63902890D02*
X152735163Y-63940985D01*
X152735163Y-63940985D02*
X153116115Y-63940985D01*
X153116115Y-63940985D02*
X153116115Y-63140985D01*
X153116115Y-63140985D02*
X152782782Y-63140985D01*
X152782782Y-63140985D02*
X152687544Y-63179080D01*
X152687544Y-63179080D02*
X152639925Y-63217175D01*
X152639925Y-63217175D02*
X152592306Y-63293366D01*
X152592306Y-63293366D02*
X152592306Y-63369556D01*
X152592306Y-63369556D02*
X152639925Y-63445747D01*
X152639925Y-63445747D02*
X152687544Y-63483842D01*
X152687544Y-63483842D02*
X152782782Y-63521937D01*
X152782782Y-63521937D02*
X153116115Y-63521937D01*
X150782782Y-63864794D02*
X150830401Y-63902890D01*
X150830401Y-63902890D02*
X150973258Y-63940985D01*
X150973258Y-63940985D02*
X151068496Y-63940985D01*
X151068496Y-63940985D02*
X151211353Y-63902890D01*
X151211353Y-63902890D02*
X151306591Y-63826699D01*
X151306591Y-63826699D02*
X151354210Y-63750509D01*
X151354210Y-63750509D02*
X151401829Y-63598128D01*
X151401829Y-63598128D02*
X151401829Y-63483842D01*
X151401829Y-63483842D02*
X151354210Y-63331461D01*
X151354210Y-63331461D02*
X151306591Y-63255270D01*
X151306591Y-63255270D02*
X151211353Y-63179080D01*
X151211353Y-63179080D02*
X151068496Y-63140985D01*
X151068496Y-63140985D02*
X150973258Y-63140985D01*
X150973258Y-63140985D02*
X150830401Y-63179080D01*
X150830401Y-63179080D02*
X150782782Y-63217175D01*
X154830401Y-65533702D02*
X154878020Y-65495606D01*
X154878020Y-65495606D02*
X154973258Y-65381321D01*
X154973258Y-65381321D02*
X155020877Y-65305130D01*
X155020877Y-65305130D02*
X155068496Y-65190845D01*
X155068496Y-65190845D02*
X155116115Y-65000368D01*
X155116115Y-65000368D02*
X155116115Y-64847987D01*
X155116115Y-64847987D02*
X155068496Y-64657511D01*
X155068496Y-64657511D02*
X155020877Y-64543225D01*
X155020877Y-64543225D02*
X154973258Y-64467035D01*
X154973258Y-64467035D02*
X154878020Y-64352749D01*
X154878020Y-64352749D02*
X154830401Y-64314654D01*
X154449448Y-65228940D02*
X154449448Y-64428940D01*
X154449448Y-64428940D02*
X154068496Y-64428940D01*
X154068496Y-64428940D02*
X153973258Y-64467035D01*
X153973258Y-64467035D02*
X153925639Y-64505130D01*
X153925639Y-64505130D02*
X153878020Y-64581321D01*
X153878020Y-64581321D02*
X153878020Y-64695606D01*
X153878020Y-64695606D02*
X153925639Y-64771797D01*
X153925639Y-64771797D02*
X153973258Y-64809892D01*
X153973258Y-64809892D02*
X154068496Y-64847987D01*
X154068496Y-64847987D02*
X154449448Y-64847987D01*
X153306591Y-65228940D02*
X153401829Y-65190845D01*
X153401829Y-65190845D02*
X153449448Y-65152749D01*
X153449448Y-65152749D02*
X153497067Y-65076559D01*
X153497067Y-65076559D02*
X153497067Y-64847987D01*
X153497067Y-64847987D02*
X153449448Y-64771797D01*
X153449448Y-64771797D02*
X153401829Y-64733702D01*
X153401829Y-64733702D02*
X153306591Y-64695606D01*
X153306591Y-64695606D02*
X153163734Y-64695606D01*
X153163734Y-64695606D02*
X153068496Y-64733702D01*
X153068496Y-64733702D02*
X153020877Y-64771797D01*
X153020877Y-64771797D02*
X152973258Y-64847987D01*
X152973258Y-64847987D02*
X152973258Y-65076559D01*
X152973258Y-65076559D02*
X153020877Y-65152749D01*
X153020877Y-65152749D02*
X153068496Y-65190845D01*
X153068496Y-65190845D02*
X153163734Y-65228940D01*
X153163734Y-65228940D02*
X153306591Y-65228940D01*
X152639924Y-64695606D02*
X152449448Y-65228940D01*
X152449448Y-65228940D02*
X152258972Y-64847987D01*
X152258972Y-64847987D02*
X152068496Y-65228940D01*
X152068496Y-65228940D02*
X151878020Y-64695606D01*
X151116115Y-65190845D02*
X151211353Y-65228940D01*
X151211353Y-65228940D02*
X151401829Y-65228940D01*
X151401829Y-65228940D02*
X151497067Y-65190845D01*
X151497067Y-65190845D02*
X151544686Y-65114654D01*
X151544686Y-65114654D02*
X151544686Y-64809892D01*
X151544686Y-64809892D02*
X151497067Y-64733702D01*
X151497067Y-64733702D02*
X151401829Y-64695606D01*
X151401829Y-64695606D02*
X151211353Y-64695606D01*
X151211353Y-64695606D02*
X151116115Y-64733702D01*
X151116115Y-64733702D02*
X151068496Y-64809892D01*
X151068496Y-64809892D02*
X151068496Y-64886083D01*
X151068496Y-64886083D02*
X151544686Y-64962273D01*
X150639924Y-65228940D02*
X150639924Y-64695606D01*
X150639924Y-64847987D02*
X150592305Y-64771797D01*
X150592305Y-64771797D02*
X150544686Y-64733702D01*
X150544686Y-64733702D02*
X150449448Y-64695606D01*
X150449448Y-64695606D02*
X150354210Y-64695606D01*
X150116114Y-65533702D02*
X150068495Y-65495606D01*
X150068495Y-65495606D02*
X149973257Y-65381321D01*
X149973257Y-65381321D02*
X149925638Y-65305130D01*
X149925638Y-65305130D02*
X149878019Y-65190845D01*
X149878019Y-65190845D02*
X149830400Y-65000368D01*
X149830400Y-65000368D02*
X149830400Y-64847987D01*
X149830400Y-64847987D02*
X149878019Y-64657511D01*
X149878019Y-64657511D02*
X149925638Y-64543225D01*
X149925638Y-64543225D02*
X149973257Y-64467035D01*
X149973257Y-64467035D02*
X150068495Y-64352749D01*
X150068495Y-64352749D02*
X150116114Y-64314654D01*
X59834990Y-76547693D02*
X59796895Y-76452455D01*
X59796895Y-76452455D02*
X59796895Y-76309598D01*
X59796895Y-76309598D02*
X59834990Y-76166741D01*
X59834990Y-76166741D02*
X59911180Y-76071503D01*
X59911180Y-76071503D02*
X59987371Y-76023884D01*
X59987371Y-76023884D02*
X60139752Y-75976265D01*
X60139752Y-75976265D02*
X60254038Y-75976265D01*
X60254038Y-75976265D02*
X60406419Y-76023884D01*
X60406419Y-76023884D02*
X60482609Y-76071503D01*
X60482609Y-76071503D02*
X60558800Y-76166741D01*
X60558800Y-76166741D02*
X60596895Y-76309598D01*
X60596895Y-76309598D02*
X60596895Y-76404836D01*
X60596895Y-76404836D02*
X60558800Y-76547693D01*
X60558800Y-76547693D02*
X60520704Y-76595312D01*
X60520704Y-76595312D02*
X60254038Y-76595312D01*
X60254038Y-76595312D02*
X60254038Y-76404836D01*
X60596895Y-77023884D02*
X59796895Y-77023884D01*
X59796895Y-77023884D02*
X60596895Y-77595312D01*
X60596895Y-77595312D02*
X59796895Y-77595312D01*
X60596895Y-78071503D02*
X59796895Y-78071503D01*
X59796895Y-78071503D02*
X59796895Y-78309598D01*
X59796895Y-78309598D02*
X59834990Y-78452455D01*
X59834990Y-78452455D02*
X59911180Y-78547693D01*
X59911180Y-78547693D02*
X59987371Y-78595312D01*
X59987371Y-78595312D02*
X60139752Y-78642931D01*
X60139752Y-78642931D02*
X60254038Y-78642931D01*
X60254038Y-78642931D02*
X60406419Y-78595312D01*
X60406419Y-78595312D02*
X60482609Y-78547693D01*
X60482609Y-78547693D02*
X60558800Y-78452455D01*
X60558800Y-78452455D02*
X60596895Y-78309598D01*
X60596895Y-78309598D02*
X60596895Y-78071503D01*
X106849925Y-62536895D02*
X107326115Y-62536895D01*
X107326115Y-62536895D02*
X107373734Y-62917847D01*
X107373734Y-62917847D02*
X107326115Y-62879752D01*
X107326115Y-62879752D02*
X107230877Y-62841657D01*
X107230877Y-62841657D02*
X106992782Y-62841657D01*
X106992782Y-62841657D02*
X106897544Y-62879752D01*
X106897544Y-62879752D02*
X106849925Y-62917847D01*
X106849925Y-62917847D02*
X106802306Y-62994038D01*
X106802306Y-62994038D02*
X106802306Y-63184514D01*
X106802306Y-63184514D02*
X106849925Y-63260704D01*
X106849925Y-63260704D02*
X106897544Y-63298800D01*
X106897544Y-63298800D02*
X106992782Y-63336895D01*
X106992782Y-63336895D02*
X107230877Y-63336895D01*
X107230877Y-63336895D02*
X107326115Y-63298800D01*
X107326115Y-63298800D02*
X107373734Y-63260704D01*
X106516591Y-62536895D02*
X106183258Y-63336895D01*
X106183258Y-63336895D02*
X105849925Y-62536895D01*
X104754686Y-63336895D02*
X104754686Y-62536895D01*
X104754686Y-62536895D02*
X104373734Y-62536895D01*
X104373734Y-62536895D02*
X104278496Y-62574990D01*
X104278496Y-62574990D02*
X104230877Y-62613085D01*
X104230877Y-62613085D02*
X104183258Y-62689276D01*
X104183258Y-62689276D02*
X104183258Y-62803561D01*
X104183258Y-62803561D02*
X104230877Y-62879752D01*
X104230877Y-62879752D02*
X104278496Y-62917847D01*
X104278496Y-62917847D02*
X104373734Y-62955942D01*
X104373734Y-62955942D02*
X104754686Y-62955942D01*
X103754686Y-63336895D02*
X103754686Y-62536895D01*
X103278496Y-63336895D02*
X103278496Y-62536895D01*
X103278496Y-62536895D02*
X102707068Y-63336895D01*
X102707068Y-63336895D02*
X102707068Y-62536895D01*
X102230877Y-62803561D02*
X101468973Y-63032133D01*
X101468973Y-63032133D02*
X102230877Y-63260704D01*
X137834990Y-76327693D02*
X137796895Y-76232455D01*
X137796895Y-76232455D02*
X137796895Y-76089598D01*
X137796895Y-76089598D02*
X137834990Y-75946741D01*
X137834990Y-75946741D02*
X137911180Y-75851503D01*
X137911180Y-75851503D02*
X137987371Y-75803884D01*
X137987371Y-75803884D02*
X138139752Y-75756265D01*
X138139752Y-75756265D02*
X138254038Y-75756265D01*
X138254038Y-75756265D02*
X138406419Y-75803884D01*
X138406419Y-75803884D02*
X138482609Y-75851503D01*
X138482609Y-75851503D02*
X138558800Y-75946741D01*
X138558800Y-75946741D02*
X138596895Y-76089598D01*
X138596895Y-76089598D02*
X138596895Y-76184836D01*
X138596895Y-76184836D02*
X138558800Y-76327693D01*
X138558800Y-76327693D02*
X138520704Y-76375312D01*
X138520704Y-76375312D02*
X138254038Y-76375312D01*
X138254038Y-76375312D02*
X138254038Y-76184836D01*
X138596895Y-76803884D02*
X137796895Y-76803884D01*
X137796895Y-76803884D02*
X138596895Y-77375312D01*
X138596895Y-77375312D02*
X137796895Y-77375312D01*
X138596895Y-77851503D02*
X137796895Y-77851503D01*
X137796895Y-77851503D02*
X137796895Y-78089598D01*
X137796895Y-78089598D02*
X137834990Y-78232455D01*
X137834990Y-78232455D02*
X137911180Y-78327693D01*
X137911180Y-78327693D02*
X137987371Y-78375312D01*
X137987371Y-78375312D02*
X138139752Y-78422931D01*
X138139752Y-78422931D02*
X138254038Y-78422931D01*
X138254038Y-78422931D02*
X138406419Y-78375312D01*
X138406419Y-78375312D02*
X138482609Y-78327693D01*
X138482609Y-78327693D02*
X138558800Y-78232455D01*
X138558800Y-78232455D02*
X138596895Y-78089598D01*
X138596895Y-78089598D02*
X138596895Y-77851503D01*
X86906895Y-76575312D02*
X86525942Y-76241979D01*
X86906895Y-76003884D02*
X86106895Y-76003884D01*
X86106895Y-76003884D02*
X86106895Y-76384836D01*
X86106895Y-76384836D02*
X86144990Y-76480074D01*
X86144990Y-76480074D02*
X86183085Y-76527693D01*
X86183085Y-76527693D02*
X86259276Y-76575312D01*
X86259276Y-76575312D02*
X86373561Y-76575312D01*
X86373561Y-76575312D02*
X86449752Y-76527693D01*
X86449752Y-76527693D02*
X86487847Y-76480074D01*
X86487847Y-76480074D02*
X86525942Y-76384836D01*
X86525942Y-76384836D02*
X86525942Y-76003884D01*
X86868800Y-76956265D02*
X86906895Y-77099122D01*
X86906895Y-77099122D02*
X86906895Y-77337217D01*
X86906895Y-77337217D02*
X86868800Y-77432455D01*
X86868800Y-77432455D02*
X86830704Y-77480074D01*
X86830704Y-77480074D02*
X86754514Y-77527693D01*
X86754514Y-77527693D02*
X86678323Y-77527693D01*
X86678323Y-77527693D02*
X86602133Y-77480074D01*
X86602133Y-77480074D02*
X86564038Y-77432455D01*
X86564038Y-77432455D02*
X86525942Y-77337217D01*
X86525942Y-77337217D02*
X86487847Y-77146741D01*
X86487847Y-77146741D02*
X86449752Y-77051503D01*
X86449752Y-77051503D02*
X86411657Y-77003884D01*
X86411657Y-77003884D02*
X86335466Y-76956265D01*
X86335466Y-76956265D02*
X86259276Y-76956265D01*
X86259276Y-76956265D02*
X86183085Y-77003884D01*
X86183085Y-77003884D02*
X86144990Y-77051503D01*
X86144990Y-77051503D02*
X86106895Y-77146741D01*
X86106895Y-77146741D02*
X86106895Y-77384836D01*
X86106895Y-77384836D02*
X86144990Y-77527693D01*
X86106895Y-77813408D02*
X86106895Y-78384836D01*
X86906895Y-78099122D02*
X86106895Y-78099122D01*
X164696895Y-76955312D02*
X164315942Y-76621979D01*
X164696895Y-76383884D02*
X163896895Y-76383884D01*
X163896895Y-76383884D02*
X163896895Y-76764836D01*
X163896895Y-76764836D02*
X163934990Y-76860074D01*
X163934990Y-76860074D02*
X163973085Y-76907693D01*
X163973085Y-76907693D02*
X164049276Y-76955312D01*
X164049276Y-76955312D02*
X164163561Y-76955312D01*
X164163561Y-76955312D02*
X164239752Y-76907693D01*
X164239752Y-76907693D02*
X164277847Y-76860074D01*
X164277847Y-76860074D02*
X164315942Y-76764836D01*
X164315942Y-76764836D02*
X164315942Y-76383884D01*
X164658800Y-77336265D02*
X164696895Y-77479122D01*
X164696895Y-77479122D02*
X164696895Y-77717217D01*
X164696895Y-77717217D02*
X164658800Y-77812455D01*
X164658800Y-77812455D02*
X164620704Y-77860074D01*
X164620704Y-77860074D02*
X164544514Y-77907693D01*
X164544514Y-77907693D02*
X164468323Y-77907693D01*
X164468323Y-77907693D02*
X164392133Y-77860074D01*
X164392133Y-77860074D02*
X164354038Y-77812455D01*
X164354038Y-77812455D02*
X164315942Y-77717217D01*
X164315942Y-77717217D02*
X164277847Y-77526741D01*
X164277847Y-77526741D02*
X164239752Y-77431503D01*
X164239752Y-77431503D02*
X164201657Y-77383884D01*
X164201657Y-77383884D02*
X164125466Y-77336265D01*
X164125466Y-77336265D02*
X164049276Y-77336265D01*
X164049276Y-77336265D02*
X163973085Y-77383884D01*
X163973085Y-77383884D02*
X163934990Y-77431503D01*
X163934990Y-77431503D02*
X163896895Y-77526741D01*
X163896895Y-77526741D02*
X163896895Y-77764836D01*
X163896895Y-77764836D02*
X163934990Y-77907693D01*
X163896895Y-78193408D02*
X163896895Y-78764836D01*
X164696895Y-78479122D02*
X163896895Y-78479122D01*
X215764990Y-76677693D02*
X215726895Y-76582455D01*
X215726895Y-76582455D02*
X215726895Y-76439598D01*
X215726895Y-76439598D02*
X215764990Y-76296741D01*
X215764990Y-76296741D02*
X215841180Y-76201503D01*
X215841180Y-76201503D02*
X215917371Y-76153884D01*
X215917371Y-76153884D02*
X216069752Y-76106265D01*
X216069752Y-76106265D02*
X216184038Y-76106265D01*
X216184038Y-76106265D02*
X216336419Y-76153884D01*
X216336419Y-76153884D02*
X216412609Y-76201503D01*
X216412609Y-76201503D02*
X216488800Y-76296741D01*
X216488800Y-76296741D02*
X216526895Y-76439598D01*
X216526895Y-76439598D02*
X216526895Y-76534836D01*
X216526895Y-76534836D02*
X216488800Y-76677693D01*
X216488800Y-76677693D02*
X216450704Y-76725312D01*
X216450704Y-76725312D02*
X216184038Y-76725312D01*
X216184038Y-76725312D02*
X216184038Y-76534836D01*
X216526895Y-77153884D02*
X215726895Y-77153884D01*
X215726895Y-77153884D02*
X216526895Y-77725312D01*
X216526895Y-77725312D02*
X215726895Y-77725312D01*
X216526895Y-78201503D02*
X215726895Y-78201503D01*
X215726895Y-78201503D02*
X215726895Y-78439598D01*
X215726895Y-78439598D02*
X215764990Y-78582455D01*
X215764990Y-78582455D02*
X215841180Y-78677693D01*
X215841180Y-78677693D02*
X215917371Y-78725312D01*
X215917371Y-78725312D02*
X216069752Y-78772931D01*
X216069752Y-78772931D02*
X216184038Y-78772931D01*
X216184038Y-78772931D02*
X216336419Y-78725312D01*
X216336419Y-78725312D02*
X216412609Y-78677693D01*
X216412609Y-78677693D02*
X216488800Y-78582455D01*
X216488800Y-78582455D02*
X216526895Y-78439598D01*
X216526895Y-78439598D02*
X216526895Y-78201503D01*
X114316895Y-64488646D02*
X114316895Y-65107693D01*
X114316895Y-65107693D02*
X114621657Y-64774360D01*
X114621657Y-64774360D02*
X114621657Y-64917217D01*
X114621657Y-64917217D02*
X114659752Y-65012455D01*
X114659752Y-65012455D02*
X114697847Y-65060074D01*
X114697847Y-65060074D02*
X114774038Y-65107693D01*
X114774038Y-65107693D02*
X114964514Y-65107693D01*
X114964514Y-65107693D02*
X115040704Y-65060074D01*
X115040704Y-65060074D02*
X115078800Y-65012455D01*
X115078800Y-65012455D02*
X115116895Y-64917217D01*
X115116895Y-64917217D02*
X115116895Y-64631503D01*
X115116895Y-64631503D02*
X115078800Y-64536265D01*
X115078800Y-64536265D02*
X115040704Y-64488646D01*
X114583561Y-65964836D02*
X115116895Y-65964836D01*
X114278800Y-65726741D02*
X114850228Y-65488646D01*
X114850228Y-65488646D02*
X114850228Y-66107693D01*
X169836895Y-76443884D02*
X169036895Y-76443884D01*
X169036895Y-76443884D02*
X169036895Y-76681979D01*
X169036895Y-76681979D02*
X169074990Y-76824836D01*
X169074990Y-76824836D02*
X169151180Y-76920074D01*
X169151180Y-76920074D02*
X169227371Y-76967693D01*
X169227371Y-76967693D02*
X169379752Y-77015312D01*
X169379752Y-77015312D02*
X169494038Y-77015312D01*
X169494038Y-77015312D02*
X169646419Y-76967693D01*
X169646419Y-76967693D02*
X169722609Y-76920074D01*
X169722609Y-76920074D02*
X169798800Y-76824836D01*
X169798800Y-76824836D02*
X169836895Y-76681979D01*
X169836895Y-76681979D02*
X169836895Y-76443884D01*
X169760704Y-78015312D02*
X169798800Y-77967693D01*
X169798800Y-77967693D02*
X169836895Y-77824836D01*
X169836895Y-77824836D02*
X169836895Y-77729598D01*
X169836895Y-77729598D02*
X169798800Y-77586741D01*
X169798800Y-77586741D02*
X169722609Y-77491503D01*
X169722609Y-77491503D02*
X169646419Y-77443884D01*
X169646419Y-77443884D02*
X169494038Y-77396265D01*
X169494038Y-77396265D02*
X169379752Y-77396265D01*
X169379752Y-77396265D02*
X169227371Y-77443884D01*
X169227371Y-77443884D02*
X169151180Y-77491503D01*
X169151180Y-77491503D02*
X169074990Y-77586741D01*
X169074990Y-77586741D02*
X169036895Y-77729598D01*
X169036895Y-77729598D02*
X169036895Y-77824836D01*
X169036895Y-77824836D02*
X169074990Y-77967693D01*
X169074990Y-77967693D02*
X169113085Y-78015312D01*
X111786895Y-64398646D02*
X111786895Y-65017693D01*
X111786895Y-65017693D02*
X112091657Y-64684360D01*
X112091657Y-64684360D02*
X112091657Y-64827217D01*
X112091657Y-64827217D02*
X112129752Y-64922455D01*
X112129752Y-64922455D02*
X112167847Y-64970074D01*
X112167847Y-64970074D02*
X112244038Y-65017693D01*
X112244038Y-65017693D02*
X112434514Y-65017693D01*
X112434514Y-65017693D02*
X112510704Y-64970074D01*
X112510704Y-64970074D02*
X112548800Y-64922455D01*
X112548800Y-64922455D02*
X112586895Y-64827217D01*
X112586895Y-64827217D02*
X112586895Y-64541503D01*
X112586895Y-64541503D02*
X112548800Y-64446265D01*
X112548800Y-64446265D02*
X112510704Y-64398646D01*
X111786895Y-65922455D02*
X111786895Y-65446265D01*
X111786895Y-65446265D02*
X112167847Y-65398646D01*
X112167847Y-65398646D02*
X112129752Y-65446265D01*
X112129752Y-65446265D02*
X112091657Y-65541503D01*
X112091657Y-65541503D02*
X112091657Y-65779598D01*
X112091657Y-65779598D02*
X112129752Y-65874836D01*
X112129752Y-65874836D02*
X112167847Y-65922455D01*
X112167847Y-65922455D02*
X112244038Y-65970074D01*
X112244038Y-65970074D02*
X112434514Y-65970074D01*
X112434514Y-65970074D02*
X112510704Y-65922455D01*
X112510704Y-65922455D02*
X112548800Y-65874836D01*
X112548800Y-65874836D02*
X112586895Y-65779598D01*
X112586895Y-65779598D02*
X112586895Y-65541503D01*
X112586895Y-65541503D02*
X112548800Y-65446265D01*
X112548800Y-65446265D02*
X112510704Y-65398646D01*
X156963104Y-75318972D02*
X156163104Y-74985639D01*
X156163104Y-74985639D02*
X156963104Y-74652306D01*
X156239295Y-73747544D02*
X156201200Y-73795163D01*
X156201200Y-73795163D02*
X156163104Y-73938020D01*
X156163104Y-73938020D02*
X156163104Y-74033258D01*
X156163104Y-74033258D02*
X156201200Y-74176115D01*
X156201200Y-74176115D02*
X156277390Y-74271353D01*
X156277390Y-74271353D02*
X156353580Y-74318972D01*
X156353580Y-74318972D02*
X156505961Y-74366591D01*
X156505961Y-74366591D02*
X156620247Y-74366591D01*
X156620247Y-74366591D02*
X156772628Y-74318972D01*
X156772628Y-74318972D02*
X156848819Y-74271353D01*
X156848819Y-74271353D02*
X156925009Y-74176115D01*
X156925009Y-74176115D02*
X156963104Y-74033258D01*
X156963104Y-74033258D02*
X156963104Y-73938020D01*
X156963104Y-73938020D02*
X156925009Y-73795163D01*
X156925009Y-73795163D02*
X156886914Y-73747544D01*
X156239295Y-72747544D02*
X156201200Y-72795163D01*
X156201200Y-72795163D02*
X156163104Y-72938020D01*
X156163104Y-72938020D02*
X156163104Y-73033258D01*
X156163104Y-73033258D02*
X156201200Y-73176115D01*
X156201200Y-73176115D02*
X156277390Y-73271353D01*
X156277390Y-73271353D02*
X156353580Y-73318972D01*
X156353580Y-73318972D02*
X156505961Y-73366591D01*
X156505961Y-73366591D02*
X156620247Y-73366591D01*
X156620247Y-73366591D02*
X156772628Y-73318972D01*
X156772628Y-73318972D02*
X156848819Y-73271353D01*
X156848819Y-73271353D02*
X156925009Y-73176115D01*
X156925009Y-73176115D02*
X156963104Y-73033258D01*
X156963104Y-73033258D02*
X156963104Y-72938020D01*
X156963104Y-72938020D02*
X156925009Y-72795163D01*
X156925009Y-72795163D02*
X156886914Y-72747544D01*
X57958800Y-76036265D02*
X57996895Y-76179122D01*
X57996895Y-76179122D02*
X57996895Y-76417217D01*
X57996895Y-76417217D02*
X57958800Y-76512455D01*
X57958800Y-76512455D02*
X57920704Y-76560074D01*
X57920704Y-76560074D02*
X57844514Y-76607693D01*
X57844514Y-76607693D02*
X57768323Y-76607693D01*
X57768323Y-76607693D02*
X57692133Y-76560074D01*
X57692133Y-76560074D02*
X57654038Y-76512455D01*
X57654038Y-76512455D02*
X57615942Y-76417217D01*
X57615942Y-76417217D02*
X57577847Y-76226741D01*
X57577847Y-76226741D02*
X57539752Y-76131503D01*
X57539752Y-76131503D02*
X57501657Y-76083884D01*
X57501657Y-76083884D02*
X57425466Y-76036265D01*
X57425466Y-76036265D02*
X57349276Y-76036265D01*
X57349276Y-76036265D02*
X57273085Y-76083884D01*
X57273085Y-76083884D02*
X57234990Y-76131503D01*
X57234990Y-76131503D02*
X57196895Y-76226741D01*
X57196895Y-76226741D02*
X57196895Y-76464836D01*
X57196895Y-76464836D02*
X57234990Y-76607693D01*
X57920704Y-77607693D02*
X57958800Y-77560074D01*
X57958800Y-77560074D02*
X57996895Y-77417217D01*
X57996895Y-77417217D02*
X57996895Y-77321979D01*
X57996895Y-77321979D02*
X57958800Y-77179122D01*
X57958800Y-77179122D02*
X57882609Y-77083884D01*
X57882609Y-77083884D02*
X57806419Y-77036265D01*
X57806419Y-77036265D02*
X57654038Y-76988646D01*
X57654038Y-76988646D02*
X57539752Y-76988646D01*
X57539752Y-76988646D02*
X57387371Y-77036265D01*
X57387371Y-77036265D02*
X57311180Y-77083884D01*
X57311180Y-77083884D02*
X57234990Y-77179122D01*
X57234990Y-77179122D02*
X57196895Y-77321979D01*
X57196895Y-77321979D02*
X57196895Y-77417217D01*
X57196895Y-77417217D02*
X57234990Y-77560074D01*
X57234990Y-77560074D02*
X57273085Y-77607693D01*
X57996895Y-78512455D02*
X57996895Y-78036265D01*
X57996895Y-78036265D02*
X57196895Y-78036265D01*
X97088800Y-75826265D02*
X97126895Y-75969122D01*
X97126895Y-75969122D02*
X97126895Y-76207217D01*
X97126895Y-76207217D02*
X97088800Y-76302455D01*
X97088800Y-76302455D02*
X97050704Y-76350074D01*
X97050704Y-76350074D02*
X96974514Y-76397693D01*
X96974514Y-76397693D02*
X96898323Y-76397693D01*
X96898323Y-76397693D02*
X96822133Y-76350074D01*
X96822133Y-76350074D02*
X96784038Y-76302455D01*
X96784038Y-76302455D02*
X96745942Y-76207217D01*
X96745942Y-76207217D02*
X96707847Y-76016741D01*
X96707847Y-76016741D02*
X96669752Y-75921503D01*
X96669752Y-75921503D02*
X96631657Y-75873884D01*
X96631657Y-75873884D02*
X96555466Y-75826265D01*
X96555466Y-75826265D02*
X96479276Y-75826265D01*
X96479276Y-75826265D02*
X96403085Y-75873884D01*
X96403085Y-75873884D02*
X96364990Y-75921503D01*
X96364990Y-75921503D02*
X96326895Y-76016741D01*
X96326895Y-76016741D02*
X96326895Y-76254836D01*
X96326895Y-76254836D02*
X96364990Y-76397693D01*
X97050704Y-77397693D02*
X97088800Y-77350074D01*
X97088800Y-77350074D02*
X97126895Y-77207217D01*
X97126895Y-77207217D02*
X97126895Y-77111979D01*
X97126895Y-77111979D02*
X97088800Y-76969122D01*
X97088800Y-76969122D02*
X97012609Y-76873884D01*
X97012609Y-76873884D02*
X96936419Y-76826265D01*
X96936419Y-76826265D02*
X96784038Y-76778646D01*
X96784038Y-76778646D02*
X96669752Y-76778646D01*
X96669752Y-76778646D02*
X96517371Y-76826265D01*
X96517371Y-76826265D02*
X96441180Y-76873884D01*
X96441180Y-76873884D02*
X96364990Y-76969122D01*
X96364990Y-76969122D02*
X96326895Y-77111979D01*
X96326895Y-77111979D02*
X96326895Y-77207217D01*
X96326895Y-77207217D02*
X96364990Y-77350074D01*
X96364990Y-77350074D02*
X96403085Y-77397693D01*
X97126895Y-78302455D02*
X97126895Y-77826265D01*
X97126895Y-77826265D02*
X96326895Y-77826265D01*
X140346895Y-75761027D02*
X141146895Y-76094360D01*
X141146895Y-76094360D02*
X140346895Y-76427693D01*
X141070704Y-77332455D02*
X141108800Y-77284836D01*
X141108800Y-77284836D02*
X141146895Y-77141979D01*
X141146895Y-77141979D02*
X141146895Y-77046741D01*
X141146895Y-77046741D02*
X141108800Y-76903884D01*
X141108800Y-76903884D02*
X141032609Y-76808646D01*
X141032609Y-76808646D02*
X140956419Y-76761027D01*
X140956419Y-76761027D02*
X140804038Y-76713408D01*
X140804038Y-76713408D02*
X140689752Y-76713408D01*
X140689752Y-76713408D02*
X140537371Y-76761027D01*
X140537371Y-76761027D02*
X140461180Y-76808646D01*
X140461180Y-76808646D02*
X140384990Y-76903884D01*
X140384990Y-76903884D02*
X140346895Y-77046741D01*
X140346895Y-77046741D02*
X140346895Y-77141979D01*
X140346895Y-77141979D02*
X140384990Y-77284836D01*
X140384990Y-77284836D02*
X140423085Y-77332455D01*
X141070704Y-78332455D02*
X141108800Y-78284836D01*
X141108800Y-78284836D02*
X141146895Y-78141979D01*
X141146895Y-78141979D02*
X141146895Y-78046741D01*
X141146895Y-78046741D02*
X141108800Y-77903884D01*
X141108800Y-77903884D02*
X141032609Y-77808646D01*
X141032609Y-77808646D02*
X140956419Y-77761027D01*
X140956419Y-77761027D02*
X140804038Y-77713408D01*
X140804038Y-77713408D02*
X140689752Y-77713408D01*
X140689752Y-77713408D02*
X140537371Y-77761027D01*
X140537371Y-77761027D02*
X140461180Y-77808646D01*
X140461180Y-77808646D02*
X140384990Y-77903884D01*
X140384990Y-77903884D02*
X140346895Y-78046741D01*
X140346895Y-78046741D02*
X140346895Y-78141979D01*
X140346895Y-78141979D02*
X140384990Y-78284836D01*
X140384990Y-78284836D02*
X140423085Y-78332455D01*
X218276895Y-76111027D02*
X219076895Y-76444360D01*
X219076895Y-76444360D02*
X218276895Y-76777693D01*
X219000704Y-77682455D02*
X219038800Y-77634836D01*
X219038800Y-77634836D02*
X219076895Y-77491979D01*
X219076895Y-77491979D02*
X219076895Y-77396741D01*
X219076895Y-77396741D02*
X219038800Y-77253884D01*
X219038800Y-77253884D02*
X218962609Y-77158646D01*
X218962609Y-77158646D02*
X218886419Y-77111027D01*
X218886419Y-77111027D02*
X218734038Y-77063408D01*
X218734038Y-77063408D02*
X218619752Y-77063408D01*
X218619752Y-77063408D02*
X218467371Y-77111027D01*
X218467371Y-77111027D02*
X218391180Y-77158646D01*
X218391180Y-77158646D02*
X218314990Y-77253884D01*
X218314990Y-77253884D02*
X218276895Y-77396741D01*
X218276895Y-77396741D02*
X218276895Y-77491979D01*
X218276895Y-77491979D02*
X218314990Y-77634836D01*
X218314990Y-77634836D02*
X218353085Y-77682455D01*
X219000704Y-78682455D02*
X219038800Y-78634836D01*
X219038800Y-78634836D02*
X219076895Y-78491979D01*
X219076895Y-78491979D02*
X219076895Y-78396741D01*
X219076895Y-78396741D02*
X219038800Y-78253884D01*
X219038800Y-78253884D02*
X218962609Y-78158646D01*
X218962609Y-78158646D02*
X218886419Y-78111027D01*
X218886419Y-78111027D02*
X218734038Y-78063408D01*
X218734038Y-78063408D02*
X218619752Y-78063408D01*
X218619752Y-78063408D02*
X218467371Y-78111027D01*
X218467371Y-78111027D02*
X218391180Y-78158646D01*
X218391180Y-78158646D02*
X218314990Y-78253884D01*
X218314990Y-78253884D02*
X218276895Y-78396741D01*
X218276895Y-78396741D02*
X218276895Y-78491979D01*
X218276895Y-78491979D02*
X218314990Y-78634836D01*
X218314990Y-78634836D02*
X218353085Y-78682455D01*
X149285009Y-74742306D02*
X149323104Y-74837544D01*
X149323104Y-74837544D02*
X149323104Y-74980401D01*
X149323104Y-74980401D02*
X149285009Y-75123258D01*
X149285009Y-75123258D02*
X149208819Y-75218496D01*
X149208819Y-75218496D02*
X149132628Y-75266115D01*
X149132628Y-75266115D02*
X148980247Y-75313734D01*
X148980247Y-75313734D02*
X148865961Y-75313734D01*
X148865961Y-75313734D02*
X148713580Y-75266115D01*
X148713580Y-75266115D02*
X148637390Y-75218496D01*
X148637390Y-75218496D02*
X148561200Y-75123258D01*
X148561200Y-75123258D02*
X148523104Y-74980401D01*
X148523104Y-74980401D02*
X148523104Y-74885163D01*
X148523104Y-74885163D02*
X148561200Y-74742306D01*
X148561200Y-74742306D02*
X148599295Y-74694687D01*
X148599295Y-74694687D02*
X148865961Y-74694687D01*
X148865961Y-74694687D02*
X148865961Y-74885163D01*
X148523104Y-74266115D02*
X149323104Y-74266115D01*
X149323104Y-74266115D02*
X148523104Y-73694687D01*
X148523104Y-73694687D02*
X149323104Y-73694687D01*
X148523104Y-73218496D02*
X149323104Y-73218496D01*
X149323104Y-73218496D02*
X149323104Y-72980401D01*
X149323104Y-72980401D02*
X149285009Y-72837544D01*
X149285009Y-72837544D02*
X149208819Y-72742306D01*
X149208819Y-72742306D02*
X149132628Y-72694687D01*
X149132628Y-72694687D02*
X148980247Y-72647068D01*
X148980247Y-72647068D02*
X148865961Y-72647068D01*
X148865961Y-72647068D02*
X148713580Y-72694687D01*
X148713580Y-72694687D02*
X148637390Y-72742306D01*
X148637390Y-72742306D02*
X148561200Y-72837544D01*
X148561200Y-72837544D02*
X148523104Y-72980401D01*
X148523104Y-72980401D02*
X148523104Y-73218496D01*
X172398800Y-76336265D02*
X172436895Y-76479122D01*
X172436895Y-76479122D02*
X172436895Y-76717217D01*
X172436895Y-76717217D02*
X172398800Y-76812455D01*
X172398800Y-76812455D02*
X172360704Y-76860074D01*
X172360704Y-76860074D02*
X172284514Y-76907693D01*
X172284514Y-76907693D02*
X172208323Y-76907693D01*
X172208323Y-76907693D02*
X172132133Y-76860074D01*
X172132133Y-76860074D02*
X172094038Y-76812455D01*
X172094038Y-76812455D02*
X172055942Y-76717217D01*
X172055942Y-76717217D02*
X172017847Y-76526741D01*
X172017847Y-76526741D02*
X171979752Y-76431503D01*
X171979752Y-76431503D02*
X171941657Y-76383884D01*
X171941657Y-76383884D02*
X171865466Y-76336265D01*
X171865466Y-76336265D02*
X171789276Y-76336265D01*
X171789276Y-76336265D02*
X171713085Y-76383884D01*
X171713085Y-76383884D02*
X171674990Y-76431503D01*
X171674990Y-76431503D02*
X171636895Y-76526741D01*
X171636895Y-76526741D02*
X171636895Y-76764836D01*
X171636895Y-76764836D02*
X171674990Y-76907693D01*
X172436895Y-77336265D02*
X171636895Y-77336265D01*
X171636895Y-77336265D02*
X171636895Y-77574360D01*
X171636895Y-77574360D02*
X171674990Y-77717217D01*
X171674990Y-77717217D02*
X171751180Y-77812455D01*
X171751180Y-77812455D02*
X171827371Y-77860074D01*
X171827371Y-77860074D02*
X171979752Y-77907693D01*
X171979752Y-77907693D02*
X172094038Y-77907693D01*
X172094038Y-77907693D02*
X172246419Y-77860074D01*
X172246419Y-77860074D02*
X172322609Y-77812455D01*
X172322609Y-77812455D02*
X172398800Y-77717217D01*
X172398800Y-77717217D02*
X172436895Y-77574360D01*
X172436895Y-77574360D02*
X172436895Y-77336265D01*
X172208323Y-78288646D02*
X172208323Y-78764836D01*
X172436895Y-78193408D02*
X171636895Y-78526741D01*
X171636895Y-78526741D02*
X172436895Y-78860074D01*
X128180704Y-76565312D02*
X128218800Y-76517693D01*
X128218800Y-76517693D02*
X128256895Y-76374836D01*
X128256895Y-76374836D02*
X128256895Y-76279598D01*
X128256895Y-76279598D02*
X128218800Y-76136741D01*
X128218800Y-76136741D02*
X128142609Y-76041503D01*
X128142609Y-76041503D02*
X128066419Y-75993884D01*
X128066419Y-75993884D02*
X127914038Y-75946265D01*
X127914038Y-75946265D02*
X127799752Y-75946265D01*
X127799752Y-75946265D02*
X127647371Y-75993884D01*
X127647371Y-75993884D02*
X127571180Y-76041503D01*
X127571180Y-76041503D02*
X127494990Y-76136741D01*
X127494990Y-76136741D02*
X127456895Y-76279598D01*
X127456895Y-76279598D02*
X127456895Y-76374836D01*
X127456895Y-76374836D02*
X127494990Y-76517693D01*
X127494990Y-76517693D02*
X127533085Y-76565312D01*
X128218800Y-76946265D02*
X128256895Y-77089122D01*
X128256895Y-77089122D02*
X128256895Y-77327217D01*
X128256895Y-77327217D02*
X128218800Y-77422455D01*
X128218800Y-77422455D02*
X128180704Y-77470074D01*
X128180704Y-77470074D02*
X128104514Y-77517693D01*
X128104514Y-77517693D02*
X128028323Y-77517693D01*
X128028323Y-77517693D02*
X127952133Y-77470074D01*
X127952133Y-77470074D02*
X127914038Y-77422455D01*
X127914038Y-77422455D02*
X127875942Y-77327217D01*
X127875942Y-77327217D02*
X127837847Y-77136741D01*
X127837847Y-77136741D02*
X127799752Y-77041503D01*
X127799752Y-77041503D02*
X127761657Y-76993884D01*
X127761657Y-76993884D02*
X127685466Y-76946265D01*
X127685466Y-76946265D02*
X127609276Y-76946265D01*
X127609276Y-76946265D02*
X127533085Y-76993884D01*
X127533085Y-76993884D02*
X127494990Y-77041503D01*
X127494990Y-77041503D02*
X127456895Y-77136741D01*
X127456895Y-77136741D02*
X127456895Y-77374836D01*
X127456895Y-77374836D02*
X127494990Y-77517693D01*
X94608800Y-75956265D02*
X94646895Y-76099122D01*
X94646895Y-76099122D02*
X94646895Y-76337217D01*
X94646895Y-76337217D02*
X94608800Y-76432455D01*
X94608800Y-76432455D02*
X94570704Y-76480074D01*
X94570704Y-76480074D02*
X94494514Y-76527693D01*
X94494514Y-76527693D02*
X94418323Y-76527693D01*
X94418323Y-76527693D02*
X94342133Y-76480074D01*
X94342133Y-76480074D02*
X94304038Y-76432455D01*
X94304038Y-76432455D02*
X94265942Y-76337217D01*
X94265942Y-76337217D02*
X94227847Y-76146741D01*
X94227847Y-76146741D02*
X94189752Y-76051503D01*
X94189752Y-76051503D02*
X94151657Y-76003884D01*
X94151657Y-76003884D02*
X94075466Y-75956265D01*
X94075466Y-75956265D02*
X93999276Y-75956265D01*
X93999276Y-75956265D02*
X93923085Y-76003884D01*
X93923085Y-76003884D02*
X93884990Y-76051503D01*
X93884990Y-76051503D02*
X93846895Y-76146741D01*
X93846895Y-76146741D02*
X93846895Y-76384836D01*
X93846895Y-76384836D02*
X93884990Y-76527693D01*
X94646895Y-76956265D02*
X93846895Y-76956265D01*
X93846895Y-76956265D02*
X93846895Y-77194360D01*
X93846895Y-77194360D02*
X93884990Y-77337217D01*
X93884990Y-77337217D02*
X93961180Y-77432455D01*
X93961180Y-77432455D02*
X94037371Y-77480074D01*
X94037371Y-77480074D02*
X94189752Y-77527693D01*
X94189752Y-77527693D02*
X94304038Y-77527693D01*
X94304038Y-77527693D02*
X94456419Y-77480074D01*
X94456419Y-77480074D02*
X94532609Y-77432455D01*
X94532609Y-77432455D02*
X94608800Y-77337217D01*
X94608800Y-77337217D02*
X94646895Y-77194360D01*
X94646895Y-77194360D02*
X94646895Y-76956265D01*
X94418323Y-77908646D02*
X94418323Y-78384836D01*
X94646895Y-77813408D02*
X93846895Y-78146741D01*
X93846895Y-78146741D02*
X94646895Y-78480074D01*
X130916895Y-76053884D02*
X130116895Y-76053884D01*
X130116895Y-76053884D02*
X130116895Y-76291979D01*
X130116895Y-76291979D02*
X130154990Y-76434836D01*
X130154990Y-76434836D02*
X130231180Y-76530074D01*
X130231180Y-76530074D02*
X130307371Y-76577693D01*
X130307371Y-76577693D02*
X130459752Y-76625312D01*
X130459752Y-76625312D02*
X130574038Y-76625312D01*
X130574038Y-76625312D02*
X130726419Y-76577693D01*
X130726419Y-76577693D02*
X130802609Y-76530074D01*
X130802609Y-76530074D02*
X130878800Y-76434836D01*
X130878800Y-76434836D02*
X130916895Y-76291979D01*
X130916895Y-76291979D02*
X130916895Y-76053884D01*
X130840704Y-77625312D02*
X130878800Y-77577693D01*
X130878800Y-77577693D02*
X130916895Y-77434836D01*
X130916895Y-77434836D02*
X130916895Y-77339598D01*
X130916895Y-77339598D02*
X130878800Y-77196741D01*
X130878800Y-77196741D02*
X130802609Y-77101503D01*
X130802609Y-77101503D02*
X130726419Y-77053884D01*
X130726419Y-77053884D02*
X130574038Y-77006265D01*
X130574038Y-77006265D02*
X130459752Y-77006265D01*
X130459752Y-77006265D02*
X130307371Y-77053884D01*
X130307371Y-77053884D02*
X130231180Y-77101503D01*
X130231180Y-77101503D02*
X130154990Y-77196741D01*
X130154990Y-77196741D02*
X130116895Y-77339598D01*
X130116895Y-77339598D02*
X130116895Y-77434836D01*
X130116895Y-77434836D02*
X130154990Y-77577693D01*
X130154990Y-77577693D02*
X130193085Y-77625312D01*
X213888800Y-76166265D02*
X213926895Y-76309122D01*
X213926895Y-76309122D02*
X213926895Y-76547217D01*
X213926895Y-76547217D02*
X213888800Y-76642455D01*
X213888800Y-76642455D02*
X213850704Y-76690074D01*
X213850704Y-76690074D02*
X213774514Y-76737693D01*
X213774514Y-76737693D02*
X213698323Y-76737693D01*
X213698323Y-76737693D02*
X213622133Y-76690074D01*
X213622133Y-76690074D02*
X213584038Y-76642455D01*
X213584038Y-76642455D02*
X213545942Y-76547217D01*
X213545942Y-76547217D02*
X213507847Y-76356741D01*
X213507847Y-76356741D02*
X213469752Y-76261503D01*
X213469752Y-76261503D02*
X213431657Y-76213884D01*
X213431657Y-76213884D02*
X213355466Y-76166265D01*
X213355466Y-76166265D02*
X213279276Y-76166265D01*
X213279276Y-76166265D02*
X213203085Y-76213884D01*
X213203085Y-76213884D02*
X213164990Y-76261503D01*
X213164990Y-76261503D02*
X213126895Y-76356741D01*
X213126895Y-76356741D02*
X213126895Y-76594836D01*
X213126895Y-76594836D02*
X213164990Y-76737693D01*
X213850704Y-77737693D02*
X213888800Y-77690074D01*
X213888800Y-77690074D02*
X213926895Y-77547217D01*
X213926895Y-77547217D02*
X213926895Y-77451979D01*
X213926895Y-77451979D02*
X213888800Y-77309122D01*
X213888800Y-77309122D02*
X213812609Y-77213884D01*
X213812609Y-77213884D02*
X213736419Y-77166265D01*
X213736419Y-77166265D02*
X213584038Y-77118646D01*
X213584038Y-77118646D02*
X213469752Y-77118646D01*
X213469752Y-77118646D02*
X213317371Y-77166265D01*
X213317371Y-77166265D02*
X213241180Y-77213884D01*
X213241180Y-77213884D02*
X213164990Y-77309122D01*
X213164990Y-77309122D02*
X213126895Y-77451979D01*
X213126895Y-77451979D02*
X213126895Y-77547217D01*
X213126895Y-77547217D02*
X213164990Y-77690074D01*
X213164990Y-77690074D02*
X213203085Y-77737693D01*
X213926895Y-78642455D02*
X213926895Y-78166265D01*
X213926895Y-78166265D02*
X213126895Y-78166265D01*
X62346895Y-75981027D02*
X63146895Y-76314360D01*
X63146895Y-76314360D02*
X62346895Y-76647693D01*
X63070704Y-77552455D02*
X63108800Y-77504836D01*
X63108800Y-77504836D02*
X63146895Y-77361979D01*
X63146895Y-77361979D02*
X63146895Y-77266741D01*
X63146895Y-77266741D02*
X63108800Y-77123884D01*
X63108800Y-77123884D02*
X63032609Y-77028646D01*
X63032609Y-77028646D02*
X62956419Y-76981027D01*
X62956419Y-76981027D02*
X62804038Y-76933408D01*
X62804038Y-76933408D02*
X62689752Y-76933408D01*
X62689752Y-76933408D02*
X62537371Y-76981027D01*
X62537371Y-76981027D02*
X62461180Y-77028646D01*
X62461180Y-77028646D02*
X62384990Y-77123884D01*
X62384990Y-77123884D02*
X62346895Y-77266741D01*
X62346895Y-77266741D02*
X62346895Y-77361979D01*
X62346895Y-77361979D02*
X62384990Y-77504836D01*
X62384990Y-77504836D02*
X62423085Y-77552455D01*
X63070704Y-78552455D02*
X63108800Y-78504836D01*
X63108800Y-78504836D02*
X63146895Y-78361979D01*
X63146895Y-78361979D02*
X63146895Y-78266741D01*
X63146895Y-78266741D02*
X63108800Y-78123884D01*
X63108800Y-78123884D02*
X63032609Y-78028646D01*
X63032609Y-78028646D02*
X62956419Y-77981027D01*
X62956419Y-77981027D02*
X62804038Y-77933408D01*
X62804038Y-77933408D02*
X62689752Y-77933408D01*
X62689752Y-77933408D02*
X62537371Y-77981027D01*
X62537371Y-77981027D02*
X62461180Y-78028646D01*
X62461180Y-78028646D02*
X62384990Y-78123884D01*
X62384990Y-78123884D02*
X62346895Y-78266741D01*
X62346895Y-78266741D02*
X62346895Y-78361979D01*
X62346895Y-78361979D02*
X62384990Y-78504836D01*
X62384990Y-78504836D02*
X62423085Y-78552455D01*
X89310704Y-76575312D02*
X89348800Y-76527693D01*
X89348800Y-76527693D02*
X89386895Y-76384836D01*
X89386895Y-76384836D02*
X89386895Y-76289598D01*
X89386895Y-76289598D02*
X89348800Y-76146741D01*
X89348800Y-76146741D02*
X89272609Y-76051503D01*
X89272609Y-76051503D02*
X89196419Y-76003884D01*
X89196419Y-76003884D02*
X89044038Y-75956265D01*
X89044038Y-75956265D02*
X88929752Y-75956265D01*
X88929752Y-75956265D02*
X88777371Y-76003884D01*
X88777371Y-76003884D02*
X88701180Y-76051503D01*
X88701180Y-76051503D02*
X88624990Y-76146741D01*
X88624990Y-76146741D02*
X88586895Y-76289598D01*
X88586895Y-76289598D02*
X88586895Y-76384836D01*
X88586895Y-76384836D02*
X88624990Y-76527693D01*
X88624990Y-76527693D02*
X88663085Y-76575312D01*
X89348800Y-76956265D02*
X89386895Y-77099122D01*
X89386895Y-77099122D02*
X89386895Y-77337217D01*
X89386895Y-77337217D02*
X89348800Y-77432455D01*
X89348800Y-77432455D02*
X89310704Y-77480074D01*
X89310704Y-77480074D02*
X89234514Y-77527693D01*
X89234514Y-77527693D02*
X89158323Y-77527693D01*
X89158323Y-77527693D02*
X89082133Y-77480074D01*
X89082133Y-77480074D02*
X89044038Y-77432455D01*
X89044038Y-77432455D02*
X89005942Y-77337217D01*
X89005942Y-77337217D02*
X88967847Y-77146741D01*
X88967847Y-77146741D02*
X88929752Y-77051503D01*
X88929752Y-77051503D02*
X88891657Y-77003884D01*
X88891657Y-77003884D02*
X88815466Y-76956265D01*
X88815466Y-76956265D02*
X88739276Y-76956265D01*
X88739276Y-76956265D02*
X88663085Y-77003884D01*
X88663085Y-77003884D02*
X88624990Y-77051503D01*
X88624990Y-77051503D02*
X88586895Y-77146741D01*
X88586895Y-77146741D02*
X88586895Y-77384836D01*
X88586895Y-77384836D02*
X88624990Y-77527693D01*
X135958800Y-75816265D02*
X135996895Y-75959122D01*
X135996895Y-75959122D02*
X135996895Y-76197217D01*
X135996895Y-76197217D02*
X135958800Y-76292455D01*
X135958800Y-76292455D02*
X135920704Y-76340074D01*
X135920704Y-76340074D02*
X135844514Y-76387693D01*
X135844514Y-76387693D02*
X135768323Y-76387693D01*
X135768323Y-76387693D02*
X135692133Y-76340074D01*
X135692133Y-76340074D02*
X135654038Y-76292455D01*
X135654038Y-76292455D02*
X135615942Y-76197217D01*
X135615942Y-76197217D02*
X135577847Y-76006741D01*
X135577847Y-76006741D02*
X135539752Y-75911503D01*
X135539752Y-75911503D02*
X135501657Y-75863884D01*
X135501657Y-75863884D02*
X135425466Y-75816265D01*
X135425466Y-75816265D02*
X135349276Y-75816265D01*
X135349276Y-75816265D02*
X135273085Y-75863884D01*
X135273085Y-75863884D02*
X135234990Y-75911503D01*
X135234990Y-75911503D02*
X135196895Y-76006741D01*
X135196895Y-76006741D02*
X135196895Y-76244836D01*
X135196895Y-76244836D02*
X135234990Y-76387693D01*
X135920704Y-77387693D02*
X135958800Y-77340074D01*
X135958800Y-77340074D02*
X135996895Y-77197217D01*
X135996895Y-77197217D02*
X135996895Y-77101979D01*
X135996895Y-77101979D02*
X135958800Y-76959122D01*
X135958800Y-76959122D02*
X135882609Y-76863884D01*
X135882609Y-76863884D02*
X135806419Y-76816265D01*
X135806419Y-76816265D02*
X135654038Y-76768646D01*
X135654038Y-76768646D02*
X135539752Y-76768646D01*
X135539752Y-76768646D02*
X135387371Y-76816265D01*
X135387371Y-76816265D02*
X135311180Y-76863884D01*
X135311180Y-76863884D02*
X135234990Y-76959122D01*
X135234990Y-76959122D02*
X135196895Y-77101979D01*
X135196895Y-77101979D02*
X135196895Y-77197217D01*
X135196895Y-77197217D02*
X135234990Y-77340074D01*
X135234990Y-77340074D02*
X135273085Y-77387693D01*
X135996895Y-78292455D02*
X135996895Y-77816265D01*
X135996895Y-77816265D02*
X135196895Y-77816265D01*
X206110704Y-76915312D02*
X206148800Y-76867693D01*
X206148800Y-76867693D02*
X206186895Y-76724836D01*
X206186895Y-76724836D02*
X206186895Y-76629598D01*
X206186895Y-76629598D02*
X206148800Y-76486741D01*
X206148800Y-76486741D02*
X206072609Y-76391503D01*
X206072609Y-76391503D02*
X205996419Y-76343884D01*
X205996419Y-76343884D02*
X205844038Y-76296265D01*
X205844038Y-76296265D02*
X205729752Y-76296265D01*
X205729752Y-76296265D02*
X205577371Y-76343884D01*
X205577371Y-76343884D02*
X205501180Y-76391503D01*
X205501180Y-76391503D02*
X205424990Y-76486741D01*
X205424990Y-76486741D02*
X205386895Y-76629598D01*
X205386895Y-76629598D02*
X205386895Y-76724836D01*
X205386895Y-76724836D02*
X205424990Y-76867693D01*
X205424990Y-76867693D02*
X205463085Y-76915312D01*
X206148800Y-77296265D02*
X206186895Y-77439122D01*
X206186895Y-77439122D02*
X206186895Y-77677217D01*
X206186895Y-77677217D02*
X206148800Y-77772455D01*
X206148800Y-77772455D02*
X206110704Y-77820074D01*
X206110704Y-77820074D02*
X206034514Y-77867693D01*
X206034514Y-77867693D02*
X205958323Y-77867693D01*
X205958323Y-77867693D02*
X205882133Y-77820074D01*
X205882133Y-77820074D02*
X205844038Y-77772455D01*
X205844038Y-77772455D02*
X205805942Y-77677217D01*
X205805942Y-77677217D02*
X205767847Y-77486741D01*
X205767847Y-77486741D02*
X205729752Y-77391503D01*
X205729752Y-77391503D02*
X205691657Y-77343884D01*
X205691657Y-77343884D02*
X205615466Y-77296265D01*
X205615466Y-77296265D02*
X205539276Y-77296265D01*
X205539276Y-77296265D02*
X205463085Y-77343884D01*
X205463085Y-77343884D02*
X205424990Y-77391503D01*
X205424990Y-77391503D02*
X205386895Y-77486741D01*
X205386895Y-77486741D02*
X205386895Y-77724836D01*
X205386895Y-77724836D02*
X205424990Y-77867693D01*
X101476895Y-75771027D02*
X102276895Y-76104360D01*
X102276895Y-76104360D02*
X101476895Y-76437693D01*
X102200704Y-77342455D02*
X102238800Y-77294836D01*
X102238800Y-77294836D02*
X102276895Y-77151979D01*
X102276895Y-77151979D02*
X102276895Y-77056741D01*
X102276895Y-77056741D02*
X102238800Y-76913884D01*
X102238800Y-76913884D02*
X102162609Y-76818646D01*
X102162609Y-76818646D02*
X102086419Y-76771027D01*
X102086419Y-76771027D02*
X101934038Y-76723408D01*
X101934038Y-76723408D02*
X101819752Y-76723408D01*
X101819752Y-76723408D02*
X101667371Y-76771027D01*
X101667371Y-76771027D02*
X101591180Y-76818646D01*
X101591180Y-76818646D02*
X101514990Y-76913884D01*
X101514990Y-76913884D02*
X101476895Y-77056741D01*
X101476895Y-77056741D02*
X101476895Y-77151979D01*
X101476895Y-77151979D02*
X101514990Y-77294836D01*
X101514990Y-77294836D02*
X101553085Y-77342455D01*
X102200704Y-78342455D02*
X102238800Y-78294836D01*
X102238800Y-78294836D02*
X102276895Y-78151979D01*
X102276895Y-78151979D02*
X102276895Y-78056741D01*
X102276895Y-78056741D02*
X102238800Y-77913884D01*
X102238800Y-77913884D02*
X102162609Y-77818646D01*
X102162609Y-77818646D02*
X102086419Y-77771027D01*
X102086419Y-77771027D02*
X101934038Y-77723408D01*
X101934038Y-77723408D02*
X101819752Y-77723408D01*
X101819752Y-77723408D02*
X101667371Y-77771027D01*
X101667371Y-77771027D02*
X101591180Y-77818646D01*
X101591180Y-77818646D02*
X101514990Y-77913884D01*
X101514990Y-77913884D02*
X101476895Y-78056741D01*
X101476895Y-78056741D02*
X101476895Y-78151979D01*
X101476895Y-78151979D02*
X101514990Y-78294836D01*
X101514990Y-78294836D02*
X101553085Y-78342455D01*
D11*
X220271279Y-62333698D02*
X220056993Y-62395603D01*
X220056993Y-62395603D02*
X219985564Y-62457507D01*
X219985564Y-62457507D02*
X219914136Y-62581317D01*
X219914136Y-62581317D02*
X219914136Y-62767031D01*
X219914136Y-62767031D02*
X219985564Y-62890841D01*
X219985564Y-62890841D02*
X220056993Y-62952746D01*
X220056993Y-62952746D02*
X220199850Y-63014650D01*
X220199850Y-63014650D02*
X220771279Y-63014650D01*
X220771279Y-63014650D02*
X220771279Y-61714650D01*
X220771279Y-61714650D02*
X220271279Y-61714650D01*
X220271279Y-61714650D02*
X220128422Y-61776555D01*
X220128422Y-61776555D02*
X220056993Y-61838460D01*
X220056993Y-61838460D02*
X219985564Y-61962269D01*
X219985564Y-61962269D02*
X219985564Y-62086079D01*
X219985564Y-62086079D02*
X220056993Y-62209888D01*
X220056993Y-62209888D02*
X220128422Y-62271793D01*
X220128422Y-62271793D02*
X220271279Y-62333698D01*
X220271279Y-62333698D02*
X220771279Y-62333698D01*
X218628422Y-62147984D02*
X218628422Y-63014650D01*
X219271279Y-62147984D02*
X219271279Y-62828936D01*
X219271279Y-62828936D02*
X219199850Y-62952746D01*
X219199850Y-62952746D02*
X219056993Y-63014650D01*
X219056993Y-63014650D02*
X218842707Y-63014650D01*
X218842707Y-63014650D02*
X218699850Y-62952746D01*
X218699850Y-62952746D02*
X218628422Y-62890841D01*
X217914136Y-63014650D02*
X217914136Y-62147984D01*
X217914136Y-61714650D02*
X217985564Y-61776555D01*
X217985564Y-61776555D02*
X217914136Y-61838460D01*
X217914136Y-61838460D02*
X217842707Y-61776555D01*
X217842707Y-61776555D02*
X217914136Y-61714650D01*
X217914136Y-61714650D02*
X217914136Y-61838460D01*
X216985564Y-63014650D02*
X217128421Y-62952746D01*
X217128421Y-62952746D02*
X217199850Y-62828936D01*
X217199850Y-62828936D02*
X217199850Y-61714650D01*
X216628421Y-62147984D02*
X216056993Y-62147984D01*
X216414136Y-61714650D02*
X216414136Y-62828936D01*
X216414136Y-62828936D02*
X216342707Y-62952746D01*
X216342707Y-62952746D02*
X216199850Y-63014650D01*
X216199850Y-63014650D02*
X216056993Y-63014650D01*
X214485564Y-61652746D02*
X215771278Y-63324174D01*
X213128421Y-62890841D02*
X213199849Y-62952746D01*
X213199849Y-62952746D02*
X213414135Y-63014650D01*
X213414135Y-63014650D02*
X213556992Y-63014650D01*
X213556992Y-63014650D02*
X213771278Y-62952746D01*
X213771278Y-62952746D02*
X213914135Y-62828936D01*
X213914135Y-62828936D02*
X213985564Y-62705126D01*
X213985564Y-62705126D02*
X214056992Y-62457507D01*
X214056992Y-62457507D02*
X214056992Y-62271793D01*
X214056992Y-62271793D02*
X213985564Y-62024174D01*
X213985564Y-62024174D02*
X213914135Y-61900365D01*
X213914135Y-61900365D02*
X213771278Y-61776555D01*
X213771278Y-61776555D02*
X213556992Y-61714650D01*
X213556992Y-61714650D02*
X213414135Y-61714650D01*
X213414135Y-61714650D02*
X213199849Y-61776555D01*
X213199849Y-61776555D02*
X213128421Y-61838460D01*
X212271278Y-63014650D02*
X212414135Y-62952746D01*
X212414135Y-62952746D02*
X212485564Y-62890841D01*
X212485564Y-62890841D02*
X212556992Y-62767031D01*
X212556992Y-62767031D02*
X212556992Y-62395603D01*
X212556992Y-62395603D02*
X212485564Y-62271793D01*
X212485564Y-62271793D02*
X212414135Y-62209888D01*
X212414135Y-62209888D02*
X212271278Y-62147984D01*
X212271278Y-62147984D02*
X212056992Y-62147984D01*
X212056992Y-62147984D02*
X211914135Y-62209888D01*
X211914135Y-62209888D02*
X211842707Y-62271793D01*
X211842707Y-62271793D02*
X211771278Y-62395603D01*
X211771278Y-62395603D02*
X211771278Y-62767031D01*
X211771278Y-62767031D02*
X211842707Y-62890841D01*
X211842707Y-62890841D02*
X211914135Y-62952746D01*
X211914135Y-62952746D02*
X212056992Y-63014650D01*
X212056992Y-63014650D02*
X212271278Y-63014650D01*
X211128421Y-62147984D02*
X211128421Y-63014650D01*
X211128421Y-62271793D02*
X211056992Y-62209888D01*
X211056992Y-62209888D02*
X210914135Y-62147984D01*
X210914135Y-62147984D02*
X210699849Y-62147984D01*
X210699849Y-62147984D02*
X210556992Y-62209888D01*
X210556992Y-62209888D02*
X210485564Y-62333698D01*
X210485564Y-62333698D02*
X210485564Y-63014650D01*
X209985563Y-62147984D02*
X209414135Y-62147984D01*
X209771278Y-61714650D02*
X209771278Y-62828936D01*
X209771278Y-62828936D02*
X209699849Y-62952746D01*
X209699849Y-62952746D02*
X209556992Y-63014650D01*
X209556992Y-63014650D02*
X209414135Y-63014650D01*
X208914135Y-63014650D02*
X208914135Y-62147984D01*
X208914135Y-62395603D02*
X208842706Y-62271793D01*
X208842706Y-62271793D02*
X208771278Y-62209888D01*
X208771278Y-62209888D02*
X208628420Y-62147984D01*
X208628420Y-62147984D02*
X208485563Y-62147984D01*
X207985564Y-63014650D02*
X207985564Y-62147984D01*
X207985564Y-61714650D02*
X208056992Y-61776555D01*
X208056992Y-61776555D02*
X207985564Y-61838460D01*
X207985564Y-61838460D02*
X207914135Y-61776555D01*
X207914135Y-61776555D02*
X207985564Y-61714650D01*
X207985564Y-61714650D02*
X207985564Y-61838460D01*
X207271278Y-63014650D02*
X207271278Y-61714650D01*
X207271278Y-62209888D02*
X207128421Y-62147984D01*
X207128421Y-62147984D02*
X206842706Y-62147984D01*
X206842706Y-62147984D02*
X206699849Y-62209888D01*
X206699849Y-62209888D02*
X206628421Y-62271793D01*
X206628421Y-62271793D02*
X206556992Y-62395603D01*
X206556992Y-62395603D02*
X206556992Y-62767031D01*
X206556992Y-62767031D02*
X206628421Y-62890841D01*
X206628421Y-62890841D02*
X206699849Y-62952746D01*
X206699849Y-62952746D02*
X206842706Y-63014650D01*
X206842706Y-63014650D02*
X207128421Y-63014650D01*
X207128421Y-63014650D02*
X207271278Y-62952746D01*
X205271278Y-62147984D02*
X205271278Y-63014650D01*
X205914135Y-62147984D02*
X205914135Y-62828936D01*
X205914135Y-62828936D02*
X205842706Y-62952746D01*
X205842706Y-62952746D02*
X205699849Y-63014650D01*
X205699849Y-63014650D02*
X205485563Y-63014650D01*
X205485563Y-63014650D02*
X205342706Y-62952746D01*
X205342706Y-62952746D02*
X205271278Y-62890841D01*
X204771277Y-62147984D02*
X204199849Y-62147984D01*
X204556992Y-61714650D02*
X204556992Y-62828936D01*
X204556992Y-62828936D02*
X204485563Y-62952746D01*
X204485563Y-62952746D02*
X204342706Y-63014650D01*
X204342706Y-63014650D02*
X204199849Y-63014650D01*
X203128420Y-62952746D02*
X203271277Y-63014650D01*
X203271277Y-63014650D02*
X203556992Y-63014650D01*
X203556992Y-63014650D02*
X203699849Y-62952746D01*
X203699849Y-62952746D02*
X203771277Y-62828936D01*
X203771277Y-62828936D02*
X203771277Y-62333698D01*
X203771277Y-62333698D02*
X203699849Y-62209888D01*
X203699849Y-62209888D02*
X203556992Y-62147984D01*
X203556992Y-62147984D02*
X203271277Y-62147984D01*
X203271277Y-62147984D02*
X203128420Y-62209888D01*
X203128420Y-62209888D02*
X203056992Y-62333698D01*
X203056992Y-62333698D02*
X203056992Y-62457507D01*
X203056992Y-62457507D02*
X203771277Y-62581317D01*
X201771278Y-63014650D02*
X201771278Y-61714650D01*
X201771278Y-62952746D02*
X201914135Y-63014650D01*
X201914135Y-63014650D02*
X202199849Y-63014650D01*
X202199849Y-63014650D02*
X202342706Y-62952746D01*
X202342706Y-62952746D02*
X202414135Y-62890841D01*
X202414135Y-62890841D02*
X202485563Y-62767031D01*
X202485563Y-62767031D02*
X202485563Y-62395603D01*
X202485563Y-62395603D02*
X202414135Y-62271793D01*
X202414135Y-62271793D02*
X202342706Y-62209888D01*
X202342706Y-62209888D02*
X202199849Y-62147984D01*
X202199849Y-62147984D02*
X201914135Y-62147984D01*
X201914135Y-62147984D02*
X201771278Y-62209888D01*
X200128420Y-62147984D02*
X199556992Y-62147984D01*
X199914135Y-61714650D02*
X199914135Y-62828936D01*
X199914135Y-62828936D02*
X199842706Y-62952746D01*
X199842706Y-62952746D02*
X199699849Y-63014650D01*
X199699849Y-63014650D02*
X199556992Y-63014650D01*
X198842706Y-63014650D02*
X198985563Y-62952746D01*
X198985563Y-62952746D02*
X199056992Y-62890841D01*
X199056992Y-62890841D02*
X199128420Y-62767031D01*
X199128420Y-62767031D02*
X199128420Y-62395603D01*
X199128420Y-62395603D02*
X199056992Y-62271793D01*
X199056992Y-62271793D02*
X198985563Y-62209888D01*
X198985563Y-62209888D02*
X198842706Y-62147984D01*
X198842706Y-62147984D02*
X198628420Y-62147984D01*
X198628420Y-62147984D02*
X198485563Y-62209888D01*
X198485563Y-62209888D02*
X198414135Y-62271793D01*
X198414135Y-62271793D02*
X198342706Y-62395603D01*
X198342706Y-62395603D02*
X198342706Y-62767031D01*
X198342706Y-62767031D02*
X198414135Y-62890841D01*
X198414135Y-62890841D02*
X198485563Y-62952746D01*
X198485563Y-62952746D02*
X198628420Y-63014650D01*
X198628420Y-63014650D02*
X198842706Y-63014650D01*
X196556992Y-63014650D02*
X196556992Y-61714650D01*
X196556992Y-62209888D02*
X196414135Y-62147984D01*
X196414135Y-62147984D02*
X196128420Y-62147984D01*
X196128420Y-62147984D02*
X195985563Y-62209888D01*
X195985563Y-62209888D02*
X195914135Y-62271793D01*
X195914135Y-62271793D02*
X195842706Y-62395603D01*
X195842706Y-62395603D02*
X195842706Y-62767031D01*
X195842706Y-62767031D02*
X195914135Y-62890841D01*
X195914135Y-62890841D02*
X195985563Y-62952746D01*
X195985563Y-62952746D02*
X196128420Y-63014650D01*
X196128420Y-63014650D02*
X196414135Y-63014650D01*
X196414135Y-63014650D02*
X196556992Y-62952746D01*
X195342706Y-62147984D02*
X194985563Y-63014650D01*
X194628420Y-62147984D02*
X194985563Y-63014650D01*
X194985563Y-63014650D02*
X195128420Y-63324174D01*
X195128420Y-63324174D02*
X195199849Y-63386079D01*
X195199849Y-63386079D02*
X195342706Y-63447984D01*
X194056992Y-62890841D02*
X193985563Y-62952746D01*
X193985563Y-62952746D02*
X194056992Y-63014650D01*
X194056992Y-63014650D02*
X194128420Y-62952746D01*
X194128420Y-62952746D02*
X194056992Y-62890841D01*
X194056992Y-62890841D02*
X194056992Y-63014650D01*
X194056992Y-62209888D02*
X193985563Y-62271793D01*
X193985563Y-62271793D02*
X194056992Y-62333698D01*
X194056992Y-62333698D02*
X194128420Y-62271793D01*
X194128420Y-62271793D02*
X194056992Y-62209888D01*
X194056992Y-62209888D02*
X194056992Y-62333698D01*
X220271279Y-64426625D02*
X220056993Y-64488530D01*
X220056993Y-64488530D02*
X219985564Y-64550434D01*
X219985564Y-64550434D02*
X219914136Y-64674244D01*
X219914136Y-64674244D02*
X219914136Y-64859958D01*
X219914136Y-64859958D02*
X219985564Y-64983768D01*
X219985564Y-64983768D02*
X220056993Y-65045673D01*
X220056993Y-65045673D02*
X220199850Y-65107577D01*
X220199850Y-65107577D02*
X220771279Y-65107577D01*
X220771279Y-65107577D02*
X220771279Y-63807577D01*
X220771279Y-63807577D02*
X220271279Y-63807577D01*
X220271279Y-63807577D02*
X220128422Y-63869482D01*
X220128422Y-63869482D02*
X220056993Y-63931387D01*
X220056993Y-63931387D02*
X219985564Y-64055196D01*
X219985564Y-64055196D02*
X219985564Y-64179006D01*
X219985564Y-64179006D02*
X220056993Y-64302815D01*
X220056993Y-64302815D02*
X220128422Y-64364720D01*
X220128422Y-64364720D02*
X220271279Y-64426625D01*
X220271279Y-64426625D02*
X220771279Y-64426625D01*
X219271279Y-65107577D02*
X219271279Y-64240911D01*
X219271279Y-64488530D02*
X219199850Y-64364720D01*
X219199850Y-64364720D02*
X219128422Y-64302815D01*
X219128422Y-64302815D02*
X218985564Y-64240911D01*
X218985564Y-64240911D02*
X218842707Y-64240911D01*
X217699851Y-65107577D02*
X217699851Y-64426625D01*
X217699851Y-64426625D02*
X217771279Y-64302815D01*
X217771279Y-64302815D02*
X217914136Y-64240911D01*
X217914136Y-64240911D02*
X218199851Y-64240911D01*
X218199851Y-64240911D02*
X218342708Y-64302815D01*
X217699851Y-65045673D02*
X217842708Y-65107577D01*
X217842708Y-65107577D02*
X218199851Y-65107577D01*
X218199851Y-65107577D02*
X218342708Y-65045673D01*
X218342708Y-65045673D02*
X218414136Y-64921863D01*
X218414136Y-64921863D02*
X218414136Y-64798053D01*
X218414136Y-64798053D02*
X218342708Y-64674244D01*
X218342708Y-64674244D02*
X218199851Y-64612339D01*
X218199851Y-64612339D02*
X217842708Y-64612339D01*
X217842708Y-64612339D02*
X217699851Y-64550434D01*
X216985565Y-65107577D02*
X216985565Y-64240911D01*
X216985565Y-64364720D02*
X216914136Y-64302815D01*
X216914136Y-64302815D02*
X216771279Y-64240911D01*
X216771279Y-64240911D02*
X216556993Y-64240911D01*
X216556993Y-64240911D02*
X216414136Y-64302815D01*
X216414136Y-64302815D02*
X216342708Y-64426625D01*
X216342708Y-64426625D02*
X216342708Y-65107577D01*
X216342708Y-64426625D02*
X216271279Y-64302815D01*
X216271279Y-64302815D02*
X216128422Y-64240911D01*
X216128422Y-64240911D02*
X215914136Y-64240911D01*
X215914136Y-64240911D02*
X215771279Y-64302815D01*
X215771279Y-64302815D02*
X215699850Y-64426625D01*
X215699850Y-64426625D02*
X215699850Y-65107577D01*
X214056993Y-63807577D02*
X213556993Y-65107577D01*
X213556993Y-65107577D02*
X213056993Y-63807577D01*
X211985565Y-65045673D02*
X212128422Y-65107577D01*
X212128422Y-65107577D02*
X212414137Y-65107577D01*
X212414137Y-65107577D02*
X212556994Y-65045673D01*
X212556994Y-65045673D02*
X212628422Y-64921863D01*
X212628422Y-64921863D02*
X212628422Y-64426625D01*
X212628422Y-64426625D02*
X212556994Y-64302815D01*
X212556994Y-64302815D02*
X212414137Y-64240911D01*
X212414137Y-64240911D02*
X212128422Y-64240911D01*
X212128422Y-64240911D02*
X211985565Y-64302815D01*
X211985565Y-64302815D02*
X211914137Y-64426625D01*
X211914137Y-64426625D02*
X211914137Y-64550434D01*
X211914137Y-64550434D02*
X212628422Y-64674244D01*
X211271280Y-65107577D02*
X211271280Y-64240911D01*
X211271280Y-64488530D02*
X211199851Y-64364720D01*
X211199851Y-64364720D02*
X211128423Y-64302815D01*
X211128423Y-64302815D02*
X210985565Y-64240911D01*
X210985565Y-64240911D02*
X210842708Y-64240911D01*
X210342709Y-65107577D02*
X210342709Y-63807577D01*
X209699852Y-65107577D02*
X209699852Y-64426625D01*
X209699852Y-64426625D02*
X209771280Y-64302815D01*
X209771280Y-64302815D02*
X209914137Y-64240911D01*
X209914137Y-64240911D02*
X210128423Y-64240911D01*
X210128423Y-64240911D02*
X210271280Y-64302815D01*
X210271280Y-64302815D02*
X210342709Y-64364720D01*
X208342709Y-64240911D02*
X208342709Y-65107577D01*
X208985566Y-64240911D02*
X208985566Y-64921863D01*
X208985566Y-64921863D02*
X208914137Y-65045673D01*
X208914137Y-65045673D02*
X208771280Y-65107577D01*
X208771280Y-65107577D02*
X208556994Y-65107577D01*
X208556994Y-65107577D02*
X208414137Y-65045673D01*
X208414137Y-65045673D02*
X208342709Y-64983768D01*
X207414137Y-65107577D02*
X207556994Y-65045673D01*
X207556994Y-65045673D02*
X207628423Y-64921863D01*
X207628423Y-64921863D02*
X207628423Y-63807577D01*
X206914137Y-65045673D02*
X206771280Y-65107577D01*
X206771280Y-65107577D02*
X206485566Y-65107577D01*
X206485566Y-65107577D02*
X206342709Y-65045673D01*
X206342709Y-65045673D02*
X206271280Y-64921863D01*
X206271280Y-64921863D02*
X206271280Y-64859958D01*
X206271280Y-64859958D02*
X206342709Y-64736149D01*
X206342709Y-64736149D02*
X206485566Y-64674244D01*
X206485566Y-64674244D02*
X206699852Y-64674244D01*
X206699852Y-64674244D02*
X206842709Y-64612339D01*
X206842709Y-64612339D02*
X206914137Y-64488530D01*
X206914137Y-64488530D02*
X206914137Y-64426625D01*
X206914137Y-64426625D02*
X206842709Y-64302815D01*
X206842709Y-64302815D02*
X206699852Y-64240911D01*
X206699852Y-64240911D02*
X206485566Y-64240911D01*
X206485566Y-64240911D02*
X206342709Y-64302815D01*
X205842708Y-64240911D02*
X205271280Y-64240911D01*
X205628423Y-63807577D02*
X205628423Y-64921863D01*
X205628423Y-64921863D02*
X205556994Y-65045673D01*
X205556994Y-65045673D02*
X205414137Y-65107577D01*
X205414137Y-65107577D02*
X205271280Y-65107577D01*
X204699851Y-65045673D02*
X204699851Y-65107577D01*
X204699851Y-65107577D02*
X204771280Y-65231387D01*
X204771280Y-65231387D02*
X204842708Y-65293292D01*
X202485565Y-63807577D02*
X202485565Y-64736149D01*
X202485565Y-64736149D02*
X202556994Y-64921863D01*
X202556994Y-64921863D02*
X202699851Y-65045673D01*
X202699851Y-65045673D02*
X202914137Y-65107577D01*
X202914137Y-65107577D02*
X203056994Y-65107577D01*
X201128423Y-65107577D02*
X201128423Y-64426625D01*
X201128423Y-64426625D02*
X201199851Y-64302815D01*
X201199851Y-64302815D02*
X201342708Y-64240911D01*
X201342708Y-64240911D02*
X201628423Y-64240911D01*
X201628423Y-64240911D02*
X201771280Y-64302815D01*
X201128423Y-65045673D02*
X201271280Y-65107577D01*
X201271280Y-65107577D02*
X201628423Y-65107577D01*
X201628423Y-65107577D02*
X201771280Y-65045673D01*
X201771280Y-65045673D02*
X201842708Y-64921863D01*
X201842708Y-64921863D02*
X201842708Y-64798053D01*
X201842708Y-64798053D02*
X201771280Y-64674244D01*
X201771280Y-64674244D02*
X201628423Y-64612339D01*
X201628423Y-64612339D02*
X201271280Y-64612339D01*
X201271280Y-64612339D02*
X201128423Y-64550434D01*
X199842708Y-65045673D02*
X199985565Y-65107577D01*
X199985565Y-65107577D02*
X200271280Y-65107577D01*
X200271280Y-65107577D02*
X200414137Y-65045673D01*
X200414137Y-65045673D02*
X200485565Y-64921863D01*
X200485565Y-64921863D02*
X200485565Y-64426625D01*
X200485565Y-64426625D02*
X200414137Y-64302815D01*
X200414137Y-64302815D02*
X200271280Y-64240911D01*
X200271280Y-64240911D02*
X199985565Y-64240911D01*
X199985565Y-64240911D02*
X199842708Y-64302815D01*
X199842708Y-64302815D02*
X199771280Y-64426625D01*
X199771280Y-64426625D02*
X199771280Y-64550434D01*
X199771280Y-64550434D02*
X200485565Y-64674244D01*
X197985566Y-65107577D02*
X197985566Y-63807577D01*
X197128423Y-65107577D02*
X197771280Y-64364720D01*
X197128423Y-63807577D02*
X197985566Y-64550434D01*
X196485566Y-65107577D02*
X196485566Y-64240911D01*
X196485566Y-63807577D02*
X196556994Y-63869482D01*
X196556994Y-63869482D02*
X196485566Y-63931387D01*
X196485566Y-63931387D02*
X196414137Y-63869482D01*
X196414137Y-63869482D02*
X196485566Y-63807577D01*
X196485566Y-63807577D02*
X196485566Y-63931387D01*
X195985565Y-64240911D02*
X195414137Y-64240911D01*
X195771280Y-63807577D02*
X195771280Y-64921863D01*
X195771280Y-64921863D02*
X195699851Y-65045673D01*
X195699851Y-65045673D02*
X195556994Y-65107577D01*
X195556994Y-65107577D02*
X195414137Y-65107577D01*
X194271280Y-65045673D02*
X194414137Y-65107577D01*
X194414137Y-65107577D02*
X194699851Y-65107577D01*
X194699851Y-65107577D02*
X194842708Y-65045673D01*
X194842708Y-65045673D02*
X194914137Y-64983768D01*
X194914137Y-64983768D02*
X194985565Y-64859958D01*
X194985565Y-64859958D02*
X194985565Y-64488530D01*
X194985565Y-64488530D02*
X194914137Y-64364720D01*
X194914137Y-64364720D02*
X194842708Y-64302815D01*
X194842708Y-64302815D02*
X194699851Y-64240911D01*
X194699851Y-64240911D02*
X194414137Y-64240911D01*
X194414137Y-64240911D02*
X194271280Y-64302815D01*
X193628423Y-65107577D02*
X193628423Y-63807577D01*
X192985566Y-65107577D02*
X192985566Y-64426625D01*
X192985566Y-64426625D02*
X193056994Y-64302815D01*
X193056994Y-64302815D02*
X193199851Y-64240911D01*
X193199851Y-64240911D02*
X193414137Y-64240911D01*
X193414137Y-64240911D02*
X193556994Y-64302815D01*
X193556994Y-64302815D02*
X193628423Y-64364720D01*
X191699851Y-65045673D02*
X191842708Y-65107577D01*
X191842708Y-65107577D02*
X192128423Y-65107577D01*
X192128423Y-65107577D02*
X192271280Y-65045673D01*
X192271280Y-65045673D02*
X192342708Y-64921863D01*
X192342708Y-64921863D02*
X192342708Y-64426625D01*
X192342708Y-64426625D02*
X192271280Y-64302815D01*
X192271280Y-64302815D02*
X192128423Y-64240911D01*
X192128423Y-64240911D02*
X191842708Y-64240911D01*
X191842708Y-64240911D02*
X191699851Y-64302815D01*
X191699851Y-64302815D02*
X191628423Y-64426625D01*
X191628423Y-64426625D02*
X191628423Y-64550434D01*
X191628423Y-64550434D02*
X192342708Y-64674244D01*
X190985566Y-64240911D02*
X190985566Y-65107577D01*
X190985566Y-64364720D02*
X190914137Y-64302815D01*
X190914137Y-64302815D02*
X190771280Y-64240911D01*
X190771280Y-64240911D02*
X190556994Y-64240911D01*
X190556994Y-64240911D02*
X190414137Y-64302815D01*
X190414137Y-64302815D02*
X190342709Y-64426625D01*
X190342709Y-64426625D02*
X190342709Y-65107577D01*
X189699851Y-65045673D02*
X189556994Y-65107577D01*
X189556994Y-65107577D02*
X189271280Y-65107577D01*
X189271280Y-65107577D02*
X189128423Y-65045673D01*
X189128423Y-65045673D02*
X189056994Y-64921863D01*
X189056994Y-64921863D02*
X189056994Y-64859958D01*
X189056994Y-64859958D02*
X189128423Y-64736149D01*
X189128423Y-64736149D02*
X189271280Y-64674244D01*
X189271280Y-64674244D02*
X189485566Y-64674244D01*
X189485566Y-64674244D02*
X189628423Y-64612339D01*
X189628423Y-64612339D02*
X189699851Y-64488530D01*
X189699851Y-64488530D02*
X189699851Y-64426625D01*
X189699851Y-64426625D02*
X189628423Y-64302815D01*
X189628423Y-64302815D02*
X189485566Y-64240911D01*
X189485566Y-64240911D02*
X189271280Y-64240911D01*
X189271280Y-64240911D02*
X189128423Y-64302815D01*
X188342708Y-65045673D02*
X188342708Y-65107577D01*
X188342708Y-65107577D02*
X188414137Y-65231387D01*
X188414137Y-65231387D02*
X188485565Y-65293292D01*
X186556994Y-65107577D02*
X186556994Y-63807577D01*
X186556994Y-63807577D02*
X185699851Y-65107577D01*
X185699851Y-65107577D02*
X185699851Y-63807577D01*
X184771279Y-65107577D02*
X184914136Y-65045673D01*
X184914136Y-65045673D02*
X184985565Y-64983768D01*
X184985565Y-64983768D02*
X185056993Y-64859958D01*
X185056993Y-64859958D02*
X185056993Y-64488530D01*
X185056993Y-64488530D02*
X184985565Y-64364720D01*
X184985565Y-64364720D02*
X184914136Y-64302815D01*
X184914136Y-64302815D02*
X184771279Y-64240911D01*
X184771279Y-64240911D02*
X184556993Y-64240911D01*
X184556993Y-64240911D02*
X184414136Y-64302815D01*
X184414136Y-64302815D02*
X184342708Y-64364720D01*
X184342708Y-64364720D02*
X184271279Y-64488530D01*
X184271279Y-64488530D02*
X184271279Y-64859958D01*
X184271279Y-64859958D02*
X184342708Y-64983768D01*
X184342708Y-64983768D02*
X184414136Y-65045673D01*
X184414136Y-65045673D02*
X184556993Y-65107577D01*
X184556993Y-65107577D02*
X184771279Y-65107577D01*
X182985565Y-65107577D02*
X182985565Y-64426625D01*
X182985565Y-64426625D02*
X183056993Y-64302815D01*
X183056993Y-64302815D02*
X183199850Y-64240911D01*
X183199850Y-64240911D02*
X183485565Y-64240911D01*
X183485565Y-64240911D02*
X183628422Y-64302815D01*
X182985565Y-65045673D02*
X183128422Y-65107577D01*
X183128422Y-65107577D02*
X183485565Y-65107577D01*
X183485565Y-65107577D02*
X183628422Y-65045673D01*
X183628422Y-65045673D02*
X183699850Y-64921863D01*
X183699850Y-64921863D02*
X183699850Y-64798053D01*
X183699850Y-64798053D02*
X183628422Y-64674244D01*
X183628422Y-64674244D02*
X183485565Y-64612339D01*
X183485565Y-64612339D02*
X183128422Y-64612339D01*
X183128422Y-64612339D02*
X182985565Y-64550434D01*
X182271279Y-65107577D02*
X182271279Y-63807577D01*
X181628422Y-65107577D02*
X181628422Y-64426625D01*
X181628422Y-64426625D02*
X181699850Y-64302815D01*
X181699850Y-64302815D02*
X181842707Y-64240911D01*
X181842707Y-64240911D02*
X182056993Y-64240911D01*
X182056993Y-64240911D02*
X182199850Y-64302815D01*
X182199850Y-64302815D02*
X182271279Y-64364720D01*
X179771279Y-65107577D02*
X179771279Y-63807577D01*
X179771279Y-63807577D02*
X179199850Y-63807577D01*
X179199850Y-63807577D02*
X179056993Y-63869482D01*
X179056993Y-63869482D02*
X178985564Y-63931387D01*
X178985564Y-63931387D02*
X178914136Y-64055196D01*
X178914136Y-64055196D02*
X178914136Y-64240911D01*
X178914136Y-64240911D02*
X178985564Y-64364720D01*
X178985564Y-64364720D02*
X179056993Y-64426625D01*
X179056993Y-64426625D02*
X179199850Y-64488530D01*
X179199850Y-64488530D02*
X179771279Y-64488530D01*
X178271279Y-65107577D02*
X178271279Y-64240911D01*
X178271279Y-63807577D02*
X178342707Y-63869482D01*
X178342707Y-63869482D02*
X178271279Y-63931387D01*
X178271279Y-63931387D02*
X178199850Y-63869482D01*
X178199850Y-63869482D02*
X178271279Y-63807577D01*
X178271279Y-63807577D02*
X178271279Y-63931387D01*
X176914136Y-64240911D02*
X176914136Y-65540911D01*
X176914136Y-65045673D02*
X177056993Y-65107577D01*
X177056993Y-65107577D02*
X177342707Y-65107577D01*
X177342707Y-65107577D02*
X177485564Y-65045673D01*
X177485564Y-65045673D02*
X177556993Y-64983768D01*
X177556993Y-64983768D02*
X177628421Y-64859958D01*
X177628421Y-64859958D02*
X177628421Y-64488530D01*
X177628421Y-64488530D02*
X177556993Y-64364720D01*
X177556993Y-64364720D02*
X177485564Y-64302815D01*
X177485564Y-64302815D02*
X177342707Y-64240911D01*
X177342707Y-64240911D02*
X177056993Y-64240911D01*
X177056993Y-64240911D02*
X176914136Y-64302815D01*
X175556993Y-64240911D02*
X175556993Y-65107577D01*
X176199850Y-64240911D02*
X176199850Y-64921863D01*
X176199850Y-64921863D02*
X176128421Y-65045673D01*
X176128421Y-65045673D02*
X175985564Y-65107577D01*
X175985564Y-65107577D02*
X175771278Y-65107577D01*
X175771278Y-65107577D02*
X175628421Y-65045673D01*
X175628421Y-65045673D02*
X175556993Y-64983768D01*
X174271278Y-65045673D02*
X174414135Y-65107577D01*
X174414135Y-65107577D02*
X174699850Y-65107577D01*
X174699850Y-65107577D02*
X174842707Y-65045673D01*
X174842707Y-65045673D02*
X174914135Y-64921863D01*
X174914135Y-64921863D02*
X174914135Y-64426625D01*
X174914135Y-64426625D02*
X174842707Y-64302815D01*
X174842707Y-64302815D02*
X174699850Y-64240911D01*
X174699850Y-64240911D02*
X174414135Y-64240911D01*
X174414135Y-64240911D02*
X174271278Y-64302815D01*
X174271278Y-64302815D02*
X174199850Y-64426625D01*
X174199850Y-64426625D02*
X174199850Y-64550434D01*
X174199850Y-64550434D02*
X174914135Y-64674244D01*
X174414135Y-63745673D02*
X174628421Y-63931387D01*
X173485564Y-65045673D02*
X173485564Y-65107577D01*
X173485564Y-65107577D02*
X173556993Y-65231387D01*
X173556993Y-65231387D02*
X173628421Y-65293292D01*
X220771279Y-66519552D02*
X220271279Y-66519552D01*
X220056993Y-67200504D02*
X220771279Y-67200504D01*
X220771279Y-67200504D02*
X220771279Y-65900504D01*
X220771279Y-65900504D02*
X220056993Y-65900504D01*
X219414136Y-67200504D02*
X219414136Y-66333838D01*
X219414136Y-66581457D02*
X219342707Y-66457647D01*
X219342707Y-66457647D02*
X219271279Y-66395742D01*
X219271279Y-66395742D02*
X219128421Y-66333838D01*
X219128421Y-66333838D02*
X218985564Y-66333838D01*
X218485565Y-67200504D02*
X218485565Y-66333838D01*
X218485565Y-65900504D02*
X218556993Y-65962409D01*
X218556993Y-65962409D02*
X218485565Y-66024314D01*
X218485565Y-66024314D02*
X218414136Y-65962409D01*
X218414136Y-65962409D02*
X218485565Y-65900504D01*
X218485565Y-65900504D02*
X218485565Y-66024314D01*
X217128422Y-67138600D02*
X217271279Y-67200504D01*
X217271279Y-67200504D02*
X217556993Y-67200504D01*
X217556993Y-67200504D02*
X217699850Y-67138600D01*
X217699850Y-67138600D02*
X217771279Y-67076695D01*
X217771279Y-67076695D02*
X217842707Y-66952885D01*
X217842707Y-66952885D02*
X217842707Y-66581457D01*
X217842707Y-66581457D02*
X217771279Y-66457647D01*
X217771279Y-66457647D02*
X217699850Y-66395742D01*
X217699850Y-66395742D02*
X217556993Y-66333838D01*
X217556993Y-66333838D02*
X217271279Y-66333838D01*
X217271279Y-66333838D02*
X217128422Y-66395742D01*
X215556993Y-65900504D02*
X214699851Y-65900504D01*
X215128422Y-67200504D02*
X215128422Y-65900504D01*
X214199851Y-67200504D02*
X214199851Y-65900504D01*
X213556994Y-67200504D02*
X213556994Y-66519552D01*
X213556994Y-66519552D02*
X213628422Y-66395742D01*
X213628422Y-66395742D02*
X213771279Y-66333838D01*
X213771279Y-66333838D02*
X213985565Y-66333838D01*
X213985565Y-66333838D02*
X214128422Y-66395742D01*
X214128422Y-66395742D02*
X214199851Y-66457647D01*
X212271279Y-67138600D02*
X212414136Y-67200504D01*
X212414136Y-67200504D02*
X212699851Y-67200504D01*
X212699851Y-67200504D02*
X212842708Y-67138600D01*
X212842708Y-67138600D02*
X212914136Y-67014790D01*
X212914136Y-67014790D02*
X212914136Y-66519552D01*
X212914136Y-66519552D02*
X212842708Y-66395742D01*
X212842708Y-66395742D02*
X212699851Y-66333838D01*
X212699851Y-66333838D02*
X212414136Y-66333838D01*
X212414136Y-66333838D02*
X212271279Y-66395742D01*
X212271279Y-66395742D02*
X212199851Y-66519552D01*
X212199851Y-66519552D02*
X212199851Y-66643361D01*
X212199851Y-66643361D02*
X212914136Y-66767171D01*
X211342708Y-67200504D02*
X211485565Y-67138600D01*
X211485565Y-67138600D02*
X211556994Y-67014790D01*
X211556994Y-67014790D02*
X211556994Y-65900504D01*
X210771280Y-67200504D02*
X210771280Y-66333838D01*
X210771280Y-65900504D02*
X210842708Y-65962409D01*
X210842708Y-65962409D02*
X210771280Y-66024314D01*
X210771280Y-66024314D02*
X210699851Y-65962409D01*
X210699851Y-65962409D02*
X210771280Y-65900504D01*
X210771280Y-65900504D02*
X210771280Y-66024314D01*
X210056994Y-66333838D02*
X210056994Y-67200504D01*
X210056994Y-66457647D02*
X209985565Y-66395742D01*
X209985565Y-66395742D02*
X209842708Y-66333838D01*
X209842708Y-66333838D02*
X209628422Y-66333838D01*
X209628422Y-66333838D02*
X209485565Y-66395742D01*
X209485565Y-66395742D02*
X209414137Y-66519552D01*
X209414137Y-66519552D02*
X209414137Y-67200504D01*
X208628422Y-67138600D02*
X208628422Y-67200504D01*
X208628422Y-67200504D02*
X208699851Y-67324314D01*
X208699851Y-67324314D02*
X208771279Y-67386219D01*
X206842708Y-67200504D02*
X206842708Y-65900504D01*
X206842708Y-65900504D02*
X206485565Y-65900504D01*
X206485565Y-65900504D02*
X206271279Y-65962409D01*
X206271279Y-65962409D02*
X206128422Y-66086219D01*
X206128422Y-66086219D02*
X206056993Y-66210028D01*
X206056993Y-66210028D02*
X205985565Y-66457647D01*
X205985565Y-66457647D02*
X205985565Y-66643361D01*
X205985565Y-66643361D02*
X206056993Y-66890980D01*
X206056993Y-66890980D02*
X206128422Y-67014790D01*
X206128422Y-67014790D02*
X206271279Y-67138600D01*
X206271279Y-67138600D02*
X206485565Y-67200504D01*
X206485565Y-67200504D02*
X206842708Y-67200504D01*
X204699851Y-67200504D02*
X204699851Y-66519552D01*
X204699851Y-66519552D02*
X204771279Y-66395742D01*
X204771279Y-66395742D02*
X204914136Y-66333838D01*
X204914136Y-66333838D02*
X205199851Y-66333838D01*
X205199851Y-66333838D02*
X205342708Y-66395742D01*
X204699851Y-67138600D02*
X204842708Y-67200504D01*
X204842708Y-67200504D02*
X205199851Y-67200504D01*
X205199851Y-67200504D02*
X205342708Y-67138600D01*
X205342708Y-67138600D02*
X205414136Y-67014790D01*
X205414136Y-67014790D02*
X205414136Y-66890980D01*
X205414136Y-66890980D02*
X205342708Y-66767171D01*
X205342708Y-66767171D02*
X205199851Y-66705266D01*
X205199851Y-66705266D02*
X204842708Y-66705266D01*
X204842708Y-66705266D02*
X204699851Y-66643361D01*
X204128422Y-66333838D02*
X203771279Y-67200504D01*
X203771279Y-67200504D02*
X203414136Y-66333838D01*
X202271279Y-67138600D02*
X202414136Y-67200504D01*
X202414136Y-67200504D02*
X202699851Y-67200504D01*
X202699851Y-67200504D02*
X202842708Y-67138600D01*
X202842708Y-67138600D02*
X202914136Y-67014790D01*
X202914136Y-67014790D02*
X202914136Y-66519552D01*
X202914136Y-66519552D02*
X202842708Y-66395742D01*
X202842708Y-66395742D02*
X202699851Y-66333838D01*
X202699851Y-66333838D02*
X202414136Y-66333838D01*
X202414136Y-66333838D02*
X202271279Y-66395742D01*
X202271279Y-66395742D02*
X202199851Y-66519552D01*
X202199851Y-66519552D02*
X202199851Y-66643361D01*
X202199851Y-66643361D02*
X202914136Y-66767171D01*
X201556994Y-67200504D02*
X201556994Y-66333838D01*
X201556994Y-66457647D02*
X201485565Y-66395742D01*
X201485565Y-66395742D02*
X201342708Y-66333838D01*
X201342708Y-66333838D02*
X201128422Y-66333838D01*
X201128422Y-66333838D02*
X200985565Y-66395742D01*
X200985565Y-66395742D02*
X200914137Y-66519552D01*
X200914137Y-66519552D02*
X200914137Y-67200504D01*
X200914137Y-66519552D02*
X200842708Y-66395742D01*
X200842708Y-66395742D02*
X200699851Y-66333838D01*
X200699851Y-66333838D02*
X200485565Y-66333838D01*
X200485565Y-66333838D02*
X200342708Y-66395742D01*
X200342708Y-66395742D02*
X200271279Y-66519552D01*
X200271279Y-66519552D02*
X200271279Y-67200504D01*
X198914137Y-67200504D02*
X198914137Y-66519552D01*
X198914137Y-66519552D02*
X198985565Y-66395742D01*
X198985565Y-66395742D02*
X199128422Y-66333838D01*
X199128422Y-66333838D02*
X199414137Y-66333838D01*
X199414137Y-66333838D02*
X199556994Y-66395742D01*
X198914137Y-67138600D02*
X199056994Y-67200504D01*
X199056994Y-67200504D02*
X199414137Y-67200504D01*
X199414137Y-67200504D02*
X199556994Y-67138600D01*
X199556994Y-67138600D02*
X199628422Y-67014790D01*
X199628422Y-67014790D02*
X199628422Y-66890980D01*
X199628422Y-66890980D02*
X199556994Y-66767171D01*
X199556994Y-66767171D02*
X199414137Y-66705266D01*
X199414137Y-66705266D02*
X199056994Y-66705266D01*
X199056994Y-66705266D02*
X198914137Y-66643361D01*
X198199851Y-66333838D02*
X198199851Y-67200504D01*
X198199851Y-66457647D02*
X198128422Y-66395742D01*
X198128422Y-66395742D02*
X197985565Y-66333838D01*
X197985565Y-66333838D02*
X197771279Y-66333838D01*
X197771279Y-66333838D02*
X197628422Y-66395742D01*
X197628422Y-66395742D02*
X197556994Y-66519552D01*
X197556994Y-66519552D02*
X197556994Y-67200504D01*
X196199851Y-67138600D02*
X196342708Y-67200504D01*
X196342708Y-67200504D02*
X196628422Y-67200504D01*
X196628422Y-67200504D02*
X196771279Y-67138600D01*
X196771279Y-67138600D02*
X196842708Y-67076695D01*
X196842708Y-67076695D02*
X196914136Y-66952885D01*
X196914136Y-66952885D02*
X196914136Y-66581457D01*
X196914136Y-66581457D02*
X196842708Y-66457647D01*
X196842708Y-66457647D02*
X196771279Y-66395742D01*
X196771279Y-66395742D02*
X196628422Y-66333838D01*
X196628422Y-66333838D02*
X196342708Y-66333838D01*
X196342708Y-66333838D02*
X196199851Y-66395742D01*
X195556994Y-67200504D02*
X195556994Y-65900504D01*
X194914137Y-67200504D02*
X194914137Y-66519552D01*
X194914137Y-66519552D02*
X194985565Y-66395742D01*
X194985565Y-66395742D02*
X195128422Y-66333838D01*
X195128422Y-66333838D02*
X195342708Y-66333838D01*
X195342708Y-66333838D02*
X195485565Y-66395742D01*
X195485565Y-66395742D02*
X195556994Y-66457647D01*
X193556994Y-67200504D02*
X193556994Y-66519552D01*
X193556994Y-66519552D02*
X193628422Y-66395742D01*
X193628422Y-66395742D02*
X193771279Y-66333838D01*
X193771279Y-66333838D02*
X194056994Y-66333838D01*
X194056994Y-66333838D02*
X194199851Y-66395742D01*
X193556994Y-67138600D02*
X193699851Y-67200504D01*
X193699851Y-67200504D02*
X194056994Y-67200504D01*
X194056994Y-67200504D02*
X194199851Y-67138600D01*
X194199851Y-67138600D02*
X194271279Y-67014790D01*
X194271279Y-67014790D02*
X194271279Y-66890980D01*
X194271279Y-66890980D02*
X194199851Y-66767171D01*
X194199851Y-66767171D02*
X194056994Y-66705266D01*
X194056994Y-66705266D02*
X193699851Y-66705266D01*
X193699851Y-66705266D02*
X193556994Y-66643361D01*
X192842708Y-66333838D02*
X192842708Y-67633838D01*
X192842708Y-66395742D02*
X192699851Y-66333838D01*
X192699851Y-66333838D02*
X192414136Y-66333838D01*
X192414136Y-66333838D02*
X192271279Y-66395742D01*
X192271279Y-66395742D02*
X192199851Y-66457647D01*
X192199851Y-66457647D02*
X192128422Y-66581457D01*
X192128422Y-66581457D02*
X192128422Y-66952885D01*
X192128422Y-66952885D02*
X192199851Y-67076695D01*
X192199851Y-67076695D02*
X192271279Y-67138600D01*
X192271279Y-67138600D02*
X192414136Y-67200504D01*
X192414136Y-67200504D02*
X192699851Y-67200504D01*
X192699851Y-67200504D02*
X192842708Y-67138600D01*
X191414136Y-67138600D02*
X191414136Y-67200504D01*
X191414136Y-67200504D02*
X191485565Y-67324314D01*
X191485565Y-67324314D02*
X191556993Y-67386219D01*
X189628422Y-67200504D02*
X189628422Y-65900504D01*
X189628422Y-65900504D02*
X189271279Y-65900504D01*
X189271279Y-65900504D02*
X189056993Y-65962409D01*
X189056993Y-65962409D02*
X188914136Y-66086219D01*
X188914136Y-66086219D02*
X188842707Y-66210028D01*
X188842707Y-66210028D02*
X188771279Y-66457647D01*
X188771279Y-66457647D02*
X188771279Y-66643361D01*
X188771279Y-66643361D02*
X188842707Y-66890980D01*
X188842707Y-66890980D02*
X188914136Y-67014790D01*
X188914136Y-67014790D02*
X189056993Y-67138600D01*
X189056993Y-67138600D02*
X189271279Y-67200504D01*
X189271279Y-67200504D02*
X189628422Y-67200504D01*
X187485565Y-67200504D02*
X187485565Y-66519552D01*
X187485565Y-66519552D02*
X187556993Y-66395742D01*
X187556993Y-66395742D02*
X187699850Y-66333838D01*
X187699850Y-66333838D02*
X187985565Y-66333838D01*
X187985565Y-66333838D02*
X188128422Y-66395742D01*
X187485565Y-67138600D02*
X187628422Y-67200504D01*
X187628422Y-67200504D02*
X187985565Y-67200504D01*
X187985565Y-67200504D02*
X188128422Y-67138600D01*
X188128422Y-67138600D02*
X188199850Y-67014790D01*
X188199850Y-67014790D02*
X188199850Y-66890980D01*
X188199850Y-66890980D02*
X188128422Y-66767171D01*
X188128422Y-66767171D02*
X187985565Y-66705266D01*
X187985565Y-66705266D02*
X187628422Y-66705266D01*
X187628422Y-66705266D02*
X187485565Y-66643361D01*
X186771279Y-66333838D02*
X186771279Y-67200504D01*
X186771279Y-66457647D02*
X186699850Y-66395742D01*
X186699850Y-66395742D02*
X186556993Y-66333838D01*
X186556993Y-66333838D02*
X186342707Y-66333838D01*
X186342707Y-66333838D02*
X186199850Y-66395742D01*
X186199850Y-66395742D02*
X186128422Y-66519552D01*
X186128422Y-66519552D02*
X186128422Y-67200504D01*
X185414136Y-67200504D02*
X185414136Y-66333838D01*
X185414136Y-65900504D02*
X185485564Y-65962409D01*
X185485564Y-65962409D02*
X185414136Y-66024314D01*
X185414136Y-66024314D02*
X185342707Y-65962409D01*
X185342707Y-65962409D02*
X185414136Y-65900504D01*
X185414136Y-65900504D02*
X185414136Y-66024314D01*
X184128421Y-67138600D02*
X184271278Y-67200504D01*
X184271278Y-67200504D02*
X184556993Y-67200504D01*
X184556993Y-67200504D02*
X184699850Y-67138600D01*
X184699850Y-67138600D02*
X184771278Y-67014790D01*
X184771278Y-67014790D02*
X184771278Y-66519552D01*
X184771278Y-66519552D02*
X184699850Y-66395742D01*
X184699850Y-66395742D02*
X184556993Y-66333838D01*
X184556993Y-66333838D02*
X184271278Y-66333838D01*
X184271278Y-66333838D02*
X184128421Y-66395742D01*
X184128421Y-66395742D02*
X184056993Y-66519552D01*
X184056993Y-66519552D02*
X184056993Y-66643361D01*
X184056993Y-66643361D02*
X184771278Y-66767171D01*
X183199850Y-67200504D02*
X183342707Y-67138600D01*
X183342707Y-67138600D02*
X183414136Y-67014790D01*
X183414136Y-67014790D02*
X183414136Y-65900504D01*
X181556993Y-67138600D02*
X181342708Y-67200504D01*
X181342708Y-67200504D02*
X180985565Y-67200504D01*
X180985565Y-67200504D02*
X180842708Y-67138600D01*
X180842708Y-67138600D02*
X180771279Y-67076695D01*
X180771279Y-67076695D02*
X180699850Y-66952885D01*
X180699850Y-66952885D02*
X180699850Y-66829076D01*
X180699850Y-66829076D02*
X180771279Y-66705266D01*
X180771279Y-66705266D02*
X180842708Y-66643361D01*
X180842708Y-66643361D02*
X180985565Y-66581457D01*
X180985565Y-66581457D02*
X181271279Y-66519552D01*
X181271279Y-66519552D02*
X181414136Y-66457647D01*
X181414136Y-66457647D02*
X181485565Y-66395742D01*
X181485565Y-66395742D02*
X181556993Y-66271933D01*
X181556993Y-66271933D02*
X181556993Y-66148123D01*
X181556993Y-66148123D02*
X181485565Y-66024314D01*
X181485565Y-66024314D02*
X181414136Y-65962409D01*
X181414136Y-65962409D02*
X181271279Y-65900504D01*
X181271279Y-65900504D02*
X180914136Y-65900504D01*
X180914136Y-65900504D02*
X180699850Y-65962409D01*
X180056994Y-66333838D02*
X180056994Y-67633838D01*
X180056994Y-66395742D02*
X179914137Y-66333838D01*
X179914137Y-66333838D02*
X179628422Y-66333838D01*
X179628422Y-66333838D02*
X179485565Y-66395742D01*
X179485565Y-66395742D02*
X179414137Y-66457647D01*
X179414137Y-66457647D02*
X179342708Y-66581457D01*
X179342708Y-66581457D02*
X179342708Y-66952885D01*
X179342708Y-66952885D02*
X179414137Y-67076695D01*
X179414137Y-67076695D02*
X179485565Y-67138600D01*
X179485565Y-67138600D02*
X179628422Y-67200504D01*
X179628422Y-67200504D02*
X179914137Y-67200504D01*
X179914137Y-67200504D02*
X180056994Y-67138600D01*
X178699851Y-67200504D02*
X178699851Y-66333838D01*
X178699851Y-66581457D02*
X178628422Y-66457647D01*
X178628422Y-66457647D02*
X178556994Y-66395742D01*
X178556994Y-66395742D02*
X178414136Y-66333838D01*
X178414136Y-66333838D02*
X178271279Y-66333838D01*
X177771280Y-67200504D02*
X177771280Y-66333838D01*
X177771280Y-65900504D02*
X177842708Y-65962409D01*
X177842708Y-65962409D02*
X177771280Y-66024314D01*
X177771280Y-66024314D02*
X177699851Y-65962409D01*
X177699851Y-65962409D02*
X177771280Y-65900504D01*
X177771280Y-65900504D02*
X177771280Y-66024314D01*
X177056994Y-66333838D02*
X177056994Y-67200504D01*
X177056994Y-66457647D02*
X176985565Y-66395742D01*
X176985565Y-66395742D02*
X176842708Y-66333838D01*
X176842708Y-66333838D02*
X176628422Y-66333838D01*
X176628422Y-66333838D02*
X176485565Y-66395742D01*
X176485565Y-66395742D02*
X176414137Y-66519552D01*
X176414137Y-66519552D02*
X176414137Y-67200504D01*
X175056994Y-66333838D02*
X175056994Y-67386219D01*
X175056994Y-67386219D02*
X175128422Y-67510028D01*
X175128422Y-67510028D02*
X175199851Y-67571933D01*
X175199851Y-67571933D02*
X175342708Y-67633838D01*
X175342708Y-67633838D02*
X175556994Y-67633838D01*
X175556994Y-67633838D02*
X175699851Y-67571933D01*
X175056994Y-67138600D02*
X175199851Y-67200504D01*
X175199851Y-67200504D02*
X175485565Y-67200504D01*
X175485565Y-67200504D02*
X175628422Y-67138600D01*
X175628422Y-67138600D02*
X175699851Y-67076695D01*
X175699851Y-67076695D02*
X175771279Y-66952885D01*
X175771279Y-66952885D02*
X175771279Y-66581457D01*
X175771279Y-66581457D02*
X175699851Y-66457647D01*
X175699851Y-66457647D02*
X175628422Y-66395742D01*
X175628422Y-66395742D02*
X175485565Y-66333838D01*
X175485565Y-66333838D02*
X175199851Y-66333838D01*
X175199851Y-66333838D02*
X175056994Y-66395742D01*
X173771279Y-67138600D02*
X173914136Y-67200504D01*
X173914136Y-67200504D02*
X174199851Y-67200504D01*
X174199851Y-67200504D02*
X174342708Y-67138600D01*
X174342708Y-67138600D02*
X174414136Y-67014790D01*
X174414136Y-67014790D02*
X174414136Y-66519552D01*
X174414136Y-66519552D02*
X174342708Y-66395742D01*
X174342708Y-66395742D02*
X174199851Y-66333838D01*
X174199851Y-66333838D02*
X173914136Y-66333838D01*
X173914136Y-66333838D02*
X173771279Y-66395742D01*
X173771279Y-66395742D02*
X173699851Y-66519552D01*
X173699851Y-66519552D02*
X173699851Y-66643361D01*
X173699851Y-66643361D02*
X174414136Y-66767171D01*
X173056994Y-67200504D02*
X173056994Y-66333838D01*
X173056994Y-66581457D02*
X172985565Y-66457647D01*
X172985565Y-66457647D02*
X172914137Y-66395742D01*
X172914137Y-66395742D02*
X172771279Y-66333838D01*
X172771279Y-66333838D02*
X172628422Y-66333838D01*
D10*
X50180704Y-76785312D02*
X50218800Y-76737693D01*
X50218800Y-76737693D02*
X50256895Y-76594836D01*
X50256895Y-76594836D02*
X50256895Y-76499598D01*
X50256895Y-76499598D02*
X50218800Y-76356741D01*
X50218800Y-76356741D02*
X50142609Y-76261503D01*
X50142609Y-76261503D02*
X50066419Y-76213884D01*
X50066419Y-76213884D02*
X49914038Y-76166265D01*
X49914038Y-76166265D02*
X49799752Y-76166265D01*
X49799752Y-76166265D02*
X49647371Y-76213884D01*
X49647371Y-76213884D02*
X49571180Y-76261503D01*
X49571180Y-76261503D02*
X49494990Y-76356741D01*
X49494990Y-76356741D02*
X49456895Y-76499598D01*
X49456895Y-76499598D02*
X49456895Y-76594836D01*
X49456895Y-76594836D02*
X49494990Y-76737693D01*
X49494990Y-76737693D02*
X49533085Y-76785312D01*
X50218800Y-77166265D02*
X50256895Y-77309122D01*
X50256895Y-77309122D02*
X50256895Y-77547217D01*
X50256895Y-77547217D02*
X50218800Y-77642455D01*
X50218800Y-77642455D02*
X50180704Y-77690074D01*
X50180704Y-77690074D02*
X50104514Y-77737693D01*
X50104514Y-77737693D02*
X50028323Y-77737693D01*
X50028323Y-77737693D02*
X49952133Y-77690074D01*
X49952133Y-77690074D02*
X49914038Y-77642455D01*
X49914038Y-77642455D02*
X49875942Y-77547217D01*
X49875942Y-77547217D02*
X49837847Y-77356741D01*
X49837847Y-77356741D02*
X49799752Y-77261503D01*
X49799752Y-77261503D02*
X49761657Y-77213884D01*
X49761657Y-77213884D02*
X49685466Y-77166265D01*
X49685466Y-77166265D02*
X49609276Y-77166265D01*
X49609276Y-77166265D02*
X49533085Y-77213884D01*
X49533085Y-77213884D02*
X49494990Y-77261503D01*
X49494990Y-77261503D02*
X49456895Y-77356741D01*
X49456895Y-77356741D02*
X49456895Y-77594836D01*
X49456895Y-77594836D02*
X49494990Y-77737693D01*
X121876895Y-65120074D02*
X121876895Y-64643884D01*
X121876895Y-64643884D02*
X122257847Y-64596265D01*
X122257847Y-64596265D02*
X122219752Y-64643884D01*
X122219752Y-64643884D02*
X122181657Y-64739122D01*
X122181657Y-64739122D02*
X122181657Y-64977217D01*
X122181657Y-64977217D02*
X122219752Y-65072455D01*
X122219752Y-65072455D02*
X122257847Y-65120074D01*
X122257847Y-65120074D02*
X122334038Y-65167693D01*
X122334038Y-65167693D02*
X122524514Y-65167693D01*
X122524514Y-65167693D02*
X122600704Y-65120074D01*
X122600704Y-65120074D02*
X122638800Y-65072455D01*
X122638800Y-65072455D02*
X122676895Y-64977217D01*
X122676895Y-64977217D02*
X122676895Y-64739122D01*
X122676895Y-64739122D02*
X122638800Y-64643884D01*
X122638800Y-64643884D02*
X122600704Y-64596265D01*
X122143561Y-65501027D02*
X122676895Y-65739122D01*
X122676895Y-65739122D02*
X122143561Y-65977217D01*
X167100704Y-76955312D02*
X167138800Y-76907693D01*
X167138800Y-76907693D02*
X167176895Y-76764836D01*
X167176895Y-76764836D02*
X167176895Y-76669598D01*
X167176895Y-76669598D02*
X167138800Y-76526741D01*
X167138800Y-76526741D02*
X167062609Y-76431503D01*
X167062609Y-76431503D02*
X166986419Y-76383884D01*
X166986419Y-76383884D02*
X166834038Y-76336265D01*
X166834038Y-76336265D02*
X166719752Y-76336265D01*
X166719752Y-76336265D02*
X166567371Y-76383884D01*
X166567371Y-76383884D02*
X166491180Y-76431503D01*
X166491180Y-76431503D02*
X166414990Y-76526741D01*
X166414990Y-76526741D02*
X166376895Y-76669598D01*
X166376895Y-76669598D02*
X166376895Y-76764836D01*
X166376895Y-76764836D02*
X166414990Y-76907693D01*
X166414990Y-76907693D02*
X166453085Y-76955312D01*
X167138800Y-77336265D02*
X167176895Y-77479122D01*
X167176895Y-77479122D02*
X167176895Y-77717217D01*
X167176895Y-77717217D02*
X167138800Y-77812455D01*
X167138800Y-77812455D02*
X167100704Y-77860074D01*
X167100704Y-77860074D02*
X167024514Y-77907693D01*
X167024514Y-77907693D02*
X166948323Y-77907693D01*
X166948323Y-77907693D02*
X166872133Y-77860074D01*
X166872133Y-77860074D02*
X166834038Y-77812455D01*
X166834038Y-77812455D02*
X166795942Y-77717217D01*
X166795942Y-77717217D02*
X166757847Y-77526741D01*
X166757847Y-77526741D02*
X166719752Y-77431503D01*
X166719752Y-77431503D02*
X166681657Y-77383884D01*
X166681657Y-77383884D02*
X166605466Y-77336265D01*
X166605466Y-77336265D02*
X166529276Y-77336265D01*
X166529276Y-77336265D02*
X166453085Y-77383884D01*
X166453085Y-77383884D02*
X166414990Y-77431503D01*
X166414990Y-77431503D02*
X166376895Y-77526741D01*
X166376895Y-77526741D02*
X166376895Y-77764836D01*
X166376895Y-77764836D02*
X166414990Y-77907693D01*
X211408800Y-76296265D02*
X211446895Y-76439122D01*
X211446895Y-76439122D02*
X211446895Y-76677217D01*
X211446895Y-76677217D02*
X211408800Y-76772455D01*
X211408800Y-76772455D02*
X211370704Y-76820074D01*
X211370704Y-76820074D02*
X211294514Y-76867693D01*
X211294514Y-76867693D02*
X211218323Y-76867693D01*
X211218323Y-76867693D02*
X211142133Y-76820074D01*
X211142133Y-76820074D02*
X211104038Y-76772455D01*
X211104038Y-76772455D02*
X211065942Y-76677217D01*
X211065942Y-76677217D02*
X211027847Y-76486741D01*
X211027847Y-76486741D02*
X210989752Y-76391503D01*
X210989752Y-76391503D02*
X210951657Y-76343884D01*
X210951657Y-76343884D02*
X210875466Y-76296265D01*
X210875466Y-76296265D02*
X210799276Y-76296265D01*
X210799276Y-76296265D02*
X210723085Y-76343884D01*
X210723085Y-76343884D02*
X210684990Y-76391503D01*
X210684990Y-76391503D02*
X210646895Y-76486741D01*
X210646895Y-76486741D02*
X210646895Y-76724836D01*
X210646895Y-76724836D02*
X210684990Y-76867693D01*
X211446895Y-77296265D02*
X210646895Y-77296265D01*
X210646895Y-77296265D02*
X210646895Y-77534360D01*
X210646895Y-77534360D02*
X210684990Y-77677217D01*
X210684990Y-77677217D02*
X210761180Y-77772455D01*
X210761180Y-77772455D02*
X210837371Y-77820074D01*
X210837371Y-77820074D02*
X210989752Y-77867693D01*
X210989752Y-77867693D02*
X211104038Y-77867693D01*
X211104038Y-77867693D02*
X211256419Y-77820074D01*
X211256419Y-77820074D02*
X211332609Y-77772455D01*
X211332609Y-77772455D02*
X211408800Y-77677217D01*
X211408800Y-77677217D02*
X211446895Y-77534360D01*
X211446895Y-77534360D02*
X211446895Y-77296265D01*
X211218323Y-78248646D02*
X211218323Y-78724836D01*
X211446895Y-78153408D02*
X210646895Y-78486741D01*
X210646895Y-78486741D02*
X211446895Y-78820074D01*
X176754990Y-76717693D02*
X176716895Y-76622455D01*
X176716895Y-76622455D02*
X176716895Y-76479598D01*
X176716895Y-76479598D02*
X176754990Y-76336741D01*
X176754990Y-76336741D02*
X176831180Y-76241503D01*
X176831180Y-76241503D02*
X176907371Y-76193884D01*
X176907371Y-76193884D02*
X177059752Y-76146265D01*
X177059752Y-76146265D02*
X177174038Y-76146265D01*
X177174038Y-76146265D02*
X177326419Y-76193884D01*
X177326419Y-76193884D02*
X177402609Y-76241503D01*
X177402609Y-76241503D02*
X177478800Y-76336741D01*
X177478800Y-76336741D02*
X177516895Y-76479598D01*
X177516895Y-76479598D02*
X177516895Y-76574836D01*
X177516895Y-76574836D02*
X177478800Y-76717693D01*
X177478800Y-76717693D02*
X177440704Y-76765312D01*
X177440704Y-76765312D02*
X177174038Y-76765312D01*
X177174038Y-76765312D02*
X177174038Y-76574836D01*
X177516895Y-77193884D02*
X176716895Y-77193884D01*
X176716895Y-77193884D02*
X177516895Y-77765312D01*
X177516895Y-77765312D02*
X176716895Y-77765312D01*
X177516895Y-78241503D02*
X176716895Y-78241503D01*
X176716895Y-78241503D02*
X176716895Y-78479598D01*
X176716895Y-78479598D02*
X176754990Y-78622455D01*
X176754990Y-78622455D02*
X176831180Y-78717693D01*
X176831180Y-78717693D02*
X176907371Y-78765312D01*
X176907371Y-78765312D02*
X177059752Y-78812931D01*
X177059752Y-78812931D02*
X177174038Y-78812931D01*
X177174038Y-78812931D02*
X177326419Y-78765312D01*
X177326419Y-78765312D02*
X177402609Y-78717693D01*
X177402609Y-78717693D02*
X177478800Y-78622455D01*
X177478800Y-78622455D02*
X177516895Y-78479598D01*
X177516895Y-78479598D02*
X177516895Y-78241503D01*
X125776895Y-76565312D02*
X125395942Y-76231979D01*
X125776895Y-75993884D02*
X124976895Y-75993884D01*
X124976895Y-75993884D02*
X124976895Y-76374836D01*
X124976895Y-76374836D02*
X125014990Y-76470074D01*
X125014990Y-76470074D02*
X125053085Y-76517693D01*
X125053085Y-76517693D02*
X125129276Y-76565312D01*
X125129276Y-76565312D02*
X125243561Y-76565312D01*
X125243561Y-76565312D02*
X125319752Y-76517693D01*
X125319752Y-76517693D02*
X125357847Y-76470074D01*
X125357847Y-76470074D02*
X125395942Y-76374836D01*
X125395942Y-76374836D02*
X125395942Y-75993884D01*
X125738800Y-76946265D02*
X125776895Y-77089122D01*
X125776895Y-77089122D02*
X125776895Y-77327217D01*
X125776895Y-77327217D02*
X125738800Y-77422455D01*
X125738800Y-77422455D02*
X125700704Y-77470074D01*
X125700704Y-77470074D02*
X125624514Y-77517693D01*
X125624514Y-77517693D02*
X125548323Y-77517693D01*
X125548323Y-77517693D02*
X125472133Y-77470074D01*
X125472133Y-77470074D02*
X125434038Y-77422455D01*
X125434038Y-77422455D02*
X125395942Y-77327217D01*
X125395942Y-77327217D02*
X125357847Y-77136741D01*
X125357847Y-77136741D02*
X125319752Y-77041503D01*
X125319752Y-77041503D02*
X125281657Y-76993884D01*
X125281657Y-76993884D02*
X125205466Y-76946265D01*
X125205466Y-76946265D02*
X125129276Y-76946265D01*
X125129276Y-76946265D02*
X125053085Y-76993884D01*
X125053085Y-76993884D02*
X125014990Y-77041503D01*
X125014990Y-77041503D02*
X124976895Y-77136741D01*
X124976895Y-77136741D02*
X124976895Y-77374836D01*
X124976895Y-77374836D02*
X125014990Y-77517693D01*
X124976895Y-77803408D02*
X124976895Y-78374836D01*
X125776895Y-78089122D02*
X124976895Y-78089122D01*
X98964990Y-76337693D02*
X98926895Y-76242455D01*
X98926895Y-76242455D02*
X98926895Y-76099598D01*
X98926895Y-76099598D02*
X98964990Y-75956741D01*
X98964990Y-75956741D02*
X99041180Y-75861503D01*
X99041180Y-75861503D02*
X99117371Y-75813884D01*
X99117371Y-75813884D02*
X99269752Y-75766265D01*
X99269752Y-75766265D02*
X99384038Y-75766265D01*
X99384038Y-75766265D02*
X99536419Y-75813884D01*
X99536419Y-75813884D02*
X99612609Y-75861503D01*
X99612609Y-75861503D02*
X99688800Y-75956741D01*
X99688800Y-75956741D02*
X99726895Y-76099598D01*
X99726895Y-76099598D02*
X99726895Y-76194836D01*
X99726895Y-76194836D02*
X99688800Y-76337693D01*
X99688800Y-76337693D02*
X99650704Y-76385312D01*
X99650704Y-76385312D02*
X99384038Y-76385312D01*
X99384038Y-76385312D02*
X99384038Y-76194836D01*
X99726895Y-76813884D02*
X98926895Y-76813884D01*
X98926895Y-76813884D02*
X99726895Y-77385312D01*
X99726895Y-77385312D02*
X98926895Y-77385312D01*
X99726895Y-77861503D02*
X98926895Y-77861503D01*
X98926895Y-77861503D02*
X98926895Y-78099598D01*
X98926895Y-78099598D02*
X98964990Y-78242455D01*
X98964990Y-78242455D02*
X99041180Y-78337693D01*
X99041180Y-78337693D02*
X99117371Y-78385312D01*
X99117371Y-78385312D02*
X99269752Y-78432931D01*
X99269752Y-78432931D02*
X99384038Y-78432931D01*
X99384038Y-78432931D02*
X99536419Y-78385312D01*
X99536419Y-78385312D02*
X99612609Y-78337693D01*
X99612609Y-78337693D02*
X99688800Y-78242455D01*
X99688800Y-78242455D02*
X99726895Y-78099598D01*
X99726895Y-78099598D02*
X99726895Y-77861503D01*
X179266895Y-76151027D02*
X180066895Y-76484360D01*
X180066895Y-76484360D02*
X179266895Y-76817693D01*
X179990704Y-77722455D02*
X180028800Y-77674836D01*
X180028800Y-77674836D02*
X180066895Y-77531979D01*
X180066895Y-77531979D02*
X180066895Y-77436741D01*
X180066895Y-77436741D02*
X180028800Y-77293884D01*
X180028800Y-77293884D02*
X179952609Y-77198646D01*
X179952609Y-77198646D02*
X179876419Y-77151027D01*
X179876419Y-77151027D02*
X179724038Y-77103408D01*
X179724038Y-77103408D02*
X179609752Y-77103408D01*
X179609752Y-77103408D02*
X179457371Y-77151027D01*
X179457371Y-77151027D02*
X179381180Y-77198646D01*
X179381180Y-77198646D02*
X179304990Y-77293884D01*
X179304990Y-77293884D02*
X179266895Y-77436741D01*
X179266895Y-77436741D02*
X179266895Y-77531979D01*
X179266895Y-77531979D02*
X179304990Y-77674836D01*
X179304990Y-77674836D02*
X179343085Y-77722455D01*
X179990704Y-78722455D02*
X180028800Y-78674836D01*
X180028800Y-78674836D02*
X180066895Y-78531979D01*
X180066895Y-78531979D02*
X180066895Y-78436741D01*
X180066895Y-78436741D02*
X180028800Y-78293884D01*
X180028800Y-78293884D02*
X179952609Y-78198646D01*
X179952609Y-78198646D02*
X179876419Y-78151027D01*
X179876419Y-78151027D02*
X179724038Y-78103408D01*
X179724038Y-78103408D02*
X179609752Y-78103408D01*
X179609752Y-78103408D02*
X179457371Y-78151027D01*
X179457371Y-78151027D02*
X179381180Y-78198646D01*
X179381180Y-78198646D02*
X179304990Y-78293884D01*
X179304990Y-78293884D02*
X179266895Y-78436741D01*
X179266895Y-78436741D02*
X179266895Y-78531979D01*
X179266895Y-78531979D02*
X179304990Y-78674836D01*
X179304990Y-78674836D02*
X179343085Y-78722455D01*
X174878800Y-76206265D02*
X174916895Y-76349122D01*
X174916895Y-76349122D02*
X174916895Y-76587217D01*
X174916895Y-76587217D02*
X174878800Y-76682455D01*
X174878800Y-76682455D02*
X174840704Y-76730074D01*
X174840704Y-76730074D02*
X174764514Y-76777693D01*
X174764514Y-76777693D02*
X174688323Y-76777693D01*
X174688323Y-76777693D02*
X174612133Y-76730074D01*
X174612133Y-76730074D02*
X174574038Y-76682455D01*
X174574038Y-76682455D02*
X174535942Y-76587217D01*
X174535942Y-76587217D02*
X174497847Y-76396741D01*
X174497847Y-76396741D02*
X174459752Y-76301503D01*
X174459752Y-76301503D02*
X174421657Y-76253884D01*
X174421657Y-76253884D02*
X174345466Y-76206265D01*
X174345466Y-76206265D02*
X174269276Y-76206265D01*
X174269276Y-76206265D02*
X174193085Y-76253884D01*
X174193085Y-76253884D02*
X174154990Y-76301503D01*
X174154990Y-76301503D02*
X174116895Y-76396741D01*
X174116895Y-76396741D02*
X174116895Y-76634836D01*
X174116895Y-76634836D02*
X174154990Y-76777693D01*
X174840704Y-77777693D02*
X174878800Y-77730074D01*
X174878800Y-77730074D02*
X174916895Y-77587217D01*
X174916895Y-77587217D02*
X174916895Y-77491979D01*
X174916895Y-77491979D02*
X174878800Y-77349122D01*
X174878800Y-77349122D02*
X174802609Y-77253884D01*
X174802609Y-77253884D02*
X174726419Y-77206265D01*
X174726419Y-77206265D02*
X174574038Y-77158646D01*
X174574038Y-77158646D02*
X174459752Y-77158646D01*
X174459752Y-77158646D02*
X174307371Y-77206265D01*
X174307371Y-77206265D02*
X174231180Y-77253884D01*
X174231180Y-77253884D02*
X174154990Y-77349122D01*
X174154990Y-77349122D02*
X174116895Y-77491979D01*
X174116895Y-77491979D02*
X174116895Y-77587217D01*
X174116895Y-77587217D02*
X174154990Y-77730074D01*
X174154990Y-77730074D02*
X174193085Y-77777693D01*
X174916895Y-78682455D02*
X174916895Y-78206265D01*
X174916895Y-78206265D02*
X174116895Y-78206265D01*
X119486895Y-64428646D02*
X119486895Y-65047693D01*
X119486895Y-65047693D02*
X119791657Y-64714360D01*
X119791657Y-64714360D02*
X119791657Y-64857217D01*
X119791657Y-64857217D02*
X119829752Y-64952455D01*
X119829752Y-64952455D02*
X119867847Y-65000074D01*
X119867847Y-65000074D02*
X119944038Y-65047693D01*
X119944038Y-65047693D02*
X120134514Y-65047693D01*
X120134514Y-65047693D02*
X120210704Y-65000074D01*
X120210704Y-65000074D02*
X120248800Y-64952455D01*
X120248800Y-64952455D02*
X120286895Y-64857217D01*
X120286895Y-64857217D02*
X120286895Y-64571503D01*
X120286895Y-64571503D02*
X120248800Y-64476265D01*
X120248800Y-64476265D02*
X120210704Y-64428646D01*
X120210704Y-65476265D02*
X120248800Y-65523884D01*
X120248800Y-65523884D02*
X120286895Y-65476265D01*
X120286895Y-65476265D02*
X120248800Y-65428646D01*
X120248800Y-65428646D02*
X120210704Y-65476265D01*
X120210704Y-65476265D02*
X120286895Y-65476265D01*
X119486895Y-65857217D02*
X119486895Y-66476264D01*
X119486895Y-66476264D02*
X119791657Y-66142931D01*
X119791657Y-66142931D02*
X119791657Y-66285788D01*
X119791657Y-66285788D02*
X119829752Y-66381026D01*
X119829752Y-66381026D02*
X119867847Y-66428645D01*
X119867847Y-66428645D02*
X119944038Y-66476264D01*
X119944038Y-66476264D02*
X120134514Y-66476264D01*
X120134514Y-66476264D02*
X120210704Y-66428645D01*
X120210704Y-66428645D02*
X120248800Y-66381026D01*
X120248800Y-66381026D02*
X120286895Y-66285788D01*
X120286895Y-66285788D02*
X120286895Y-66000074D01*
X120286895Y-66000074D02*
X120248800Y-65904836D01*
X120248800Y-65904836D02*
X120210704Y-65857217D01*
X119753561Y-66809598D02*
X120286895Y-67047693D01*
X120286895Y-67047693D02*
X119753561Y-67285788D01*
X133478800Y-75946265D02*
X133516895Y-76089122D01*
X133516895Y-76089122D02*
X133516895Y-76327217D01*
X133516895Y-76327217D02*
X133478800Y-76422455D01*
X133478800Y-76422455D02*
X133440704Y-76470074D01*
X133440704Y-76470074D02*
X133364514Y-76517693D01*
X133364514Y-76517693D02*
X133288323Y-76517693D01*
X133288323Y-76517693D02*
X133212133Y-76470074D01*
X133212133Y-76470074D02*
X133174038Y-76422455D01*
X133174038Y-76422455D02*
X133135942Y-76327217D01*
X133135942Y-76327217D02*
X133097847Y-76136741D01*
X133097847Y-76136741D02*
X133059752Y-76041503D01*
X133059752Y-76041503D02*
X133021657Y-75993884D01*
X133021657Y-75993884D02*
X132945466Y-75946265D01*
X132945466Y-75946265D02*
X132869276Y-75946265D01*
X132869276Y-75946265D02*
X132793085Y-75993884D01*
X132793085Y-75993884D02*
X132754990Y-76041503D01*
X132754990Y-76041503D02*
X132716895Y-76136741D01*
X132716895Y-76136741D02*
X132716895Y-76374836D01*
X132716895Y-76374836D02*
X132754990Y-76517693D01*
X133516895Y-76946265D02*
X132716895Y-76946265D01*
X132716895Y-76946265D02*
X132716895Y-77184360D01*
X132716895Y-77184360D02*
X132754990Y-77327217D01*
X132754990Y-77327217D02*
X132831180Y-77422455D01*
X132831180Y-77422455D02*
X132907371Y-77470074D01*
X132907371Y-77470074D02*
X133059752Y-77517693D01*
X133059752Y-77517693D02*
X133174038Y-77517693D01*
X133174038Y-77517693D02*
X133326419Y-77470074D01*
X133326419Y-77470074D02*
X133402609Y-77422455D01*
X133402609Y-77422455D02*
X133478800Y-77327217D01*
X133478800Y-77327217D02*
X133516895Y-77184360D01*
X133516895Y-77184360D02*
X133516895Y-76946265D01*
X133288323Y-77898646D02*
X133288323Y-78374836D01*
X133516895Y-77803408D02*
X132716895Y-78136741D01*
X132716895Y-78136741D02*
X133516895Y-78470074D01*
X117074990Y-65187693D02*
X117036895Y-65092455D01*
X117036895Y-65092455D02*
X117036895Y-64949598D01*
X117036895Y-64949598D02*
X117074990Y-64806741D01*
X117074990Y-64806741D02*
X117151180Y-64711503D01*
X117151180Y-64711503D02*
X117227371Y-64663884D01*
X117227371Y-64663884D02*
X117379752Y-64616265D01*
X117379752Y-64616265D02*
X117494038Y-64616265D01*
X117494038Y-64616265D02*
X117646419Y-64663884D01*
X117646419Y-64663884D02*
X117722609Y-64711503D01*
X117722609Y-64711503D02*
X117798800Y-64806741D01*
X117798800Y-64806741D02*
X117836895Y-64949598D01*
X117836895Y-64949598D02*
X117836895Y-65044836D01*
X117836895Y-65044836D02*
X117798800Y-65187693D01*
X117798800Y-65187693D02*
X117760704Y-65235312D01*
X117760704Y-65235312D02*
X117494038Y-65235312D01*
X117494038Y-65235312D02*
X117494038Y-65044836D01*
X117836895Y-65663884D02*
X117036895Y-65663884D01*
X117036895Y-65663884D02*
X117836895Y-66235312D01*
X117836895Y-66235312D02*
X117036895Y-66235312D01*
X117836895Y-66711503D02*
X117036895Y-66711503D01*
X117036895Y-66711503D02*
X117036895Y-66949598D01*
X117036895Y-66949598D02*
X117074990Y-67092455D01*
X117074990Y-67092455D02*
X117151180Y-67187693D01*
X117151180Y-67187693D02*
X117227371Y-67235312D01*
X117227371Y-67235312D02*
X117379752Y-67282931D01*
X117379752Y-67282931D02*
X117494038Y-67282931D01*
X117494038Y-67282931D02*
X117646419Y-67235312D01*
X117646419Y-67235312D02*
X117722609Y-67187693D01*
X117722609Y-67187693D02*
X117798800Y-67092455D01*
X117798800Y-67092455D02*
X117836895Y-66949598D01*
X117836895Y-66949598D02*
X117836895Y-66711503D01*
X208846895Y-76403884D02*
X208046895Y-76403884D01*
X208046895Y-76403884D02*
X208046895Y-76641979D01*
X208046895Y-76641979D02*
X208084990Y-76784836D01*
X208084990Y-76784836D02*
X208161180Y-76880074D01*
X208161180Y-76880074D02*
X208237371Y-76927693D01*
X208237371Y-76927693D02*
X208389752Y-76975312D01*
X208389752Y-76975312D02*
X208504038Y-76975312D01*
X208504038Y-76975312D02*
X208656419Y-76927693D01*
X208656419Y-76927693D02*
X208732609Y-76880074D01*
X208732609Y-76880074D02*
X208808800Y-76784836D01*
X208808800Y-76784836D02*
X208846895Y-76641979D01*
X208846895Y-76641979D02*
X208846895Y-76403884D01*
X208770704Y-77975312D02*
X208808800Y-77927693D01*
X208808800Y-77927693D02*
X208846895Y-77784836D01*
X208846895Y-77784836D02*
X208846895Y-77689598D01*
X208846895Y-77689598D02*
X208808800Y-77546741D01*
X208808800Y-77546741D02*
X208732609Y-77451503D01*
X208732609Y-77451503D02*
X208656419Y-77403884D01*
X208656419Y-77403884D02*
X208504038Y-77356265D01*
X208504038Y-77356265D02*
X208389752Y-77356265D01*
X208389752Y-77356265D02*
X208237371Y-77403884D01*
X208237371Y-77403884D02*
X208161180Y-77451503D01*
X208161180Y-77451503D02*
X208084990Y-77546741D01*
X208084990Y-77546741D02*
X208046895Y-77689598D01*
X208046895Y-77689598D02*
X208046895Y-77784836D01*
X208046895Y-77784836D02*
X208084990Y-77927693D01*
X208084990Y-77927693D02*
X208123085Y-77975312D01*
X84766115Y-73867847D02*
X84432782Y-73867847D01*
X84289925Y-74286895D02*
X84766115Y-74286895D01*
X84766115Y-74286895D02*
X84766115Y-73486895D01*
X84766115Y-73486895D02*
X84289925Y-73486895D01*
X83908972Y-74248800D02*
X83766115Y-74286895D01*
X83766115Y-74286895D02*
X83528020Y-74286895D01*
X83528020Y-74286895D02*
X83432782Y-74248800D01*
X83432782Y-74248800D02*
X83385163Y-74210704D01*
X83385163Y-74210704D02*
X83337544Y-74134514D01*
X83337544Y-74134514D02*
X83337544Y-74058323D01*
X83337544Y-74058323D02*
X83385163Y-73982133D01*
X83385163Y-73982133D02*
X83432782Y-73944038D01*
X83432782Y-73944038D02*
X83528020Y-73905942D01*
X83528020Y-73905942D02*
X83718496Y-73867847D01*
X83718496Y-73867847D02*
X83813734Y-73829752D01*
X83813734Y-73829752D02*
X83861353Y-73791657D01*
X83861353Y-73791657D02*
X83908972Y-73715466D01*
X83908972Y-73715466D02*
X83908972Y-73639276D01*
X83908972Y-73639276D02*
X83861353Y-73563085D01*
X83861353Y-73563085D02*
X83813734Y-73524990D01*
X83813734Y-73524990D02*
X83718496Y-73486895D01*
X83718496Y-73486895D02*
X83480401Y-73486895D01*
X83480401Y-73486895D02*
X83337544Y-73524990D01*
X82908972Y-74286895D02*
X82908972Y-73486895D01*
X82908972Y-73486895D02*
X82528020Y-73486895D01*
X82528020Y-73486895D02*
X82432782Y-73524990D01*
X82432782Y-73524990D02*
X82385163Y-73563085D01*
X82385163Y-73563085D02*
X82337544Y-73639276D01*
X82337544Y-73639276D02*
X82337544Y-73753561D01*
X82337544Y-73753561D02*
X82385163Y-73829752D01*
X82385163Y-73829752D02*
X82432782Y-73867847D01*
X82432782Y-73867847D02*
X82528020Y-73905942D01*
X82528020Y-73905942D02*
X82908972Y-73905942D01*
X82004210Y-73486895D02*
X81385163Y-73486895D01*
X81385163Y-73486895D02*
X81718496Y-73791657D01*
X81718496Y-73791657D02*
X81575639Y-73791657D01*
X81575639Y-73791657D02*
X81480401Y-73829752D01*
X81480401Y-73829752D02*
X81432782Y-73867847D01*
X81432782Y-73867847D02*
X81385163Y-73944038D01*
X81385163Y-73944038D02*
X81385163Y-74134514D01*
X81385163Y-74134514D02*
X81432782Y-74210704D01*
X81432782Y-74210704D02*
X81480401Y-74248800D01*
X81480401Y-74248800D02*
X81575639Y-74286895D01*
X81575639Y-74286895D02*
X81861353Y-74286895D01*
X81861353Y-74286895D02*
X81956591Y-74248800D01*
X81956591Y-74248800D02*
X82004210Y-74210704D01*
X81004210Y-73563085D02*
X80956591Y-73524990D01*
X80956591Y-73524990D02*
X80861353Y-73486895D01*
X80861353Y-73486895D02*
X80623258Y-73486895D01*
X80623258Y-73486895D02*
X80528020Y-73524990D01*
X80528020Y-73524990D02*
X80480401Y-73563085D01*
X80480401Y-73563085D02*
X80432782Y-73639276D01*
X80432782Y-73639276D02*
X80432782Y-73715466D01*
X80432782Y-73715466D02*
X80480401Y-73829752D01*
X80480401Y-73829752D02*
X81051829Y-74286895D01*
X81051829Y-74286895D02*
X80432782Y-74286895D01*
X78718496Y-73524990D02*
X78813734Y-73486895D01*
X78813734Y-73486895D02*
X78956591Y-73486895D01*
X78956591Y-73486895D02*
X79099448Y-73524990D01*
X79099448Y-73524990D02*
X79194686Y-73601180D01*
X79194686Y-73601180D02*
X79242305Y-73677371D01*
X79242305Y-73677371D02*
X79289924Y-73829752D01*
X79289924Y-73829752D02*
X79289924Y-73944038D01*
X79289924Y-73944038D02*
X79242305Y-74096419D01*
X79242305Y-74096419D02*
X79194686Y-74172609D01*
X79194686Y-74172609D02*
X79099448Y-74248800D01*
X79099448Y-74248800D02*
X78956591Y-74286895D01*
X78956591Y-74286895D02*
X78861353Y-74286895D01*
X78861353Y-74286895D02*
X78718496Y-74248800D01*
X78718496Y-74248800D02*
X78670877Y-74210704D01*
X78670877Y-74210704D02*
X78670877Y-73944038D01*
X78670877Y-73944038D02*
X78861353Y-73944038D01*
X78051829Y-73486895D02*
X77861353Y-73486895D01*
X77861353Y-73486895D02*
X77766115Y-73524990D01*
X77766115Y-73524990D02*
X77670877Y-73601180D01*
X77670877Y-73601180D02*
X77623258Y-73753561D01*
X77623258Y-73753561D02*
X77623258Y-74020228D01*
X77623258Y-74020228D02*
X77670877Y-74172609D01*
X77670877Y-74172609D02*
X77766115Y-74248800D01*
X77766115Y-74248800D02*
X77861353Y-74286895D01*
X77861353Y-74286895D02*
X78051829Y-74286895D01*
X78051829Y-74286895D02*
X78147067Y-74248800D01*
X78147067Y-74248800D02*
X78242305Y-74172609D01*
X78242305Y-74172609D02*
X78289924Y-74020228D01*
X78289924Y-74020228D02*
X78289924Y-73753561D01*
X78289924Y-73753561D02*
X78242305Y-73601180D01*
X78242305Y-73601180D02*
X78147067Y-73524990D01*
X78147067Y-73524990D02*
X78051829Y-73486895D01*
X77194686Y-73867847D02*
X76861353Y-73867847D01*
X76718496Y-74286895D02*
X77194686Y-74286895D01*
X77194686Y-74286895D02*
X77194686Y-73486895D01*
X77194686Y-73486895D02*
X76718496Y-73486895D01*
X76337543Y-74248800D02*
X76194686Y-74286895D01*
X76194686Y-74286895D02*
X75956591Y-74286895D01*
X75956591Y-74286895D02*
X75861353Y-74248800D01*
X75861353Y-74248800D02*
X75813734Y-74210704D01*
X75813734Y-74210704D02*
X75766115Y-74134514D01*
X75766115Y-74134514D02*
X75766115Y-74058323D01*
X75766115Y-74058323D02*
X75813734Y-73982133D01*
X75813734Y-73982133D02*
X75861353Y-73944038D01*
X75861353Y-73944038D02*
X75956591Y-73905942D01*
X75956591Y-73905942D02*
X76147067Y-73867847D01*
X76147067Y-73867847D02*
X76242305Y-73829752D01*
X76242305Y-73829752D02*
X76289924Y-73791657D01*
X76289924Y-73791657D02*
X76337543Y-73715466D01*
X76337543Y-73715466D02*
X76337543Y-73639276D01*
X76337543Y-73639276D02*
X76289924Y-73563085D01*
X76289924Y-73563085D02*
X76242305Y-73524990D01*
X76242305Y-73524990D02*
X76147067Y-73486895D01*
X76147067Y-73486895D02*
X75908972Y-73486895D01*
X75908972Y-73486895D02*
X75766115Y-73524990D01*
X74385162Y-73486895D02*
X74194686Y-73486895D01*
X74194686Y-73486895D02*
X74099448Y-73524990D01*
X74099448Y-73524990D02*
X74004210Y-73601180D01*
X74004210Y-73601180D02*
X73956591Y-73753561D01*
X73956591Y-73753561D02*
X73956591Y-74020228D01*
X73956591Y-74020228D02*
X74004210Y-74172609D01*
X74004210Y-74172609D02*
X74099448Y-74248800D01*
X74099448Y-74248800D02*
X74194686Y-74286895D01*
X74194686Y-74286895D02*
X74385162Y-74286895D01*
X74385162Y-74286895D02*
X74480400Y-74248800D01*
X74480400Y-74248800D02*
X74575638Y-74172609D01*
X74575638Y-74172609D02*
X74623257Y-74020228D01*
X74623257Y-74020228D02*
X74623257Y-73753561D01*
X74623257Y-73753561D02*
X74575638Y-73601180D01*
X74575638Y-73601180D02*
X74480400Y-73524990D01*
X74480400Y-73524990D02*
X74385162Y-73486895D01*
X73528019Y-74286895D02*
X73528019Y-73486895D01*
X73528019Y-73486895D02*
X72956591Y-74286895D01*
X72956591Y-74286895D02*
X72956591Y-73486895D01*
X71861352Y-73486895D02*
X71289924Y-73486895D01*
X71575638Y-74286895D02*
X71575638Y-73486895D01*
X70956590Y-74286895D02*
X70956590Y-73486895D01*
X70956590Y-73867847D02*
X70385162Y-73867847D01*
X70385162Y-74286895D02*
X70385162Y-73486895D01*
X69908971Y-74286895D02*
X69908971Y-73486895D01*
X69480400Y-74248800D02*
X69337543Y-74286895D01*
X69337543Y-74286895D02*
X69099448Y-74286895D01*
X69099448Y-74286895D02*
X69004210Y-74248800D01*
X69004210Y-74248800D02*
X68956591Y-74210704D01*
X68956591Y-74210704D02*
X68908972Y-74134514D01*
X68908972Y-74134514D02*
X68908972Y-74058323D01*
X68908972Y-74058323D02*
X68956591Y-73982133D01*
X68956591Y-73982133D02*
X69004210Y-73944038D01*
X69004210Y-73944038D02*
X69099448Y-73905942D01*
X69099448Y-73905942D02*
X69289924Y-73867847D01*
X69289924Y-73867847D02*
X69385162Y-73829752D01*
X69385162Y-73829752D02*
X69432781Y-73791657D01*
X69432781Y-73791657D02*
X69480400Y-73715466D01*
X69480400Y-73715466D02*
X69480400Y-73639276D01*
X69480400Y-73639276D02*
X69432781Y-73563085D01*
X69432781Y-73563085D02*
X69385162Y-73524990D01*
X69385162Y-73524990D02*
X69289924Y-73486895D01*
X69289924Y-73486895D02*
X69051829Y-73486895D01*
X69051829Y-73486895D02*
X68908972Y-73524990D01*
X67766114Y-74248800D02*
X67623257Y-74286895D01*
X67623257Y-74286895D02*
X67385162Y-74286895D01*
X67385162Y-74286895D02*
X67289924Y-74248800D01*
X67289924Y-74248800D02*
X67242305Y-74210704D01*
X67242305Y-74210704D02*
X67194686Y-74134514D01*
X67194686Y-74134514D02*
X67194686Y-74058323D01*
X67194686Y-74058323D02*
X67242305Y-73982133D01*
X67242305Y-73982133D02*
X67289924Y-73944038D01*
X67289924Y-73944038D02*
X67385162Y-73905942D01*
X67385162Y-73905942D02*
X67575638Y-73867847D01*
X67575638Y-73867847D02*
X67670876Y-73829752D01*
X67670876Y-73829752D02*
X67718495Y-73791657D01*
X67718495Y-73791657D02*
X67766114Y-73715466D01*
X67766114Y-73715466D02*
X67766114Y-73639276D01*
X67766114Y-73639276D02*
X67718495Y-73563085D01*
X67718495Y-73563085D02*
X67670876Y-73524990D01*
X67670876Y-73524990D02*
X67575638Y-73486895D01*
X67575638Y-73486895D02*
X67337543Y-73486895D01*
X67337543Y-73486895D02*
X67194686Y-73524990D01*
X66766114Y-74286895D02*
X66766114Y-73486895D01*
X66289924Y-74286895D02*
X66289924Y-73486895D01*
X66289924Y-73486895D02*
X66051829Y-73486895D01*
X66051829Y-73486895D02*
X65908972Y-73524990D01*
X65908972Y-73524990D02*
X65813734Y-73601180D01*
X65813734Y-73601180D02*
X65766115Y-73677371D01*
X65766115Y-73677371D02*
X65718496Y-73829752D01*
X65718496Y-73829752D02*
X65718496Y-73944038D01*
X65718496Y-73944038D02*
X65766115Y-74096419D01*
X65766115Y-74096419D02*
X65813734Y-74172609D01*
X65813734Y-74172609D02*
X65908972Y-74248800D01*
X65908972Y-74248800D02*
X66051829Y-74286895D01*
X66051829Y-74286895D02*
X66289924Y-74286895D01*
X65289924Y-73867847D02*
X64956591Y-73867847D01*
X64813734Y-74286895D02*
X65289924Y-74286895D01*
X65289924Y-74286895D02*
X65289924Y-73486895D01*
X65289924Y-73486895D02*
X64813734Y-73486895D01*
X203706895Y-76915312D02*
X203325942Y-76581979D01*
X203706895Y-76343884D02*
X202906895Y-76343884D01*
X202906895Y-76343884D02*
X202906895Y-76724836D01*
X202906895Y-76724836D02*
X202944990Y-76820074D01*
X202944990Y-76820074D02*
X202983085Y-76867693D01*
X202983085Y-76867693D02*
X203059276Y-76915312D01*
X203059276Y-76915312D02*
X203173561Y-76915312D01*
X203173561Y-76915312D02*
X203249752Y-76867693D01*
X203249752Y-76867693D02*
X203287847Y-76820074D01*
X203287847Y-76820074D02*
X203325942Y-76724836D01*
X203325942Y-76724836D02*
X203325942Y-76343884D01*
X203668800Y-77296265D02*
X203706895Y-77439122D01*
X203706895Y-77439122D02*
X203706895Y-77677217D01*
X203706895Y-77677217D02*
X203668800Y-77772455D01*
X203668800Y-77772455D02*
X203630704Y-77820074D01*
X203630704Y-77820074D02*
X203554514Y-77867693D01*
X203554514Y-77867693D02*
X203478323Y-77867693D01*
X203478323Y-77867693D02*
X203402133Y-77820074D01*
X203402133Y-77820074D02*
X203364038Y-77772455D01*
X203364038Y-77772455D02*
X203325942Y-77677217D01*
X203325942Y-77677217D02*
X203287847Y-77486741D01*
X203287847Y-77486741D02*
X203249752Y-77391503D01*
X203249752Y-77391503D02*
X203211657Y-77343884D01*
X203211657Y-77343884D02*
X203135466Y-77296265D01*
X203135466Y-77296265D02*
X203059276Y-77296265D01*
X203059276Y-77296265D02*
X202983085Y-77343884D01*
X202983085Y-77343884D02*
X202944990Y-77391503D01*
X202944990Y-77391503D02*
X202906895Y-77486741D01*
X202906895Y-77486741D02*
X202906895Y-77724836D01*
X202906895Y-77724836D02*
X202944990Y-77867693D01*
X202906895Y-78153408D02*
X202906895Y-78724836D01*
X203706895Y-78439122D02*
X202906895Y-78439122D01*
X106265130Y-70830950D02*
X106150845Y-71021426D01*
X106150845Y-71021426D02*
X106265130Y-71211902D01*
X106265130Y-71402379D02*
X106150845Y-71592855D01*
X106150845Y-71592855D02*
X106265130Y-71783331D01*
X106265130Y-71973808D02*
X106150845Y-72164284D01*
X106150845Y-72164284D02*
X106265130Y-72354760D01*
X106265130Y-72545237D02*
X106150845Y-72735713D01*
X106150845Y-72735713D02*
X106265130Y-72926189D01*
X106265130Y-73116666D02*
X106150845Y-73307142D01*
X106150845Y-73307142D02*
X106265130Y-73497618D01*
X106265130Y-73688095D02*
X106150845Y-73878571D01*
X106150845Y-73878571D02*
X106265130Y-74069047D01*
X106265130Y-74259524D02*
X106150845Y-74450000D01*
X106150845Y-74450000D02*
X106265130Y-74640476D01*
X106265130Y-74830953D02*
X106150845Y-75021429D01*
X106150845Y-75021429D02*
X106265130Y-75211905D01*
X106265130Y-75402382D02*
X106150845Y-75592858D01*
X106150845Y-75592858D02*
X106265130Y-75783334D01*
X106265130Y-75973811D02*
X106150845Y-76164287D01*
X106150845Y-76164287D02*
X106265130Y-76354763D01*
X106265130Y-76545240D02*
X106150845Y-76735716D01*
X106150845Y-76735716D02*
X106265130Y-76926192D01*
X106265130Y-77116669D02*
X106150845Y-77307145D01*
X106150845Y-77307145D02*
X106265130Y-77497621D01*
X106265130Y-77688098D02*
X106150845Y-77878574D01*
X106150845Y-77878574D02*
X106265130Y-78069050D01*
X108200704Y-69069048D02*
X108238800Y-69116667D01*
X108238800Y-69116667D02*
X108276895Y-69069048D01*
X108276895Y-69069048D02*
X108238800Y-69021429D01*
X108238800Y-69021429D02*
X108200704Y-69069048D01*
X108200704Y-69069048D02*
X108276895Y-69069048D01*
X107972133Y-69069048D02*
X107514990Y-69021429D01*
X107514990Y-69021429D02*
X107476895Y-69069048D01*
X107476895Y-69069048D02*
X107514990Y-69116667D01*
X107514990Y-69116667D02*
X107972133Y-69069048D01*
X107972133Y-69069048D02*
X107476895Y-69069048D01*
X107476895Y-69545238D02*
X108124514Y-69545238D01*
X108124514Y-69545238D02*
X108200704Y-69592857D01*
X108200704Y-69592857D02*
X108238800Y-69640476D01*
X108238800Y-69640476D02*
X108276895Y-69735714D01*
X108276895Y-69735714D02*
X108276895Y-69926190D01*
X108276895Y-69926190D02*
X108238800Y-70021428D01*
X108238800Y-70021428D02*
X108200704Y-70069047D01*
X108200704Y-70069047D02*
X108124514Y-70116666D01*
X108124514Y-70116666D02*
X107476895Y-70116666D01*
X108238800Y-70545238D02*
X108276895Y-70688095D01*
X108276895Y-70688095D02*
X108276895Y-70926190D01*
X108276895Y-70926190D02*
X108238800Y-71021428D01*
X108238800Y-71021428D02*
X108200704Y-71069047D01*
X108200704Y-71069047D02*
X108124514Y-71116666D01*
X108124514Y-71116666D02*
X108048323Y-71116666D01*
X108048323Y-71116666D02*
X107972133Y-71069047D01*
X107972133Y-71069047D02*
X107934038Y-71021428D01*
X107934038Y-71021428D02*
X107895942Y-70926190D01*
X107895942Y-70926190D02*
X107857847Y-70735714D01*
X107857847Y-70735714D02*
X107819752Y-70640476D01*
X107819752Y-70640476D02*
X107781657Y-70592857D01*
X107781657Y-70592857D02*
X107705466Y-70545238D01*
X107705466Y-70545238D02*
X107629276Y-70545238D01*
X107629276Y-70545238D02*
X107553085Y-70592857D01*
X107553085Y-70592857D02*
X107514990Y-70640476D01*
X107514990Y-70640476D02*
X107476895Y-70735714D01*
X107476895Y-70735714D02*
X107476895Y-70973809D01*
X107476895Y-70973809D02*
X107514990Y-71116666D01*
X107857847Y-71878571D02*
X107895942Y-72021428D01*
X107895942Y-72021428D02*
X107934038Y-72069047D01*
X107934038Y-72069047D02*
X108010228Y-72116666D01*
X108010228Y-72116666D02*
X108124514Y-72116666D01*
X108124514Y-72116666D02*
X108200704Y-72069047D01*
X108200704Y-72069047D02*
X108238800Y-72021428D01*
X108238800Y-72021428D02*
X108276895Y-71926190D01*
X108276895Y-71926190D02*
X108276895Y-71545238D01*
X108276895Y-71545238D02*
X107476895Y-71545238D01*
X107476895Y-71545238D02*
X107476895Y-71878571D01*
X107476895Y-71878571D02*
X107514990Y-71973809D01*
X107514990Y-71973809D02*
X107553085Y-72021428D01*
X107553085Y-72021428D02*
X107629276Y-72069047D01*
X107629276Y-72069047D02*
X107705466Y-72069047D01*
X107705466Y-72069047D02*
X107781657Y-72021428D01*
X107781657Y-72021428D02*
X107819752Y-71973809D01*
X107819752Y-71973809D02*
X107857847Y-71878571D01*
X107857847Y-71878571D02*
X107857847Y-71545238D01*
X107476895Y-73164286D02*
X107476895Y-73735714D01*
X108276895Y-73450000D02*
X107476895Y-73450000D01*
X108276895Y-74069048D02*
X107476895Y-74069048D01*
X108276895Y-74497619D02*
X107857847Y-74497619D01*
X107857847Y-74497619D02*
X107781657Y-74450000D01*
X107781657Y-74450000D02*
X107743561Y-74354762D01*
X107743561Y-74354762D02*
X107743561Y-74211905D01*
X107743561Y-74211905D02*
X107781657Y-74116667D01*
X107781657Y-74116667D02*
X107819752Y-74069048D01*
X108276895Y-74973810D02*
X107743561Y-74973810D01*
X107476895Y-74973810D02*
X107514990Y-74926191D01*
X107514990Y-74926191D02*
X107553085Y-74973810D01*
X107553085Y-74973810D02*
X107514990Y-75021429D01*
X107514990Y-75021429D02*
X107476895Y-74973810D01*
X107476895Y-74973810D02*
X107553085Y-74973810D01*
X108238800Y-75402381D02*
X108276895Y-75497619D01*
X108276895Y-75497619D02*
X108276895Y-75688095D01*
X108276895Y-75688095D02*
X108238800Y-75783333D01*
X108238800Y-75783333D02*
X108162609Y-75830952D01*
X108162609Y-75830952D02*
X108124514Y-75830952D01*
X108124514Y-75830952D02*
X108048323Y-75783333D01*
X108048323Y-75783333D02*
X108010228Y-75688095D01*
X108010228Y-75688095D02*
X108010228Y-75545238D01*
X108010228Y-75545238D02*
X107972133Y-75450000D01*
X107972133Y-75450000D02*
X107895942Y-75402381D01*
X107895942Y-75402381D02*
X107857847Y-75402381D01*
X107857847Y-75402381D02*
X107781657Y-75450000D01*
X107781657Y-75450000D02*
X107743561Y-75545238D01*
X107743561Y-75545238D02*
X107743561Y-75688095D01*
X107743561Y-75688095D02*
X107781657Y-75783333D01*
X107476895Y-76926191D02*
X108276895Y-77164286D01*
X108276895Y-77164286D02*
X107705466Y-77354762D01*
X107705466Y-77354762D02*
X108276895Y-77545238D01*
X108276895Y-77545238D02*
X107476895Y-77783334D01*
X108276895Y-78592857D02*
X107857847Y-78592857D01*
X107857847Y-78592857D02*
X107781657Y-78545238D01*
X107781657Y-78545238D02*
X107743561Y-78450000D01*
X107743561Y-78450000D02*
X107743561Y-78259524D01*
X107743561Y-78259524D02*
X107781657Y-78164286D01*
X108238800Y-78592857D02*
X108276895Y-78497619D01*
X108276895Y-78497619D02*
X108276895Y-78259524D01*
X108276895Y-78259524D02*
X108238800Y-78164286D01*
X108238800Y-78164286D02*
X108162609Y-78116667D01*
X108162609Y-78116667D02*
X108086419Y-78116667D01*
X108086419Y-78116667D02*
X108010228Y-78164286D01*
X108010228Y-78164286D02*
X107972133Y-78259524D01*
X107972133Y-78259524D02*
X107972133Y-78497619D01*
X107972133Y-78497619D02*
X107934038Y-78592857D01*
X107743561Y-78973810D02*
X108276895Y-79211905D01*
X107743561Y-79450000D02*
X108276895Y-79211905D01*
X108276895Y-79211905D02*
X108467371Y-79116667D01*
X108467371Y-79116667D02*
X108505466Y-79069048D01*
X108505466Y-79069048D02*
X108543561Y-78973810D01*
X108200704Y-79830953D02*
X108238800Y-79878572D01*
X108238800Y-79878572D02*
X108276895Y-79830953D01*
X108276895Y-79830953D02*
X108238800Y-79783334D01*
X108238800Y-79783334D02*
X108200704Y-79830953D01*
X108200704Y-79830953D02*
X108276895Y-79830953D01*
X107972133Y-79830953D02*
X107514990Y-79783334D01*
X107514990Y-79783334D02*
X107476895Y-79830953D01*
X107476895Y-79830953D02*
X107514990Y-79878572D01*
X107514990Y-79878572D02*
X107972133Y-79830953D01*
X107972133Y-79830953D02*
X107476895Y-79830953D01*
X55478800Y-76166265D02*
X55516895Y-76309122D01*
X55516895Y-76309122D02*
X55516895Y-76547217D01*
X55516895Y-76547217D02*
X55478800Y-76642455D01*
X55478800Y-76642455D02*
X55440704Y-76690074D01*
X55440704Y-76690074D02*
X55364514Y-76737693D01*
X55364514Y-76737693D02*
X55288323Y-76737693D01*
X55288323Y-76737693D02*
X55212133Y-76690074D01*
X55212133Y-76690074D02*
X55174038Y-76642455D01*
X55174038Y-76642455D02*
X55135942Y-76547217D01*
X55135942Y-76547217D02*
X55097847Y-76356741D01*
X55097847Y-76356741D02*
X55059752Y-76261503D01*
X55059752Y-76261503D02*
X55021657Y-76213884D01*
X55021657Y-76213884D02*
X54945466Y-76166265D01*
X54945466Y-76166265D02*
X54869276Y-76166265D01*
X54869276Y-76166265D02*
X54793085Y-76213884D01*
X54793085Y-76213884D02*
X54754990Y-76261503D01*
X54754990Y-76261503D02*
X54716895Y-76356741D01*
X54716895Y-76356741D02*
X54716895Y-76594836D01*
X54716895Y-76594836D02*
X54754990Y-76737693D01*
X55516895Y-77166265D02*
X54716895Y-77166265D01*
X54716895Y-77166265D02*
X54716895Y-77404360D01*
X54716895Y-77404360D02*
X54754990Y-77547217D01*
X54754990Y-77547217D02*
X54831180Y-77642455D01*
X54831180Y-77642455D02*
X54907371Y-77690074D01*
X54907371Y-77690074D02*
X55059752Y-77737693D01*
X55059752Y-77737693D02*
X55174038Y-77737693D01*
X55174038Y-77737693D02*
X55326419Y-77690074D01*
X55326419Y-77690074D02*
X55402609Y-77642455D01*
X55402609Y-77642455D02*
X55478800Y-77547217D01*
X55478800Y-77547217D02*
X55516895Y-77404360D01*
X55516895Y-77404360D02*
X55516895Y-77166265D01*
X55288323Y-78118646D02*
X55288323Y-78594836D01*
X55516895Y-78023408D02*
X54716895Y-78356741D01*
X54716895Y-78356741D02*
X55516895Y-78690074D01*
X134267544Y-62643561D02*
X134267544Y-63291180D01*
X134267544Y-63291180D02*
X134315163Y-63367371D01*
X134315163Y-63367371D02*
X134362782Y-63405466D01*
X134362782Y-63405466D02*
X134458020Y-63443561D01*
X134458020Y-63443561D02*
X134600877Y-63443561D01*
X134600877Y-63443561D02*
X134696115Y-63405466D01*
X134267544Y-63138800D02*
X134362782Y-63176895D01*
X134362782Y-63176895D02*
X134553258Y-63176895D01*
X134553258Y-63176895D02*
X134648496Y-63138800D01*
X134648496Y-63138800D02*
X134696115Y-63100704D01*
X134696115Y-63100704D02*
X134743734Y-63024514D01*
X134743734Y-63024514D02*
X134743734Y-62795942D01*
X134743734Y-62795942D02*
X134696115Y-62719752D01*
X134696115Y-62719752D02*
X134648496Y-62681657D01*
X134648496Y-62681657D02*
X134553258Y-62643561D01*
X134553258Y-62643561D02*
X134362782Y-62643561D01*
X134362782Y-62643561D02*
X134267544Y-62681657D01*
X133791353Y-62643561D02*
X133791353Y-63443561D01*
X133791353Y-62681657D02*
X133696115Y-62643561D01*
X133696115Y-62643561D02*
X133505639Y-62643561D01*
X133505639Y-62643561D02*
X133410401Y-62681657D01*
X133410401Y-62681657D02*
X133362782Y-62719752D01*
X133362782Y-62719752D02*
X133315163Y-62795942D01*
X133315163Y-62795942D02*
X133315163Y-63024514D01*
X133315163Y-63024514D02*
X133362782Y-63100704D01*
X133362782Y-63100704D02*
X133410401Y-63138800D01*
X133410401Y-63138800D02*
X133505639Y-63176895D01*
X133505639Y-63176895D02*
X133696115Y-63176895D01*
X133696115Y-63176895D02*
X133791353Y-63138800D01*
X132886591Y-63176895D02*
X132886591Y-62643561D01*
X132886591Y-62376895D02*
X132934210Y-62414990D01*
X132934210Y-62414990D02*
X132886591Y-62453085D01*
X132886591Y-62453085D02*
X132838972Y-62414990D01*
X132838972Y-62414990D02*
X132886591Y-62376895D01*
X132886591Y-62376895D02*
X132886591Y-62453085D01*
X132267544Y-63176895D02*
X132362782Y-63138800D01*
X132362782Y-63138800D02*
X132410401Y-63100704D01*
X132410401Y-63100704D02*
X132458020Y-63024514D01*
X132458020Y-63024514D02*
X132458020Y-62795942D01*
X132458020Y-62795942D02*
X132410401Y-62719752D01*
X132410401Y-62719752D02*
X132362782Y-62681657D01*
X132362782Y-62681657D02*
X132267544Y-62643561D01*
X132267544Y-62643561D02*
X132124687Y-62643561D01*
X132124687Y-62643561D02*
X132029449Y-62681657D01*
X132029449Y-62681657D02*
X131981830Y-62719752D01*
X131981830Y-62719752D02*
X131934211Y-62795942D01*
X131934211Y-62795942D02*
X131934211Y-63024514D01*
X131934211Y-63024514D02*
X131981830Y-63100704D01*
X131981830Y-63100704D02*
X132029449Y-63138800D01*
X132029449Y-63138800D02*
X132124687Y-63176895D01*
X132124687Y-63176895D02*
X132267544Y-63176895D01*
X130743734Y-63176895D02*
X130743734Y-62376895D01*
X130743734Y-62681657D02*
X130648496Y-62643561D01*
X130648496Y-62643561D02*
X130458020Y-62643561D01*
X130458020Y-62643561D02*
X130362782Y-62681657D01*
X130362782Y-62681657D02*
X130315163Y-62719752D01*
X130315163Y-62719752D02*
X130267544Y-62795942D01*
X130267544Y-62795942D02*
X130267544Y-63024514D01*
X130267544Y-63024514D02*
X130315163Y-63100704D01*
X130315163Y-63100704D02*
X130362782Y-63138800D01*
X130362782Y-63138800D02*
X130458020Y-63176895D01*
X130458020Y-63176895D02*
X130648496Y-63176895D01*
X130648496Y-63176895D02*
X130743734Y-63138800D01*
X129838972Y-63176895D02*
X129838972Y-62643561D01*
X129838972Y-62795942D02*
X129791353Y-62719752D01*
X129791353Y-62719752D02*
X129743734Y-62681657D01*
X129743734Y-62681657D02*
X129648496Y-62643561D01*
X129648496Y-62643561D02*
X129553258Y-62643561D01*
X128838972Y-63138800D02*
X128934210Y-63176895D01*
X128934210Y-63176895D02*
X129124686Y-63176895D01*
X129124686Y-63176895D02*
X129219924Y-63138800D01*
X129219924Y-63138800D02*
X129267543Y-63062609D01*
X129267543Y-63062609D02*
X129267543Y-62757847D01*
X129267543Y-62757847D02*
X129219924Y-62681657D01*
X129219924Y-62681657D02*
X129124686Y-62643561D01*
X129124686Y-62643561D02*
X128934210Y-62643561D01*
X128934210Y-62643561D02*
X128838972Y-62681657D01*
X128838972Y-62681657D02*
X128791353Y-62757847D01*
X128791353Y-62757847D02*
X128791353Y-62834038D01*
X128791353Y-62834038D02*
X129267543Y-62910228D01*
X127934210Y-63176895D02*
X127934210Y-62757847D01*
X127934210Y-62757847D02*
X127981829Y-62681657D01*
X127981829Y-62681657D02*
X128077067Y-62643561D01*
X128077067Y-62643561D02*
X128267543Y-62643561D01*
X128267543Y-62643561D02*
X128362781Y-62681657D01*
X127934210Y-63138800D02*
X128029448Y-63176895D01*
X128029448Y-63176895D02*
X128267543Y-63176895D01*
X128267543Y-63176895D02*
X128362781Y-63138800D01*
X128362781Y-63138800D02*
X128410400Y-63062609D01*
X128410400Y-63062609D02*
X128410400Y-62986419D01*
X128410400Y-62986419D02*
X128362781Y-62910228D01*
X128362781Y-62910228D02*
X128267543Y-62872133D01*
X128267543Y-62872133D02*
X128029448Y-62872133D01*
X128029448Y-62872133D02*
X127934210Y-62834038D01*
X127458019Y-63176895D02*
X127458019Y-62376895D01*
X127362781Y-62872133D02*
X127077067Y-63176895D01*
X127077067Y-62643561D02*
X127458019Y-62948323D01*
X126505638Y-63176895D02*
X126600876Y-63138800D01*
X126600876Y-63138800D02*
X126648495Y-63100704D01*
X126648495Y-63100704D02*
X126696114Y-63024514D01*
X126696114Y-63024514D02*
X126696114Y-62795942D01*
X126696114Y-62795942D02*
X126648495Y-62719752D01*
X126648495Y-62719752D02*
X126600876Y-62681657D01*
X126600876Y-62681657D02*
X126505638Y-62643561D01*
X126505638Y-62643561D02*
X126362781Y-62643561D01*
X126362781Y-62643561D02*
X126267543Y-62681657D01*
X126267543Y-62681657D02*
X126219924Y-62719752D01*
X126219924Y-62719752D02*
X126172305Y-62795942D01*
X126172305Y-62795942D02*
X126172305Y-63024514D01*
X126172305Y-63024514D02*
X126219924Y-63100704D01*
X126219924Y-63100704D02*
X126267543Y-63138800D01*
X126267543Y-63138800D02*
X126362781Y-63176895D01*
X126362781Y-63176895D02*
X126505638Y-63176895D01*
X125315162Y-62643561D02*
X125315162Y-63176895D01*
X125743733Y-62643561D02*
X125743733Y-63062609D01*
X125743733Y-63062609D02*
X125696114Y-63138800D01*
X125696114Y-63138800D02*
X125600876Y-63176895D01*
X125600876Y-63176895D02*
X125458019Y-63176895D01*
X125458019Y-63176895D02*
X125362781Y-63138800D01*
X125362781Y-63138800D02*
X125315162Y-63100704D01*
X124981828Y-62643561D02*
X124600876Y-62643561D01*
X124838971Y-62376895D02*
X124838971Y-63062609D01*
X124838971Y-63062609D02*
X124791352Y-63138800D01*
X124791352Y-63138800D02*
X124696114Y-63176895D01*
X124696114Y-63176895D02*
X124600876Y-63176895D01*
X92046895Y-76063884D02*
X91246895Y-76063884D01*
X91246895Y-76063884D02*
X91246895Y-76301979D01*
X91246895Y-76301979D02*
X91284990Y-76444836D01*
X91284990Y-76444836D02*
X91361180Y-76540074D01*
X91361180Y-76540074D02*
X91437371Y-76587693D01*
X91437371Y-76587693D02*
X91589752Y-76635312D01*
X91589752Y-76635312D02*
X91704038Y-76635312D01*
X91704038Y-76635312D02*
X91856419Y-76587693D01*
X91856419Y-76587693D02*
X91932609Y-76540074D01*
X91932609Y-76540074D02*
X92008800Y-76444836D01*
X92008800Y-76444836D02*
X92046895Y-76301979D01*
X92046895Y-76301979D02*
X92046895Y-76063884D01*
X91970704Y-77635312D02*
X92008800Y-77587693D01*
X92008800Y-77587693D02*
X92046895Y-77444836D01*
X92046895Y-77444836D02*
X92046895Y-77349598D01*
X92046895Y-77349598D02*
X92008800Y-77206741D01*
X92008800Y-77206741D02*
X91932609Y-77111503D01*
X91932609Y-77111503D02*
X91856419Y-77063884D01*
X91856419Y-77063884D02*
X91704038Y-77016265D01*
X91704038Y-77016265D02*
X91589752Y-77016265D01*
X91589752Y-77016265D02*
X91437371Y-77063884D01*
X91437371Y-77063884D02*
X91361180Y-77111503D01*
X91361180Y-77111503D02*
X91284990Y-77206741D01*
X91284990Y-77206741D02*
X91246895Y-77349598D01*
X91246895Y-77349598D02*
X91246895Y-77444836D01*
X91246895Y-77444836D02*
X91284990Y-77587693D01*
X91284990Y-77587693D02*
X91323085Y-77635312D01*
X47776895Y-76785312D02*
X47395942Y-76451979D01*
X47776895Y-76213884D02*
X46976895Y-76213884D01*
X46976895Y-76213884D02*
X46976895Y-76594836D01*
X46976895Y-76594836D02*
X47014990Y-76690074D01*
X47014990Y-76690074D02*
X47053085Y-76737693D01*
X47053085Y-76737693D02*
X47129276Y-76785312D01*
X47129276Y-76785312D02*
X47243561Y-76785312D01*
X47243561Y-76785312D02*
X47319752Y-76737693D01*
X47319752Y-76737693D02*
X47357847Y-76690074D01*
X47357847Y-76690074D02*
X47395942Y-76594836D01*
X47395942Y-76594836D02*
X47395942Y-76213884D01*
X47738800Y-77166265D02*
X47776895Y-77309122D01*
X47776895Y-77309122D02*
X47776895Y-77547217D01*
X47776895Y-77547217D02*
X47738800Y-77642455D01*
X47738800Y-77642455D02*
X47700704Y-77690074D01*
X47700704Y-77690074D02*
X47624514Y-77737693D01*
X47624514Y-77737693D02*
X47548323Y-77737693D01*
X47548323Y-77737693D02*
X47472133Y-77690074D01*
X47472133Y-77690074D02*
X47434038Y-77642455D01*
X47434038Y-77642455D02*
X47395942Y-77547217D01*
X47395942Y-77547217D02*
X47357847Y-77356741D01*
X47357847Y-77356741D02*
X47319752Y-77261503D01*
X47319752Y-77261503D02*
X47281657Y-77213884D01*
X47281657Y-77213884D02*
X47205466Y-77166265D01*
X47205466Y-77166265D02*
X47129276Y-77166265D01*
X47129276Y-77166265D02*
X47053085Y-77213884D01*
X47053085Y-77213884D02*
X47014990Y-77261503D01*
X47014990Y-77261503D02*
X46976895Y-77356741D01*
X46976895Y-77356741D02*
X46976895Y-77594836D01*
X46976895Y-77594836D02*
X47014990Y-77737693D01*
X46976895Y-78023408D02*
X46976895Y-78594836D01*
X47776895Y-78309122D02*
X46976895Y-78309122D01*
D12*
X158304819Y-67267143D02*
X159114342Y-67267143D01*
X159114342Y-67267143D02*
X159209580Y-67314762D01*
X159209580Y-67314762D02*
X159257200Y-67362381D01*
X159257200Y-67362381D02*
X159304819Y-67457619D01*
X159304819Y-67457619D02*
X159304819Y-67648095D01*
X159304819Y-67648095D02*
X159257200Y-67743333D01*
X159257200Y-67743333D02*
X159209580Y-67790952D01*
X159209580Y-67790952D02*
X159114342Y-67838571D01*
X159114342Y-67838571D02*
X158304819Y-67838571D01*
X159257200Y-68267143D02*
X159304819Y-68410000D01*
X159304819Y-68410000D02*
X159304819Y-68648095D01*
X159304819Y-68648095D02*
X159257200Y-68743333D01*
X159257200Y-68743333D02*
X159209580Y-68790952D01*
X159209580Y-68790952D02*
X159114342Y-68838571D01*
X159114342Y-68838571D02*
X159019104Y-68838571D01*
X159019104Y-68838571D02*
X158923866Y-68790952D01*
X158923866Y-68790952D02*
X158876247Y-68743333D01*
X158876247Y-68743333D02*
X158828628Y-68648095D01*
X158828628Y-68648095D02*
X158781009Y-68457619D01*
X158781009Y-68457619D02*
X158733390Y-68362381D01*
X158733390Y-68362381D02*
X158685771Y-68314762D01*
X158685771Y-68314762D02*
X158590533Y-68267143D01*
X158590533Y-68267143D02*
X158495295Y-68267143D01*
X158495295Y-68267143D02*
X158400057Y-68314762D01*
X158400057Y-68314762D02*
X158352438Y-68362381D01*
X158352438Y-68362381D02*
X158304819Y-68457619D01*
X158304819Y-68457619D02*
X158304819Y-68695714D01*
X158304819Y-68695714D02*
X158352438Y-68838571D01*
X158781009Y-69600476D02*
X158828628Y-69743333D01*
X158828628Y-69743333D02*
X158876247Y-69790952D01*
X158876247Y-69790952D02*
X158971485Y-69838571D01*
X158971485Y-69838571D02*
X159114342Y-69838571D01*
X159114342Y-69838571D02*
X159209580Y-69790952D01*
X159209580Y-69790952D02*
X159257200Y-69743333D01*
X159257200Y-69743333D02*
X159304819Y-69648095D01*
X159304819Y-69648095D02*
X159304819Y-69267143D01*
X159304819Y-69267143D02*
X158304819Y-69267143D01*
X158304819Y-69267143D02*
X158304819Y-69600476D01*
X158304819Y-69600476D02*
X158352438Y-69695714D01*
X158352438Y-69695714D02*
X158400057Y-69743333D01*
X158400057Y-69743333D02*
X158495295Y-69790952D01*
X158495295Y-69790952D02*
X158590533Y-69790952D01*
X158590533Y-69790952D02*
X158685771Y-69743333D01*
X158685771Y-69743333D02*
X158733390Y-69695714D01*
X158733390Y-69695714D02*
X158781009Y-69600476D01*
X158781009Y-69600476D02*
X158781009Y-69267143D01*
X159209580Y-71600476D02*
X159257200Y-71552857D01*
X159257200Y-71552857D02*
X159304819Y-71410000D01*
X159304819Y-71410000D02*
X159304819Y-71314762D01*
X159304819Y-71314762D02*
X159257200Y-71171905D01*
X159257200Y-71171905D02*
X159161961Y-71076667D01*
X159161961Y-71076667D02*
X159066723Y-71029048D01*
X159066723Y-71029048D02*
X158876247Y-70981429D01*
X158876247Y-70981429D02*
X158733390Y-70981429D01*
X158733390Y-70981429D02*
X158542914Y-71029048D01*
X158542914Y-71029048D02*
X158447676Y-71076667D01*
X158447676Y-71076667D02*
X158352438Y-71171905D01*
X158352438Y-71171905D02*
X158304819Y-71314762D01*
X158304819Y-71314762D02*
X158304819Y-71410000D01*
X158304819Y-71410000D02*
X158352438Y-71552857D01*
X158352438Y-71552857D02*
X158400057Y-71600476D01*
X43624612Y-74127663D02*
X44624998Y-74461125D01*
X44624998Y-74461125D02*
X43624612Y-74794587D01*
X44624998Y-75652061D02*
X44624998Y-75080412D01*
X44624998Y-75366237D02*
X43624612Y-75366237D01*
X43624612Y-75366237D02*
X43767524Y-75270962D01*
X43767524Y-75270962D02*
X43862799Y-75175687D01*
X43862799Y-75175687D02*
X43910437Y-75080412D01*
D13*
%TO.C,USB C*%
X147665000Y-69670000D02*
X147665000Y-72330000D01*
X147665000Y-69670000D02*
X155345000Y-69670000D01*
X147665000Y-72330000D02*
X155345000Y-72330000D01*
X155345000Y-69670000D02*
X155345000Y-72330000D01*
X157945000Y-71000000D02*
X157945000Y-72330000D01*
X157945000Y-72330000D02*
X156615000Y-72330000D01*
D14*
%TO.C,V1*%
X45820000Y-61787500D02*
X100220000Y-61787500D01*
X45820000Y-87287500D02*
X45820000Y-61787500D01*
X100220000Y-61787500D02*
X100220000Y-87287500D01*
X100220000Y-87287500D02*
X45820000Y-87287500D01*
D11*
X53310000Y-61137500D02*
G75*
G02*
X53110000Y-61137500I-100000J0D01*
G01*
X53110000Y-61137500D02*
G75*
G02*
X53310000Y-61137500I100000J0D01*
G01*
%TD*%
M02*
