%TF.GenerationSoftware,KiCad,Pcbnew,8.0.5*%
%TF.CreationDate,2024-09-09T18:49:08+02:00*%
%TF.ProjectId,info_orbs,696e666f-5f6f-4726-9273-2e6b69636164,rev?*%
%TF.SameCoordinates,Original*%
%TF.FileFunction,Drillmap*%
%TF.FilePolarity,Positive*%
%FSLAX45Y45*%
G04 Gerber Fmt 4.5, Leading zero omitted, Abs format (unit mm)*
G04 Created by KiCad (PCBNEW 8.0.5) date 2024-09-09 18:49:08*
%MOMM*%
%LPD*%
G01*
G04 APERTURE LIST*
%ADD10C,0.100000*%
%ADD11C,0.050000*%
%ADD12C,0.200000*%
G04 APERTURE END LIST*
D10*
X3829600Y-8550000D02*
G75*
G02*
X3509600Y-8550000I-160000J0D01*
G01*
X3509600Y-8550000D02*
G75*
G02*
X3829600Y-8550000I160000J0D01*
G01*
X23111400Y-6300000D02*
G75*
G02*
X22791400Y-6300000I-160000J0D01*
G01*
X22791400Y-6300000D02*
G75*
G02*
X23111400Y-6300000I160000J0D01*
G01*
X3829600Y-6300000D02*
G75*
G02*
X3509600Y-6300000I-160000J0D01*
G01*
X3509600Y-6300000D02*
G75*
G02*
X3829600Y-6300000I160000J0D01*
G01*
X23111400Y-8550000D02*
G75*
G02*
X22791400Y-8550000I-160000J0D01*
G01*
X22791400Y-8550000D02*
G75*
G02*
X23111400Y-8550000I160000J0D01*
G01*
D11*
X3369600Y-6000000D02*
X23251400Y-6000000D01*
X23251400Y-8850000D01*
X3369600Y-8850000D01*
X3369600Y-6000000D01*
D12*
X3627877Y-9163984D02*
X3627877Y-8963984D01*
X3627877Y-8963984D02*
X3675496Y-8963984D01*
X3675496Y-8963984D02*
X3704067Y-8973508D01*
X3704067Y-8973508D02*
X3723115Y-8992555D01*
X3723115Y-8992555D02*
X3732639Y-9011603D01*
X3732639Y-9011603D02*
X3742162Y-9049698D01*
X3742162Y-9049698D02*
X3742162Y-9078270D01*
X3742162Y-9078270D02*
X3732639Y-9116365D01*
X3732639Y-9116365D02*
X3723115Y-9135412D01*
X3723115Y-9135412D02*
X3704067Y-9154460D01*
X3704067Y-9154460D02*
X3675496Y-9163984D01*
X3675496Y-9163984D02*
X3627877Y-9163984D01*
X3827877Y-9163984D02*
X3827877Y-9030650D01*
X3827877Y-9068746D02*
X3837401Y-9049698D01*
X3837401Y-9049698D02*
X3846924Y-9040174D01*
X3846924Y-9040174D02*
X3865972Y-9030650D01*
X3865972Y-9030650D02*
X3885020Y-9030650D01*
X3951686Y-9163984D02*
X3951686Y-9030650D01*
X3951686Y-8963984D02*
X3942162Y-8973508D01*
X3942162Y-8973508D02*
X3951686Y-8983031D01*
X3951686Y-8983031D02*
X3961210Y-8973508D01*
X3961210Y-8973508D02*
X3951686Y-8963984D01*
X3951686Y-8963984D02*
X3951686Y-8983031D01*
X4075496Y-9163984D02*
X4056448Y-9154460D01*
X4056448Y-9154460D02*
X4046924Y-9135412D01*
X4046924Y-9135412D02*
X4046924Y-8963984D01*
X4180258Y-9163984D02*
X4161210Y-9154460D01*
X4161210Y-9154460D02*
X4151686Y-9135412D01*
X4151686Y-9135412D02*
X4151686Y-8963984D01*
X4408829Y-9163984D02*
X4408829Y-8963984D01*
X4408829Y-8963984D02*
X4475496Y-9106841D01*
X4475496Y-9106841D02*
X4542163Y-8963984D01*
X4542163Y-8963984D02*
X4542163Y-9163984D01*
X4723115Y-9163984D02*
X4723115Y-9059222D01*
X4723115Y-9059222D02*
X4713591Y-9040174D01*
X4713591Y-9040174D02*
X4694544Y-9030650D01*
X4694544Y-9030650D02*
X4656448Y-9030650D01*
X4656448Y-9030650D02*
X4637401Y-9040174D01*
X4723115Y-9154460D02*
X4704067Y-9163984D01*
X4704067Y-9163984D02*
X4656448Y-9163984D01*
X4656448Y-9163984D02*
X4637401Y-9154460D01*
X4637401Y-9154460D02*
X4627877Y-9135412D01*
X4627877Y-9135412D02*
X4627877Y-9116365D01*
X4627877Y-9116365D02*
X4637401Y-9097317D01*
X4637401Y-9097317D02*
X4656448Y-9087793D01*
X4656448Y-9087793D02*
X4704067Y-9087793D01*
X4704067Y-9087793D02*
X4723115Y-9078270D01*
X4818353Y-9030650D02*
X4818353Y-9230650D01*
X4818353Y-9040174D02*
X4837401Y-9030650D01*
X4837401Y-9030650D02*
X4875496Y-9030650D01*
X4875496Y-9030650D02*
X4894544Y-9040174D01*
X4894544Y-9040174D02*
X4904067Y-9049698D01*
X4904067Y-9049698D02*
X4913591Y-9068746D01*
X4913591Y-9068746D02*
X4913591Y-9125889D01*
X4913591Y-9125889D02*
X4904067Y-9144936D01*
X4904067Y-9144936D02*
X4894544Y-9154460D01*
X4894544Y-9154460D02*
X4875496Y-9163984D01*
X4875496Y-9163984D02*
X4837401Y-9163984D01*
X4837401Y-9163984D02*
X4818353Y-9154460D01*
X4999305Y-9144936D02*
X5008829Y-9154460D01*
X5008829Y-9154460D02*
X4999305Y-9163984D01*
X4999305Y-9163984D02*
X4989782Y-9154460D01*
X4989782Y-9154460D02*
X4999305Y-9144936D01*
X4999305Y-9144936D02*
X4999305Y-9163984D01*
X4999305Y-9040174D02*
X5008829Y-9049698D01*
X5008829Y-9049698D02*
X4999305Y-9059222D01*
X4999305Y-9059222D02*
X4989782Y-9049698D01*
X4989782Y-9049698D02*
X4999305Y-9040174D01*
X4999305Y-9040174D02*
X4999305Y-9059222D01*
M02*
